<?xml version="1.0" encoding="utf-8"?>
<!-- Generator: Adobe Illustrator 16.0.0, SVG Export Plug-In . SVG Version: 6.00 Build 0)  -->
<!DOCTYPE svg PUBLIC "-//W3C//DTD SVG 1.1//EN" "http://www.w3.org/Graphics/SVG/1.1/DTD/svg11.dtd">
<svg version="1.1" id="Path_1_" xmlns="http://www.w3.org/2000/svg" xmlns:xlink="http://www.w3.org/1999/xlink" x="0px" y="0px"
	 width="96px" height="29px" viewBox="0 0 96 29" enable-background="new 0 0 96 29" xml:space="preserve">
<g id="Path">
	<g>
		<path fill="#FFFFFF" d="M94.037,0c-0.393,0-1.57,0.196-1.963,0.588C77.155,8.426,48.497,24.493,47.908,24.493
			C47.516,24.493,17.875,8.229,2.76,0H1.779C0.994,0,0.012,0.392,0.012,1.764c0,0.392-0.196,1.176,0.981,1.764
			c12.563,7.054,25.714,14.107,38.473,20.966C42.216,25.865,47.516,29,47.908,29c0.589,0,27.088-14.696,40.633-21.946
			c1.963-1.176,4.318-2.352,6.478-3.526C95.804,3.135,96,2.547,96,1.764C96,0.784,95.411,0,94.037,0z"/>
	</g>
</g>
</svg>
