<?xml version="1.0" encoding="utf-8"?>
<!-- Generator: Adobe Illustrator 16.0.0, SVG Export Plug-In . SVG Version: 6.00 Build 0)  -->
<!DOCTYPE svg PUBLIC "-//W3C//DTD SVG 1.0//EN" "http://www.w3.org/TR/2001/REC-SVG-20010904/DTD/svg10.dtd">
<svg version="1.0" id="Layer_1" xmlns="http://www.w3.org/2000/svg" xmlns:xlink="http://www.w3.org/1999/xlink" x="0px" y="0px"
	 width="93px" height="48px" viewBox="0 0 93 48" enable-background="new 0 0 93 48" xml:space="preserve">
<g>
	<path d="M55.578,17.524c-0.003,0.112,0,0.21-0.067,0.266c0,0-0.229,0.22-0.229,0.11c0.007-0.163,0.077-0.424,0.192-0.563
		c-0.645-1.1-1.479-2.074-2.583-2.851l-0.006,0.134l-0.34-0.01l0.01-0.23c0.039,0.004,0.093-0.006,0.146-0.016
		c-0.577-0.384-1.216-0.722-1.944-0.994c-3.828-1.436-7.663-2.854-11.505-4.254c0.072,0.124,0.076,0.297,0.068,0.394
		c-0.686-0.088-0.764-0.412-0.641-0.6c-2.205-0.801-4.408-1.606-6.621-2.38c-5.343-1.87-10.748-1.96-16.182-0.19
		c-0.165,0.054-0.314,0.123-0.476,0.18c-0.003,0.01-0.013,0.02-0.013,0.03l0-0.025c-0.675,0.238-1.317,0.506-1.933,0.799
		l-0.016,0.266c-0.11,0.1-0.229,0.21-0.449,0.09c0-0.033,0.007-0.085,0.012-0.132c-4.89,2.491-7.765,6.662-8.098,11.329
		c0.035,0.054,0.06,0.121,0.056,0.223c-0.021-0.012-0.045-0.012-0.069-0.013c-0.16,2.916,0.645,6.007,2.596,8.993
		c2.971,4.552,6.818,7.664,11.346,9.727c-0.006-0.151,0.001-0.287,0.001-0.287c0.1,0.12,0.25-0.66,0.35-0.54
		c0,0-0.02,0.55,0.09,0.56c-0.007,0.155,0.004,0.313,0.04,0.472c3.416,1.487,7.201,2.404,11.288,2.898
		c1.967-0.45,4.285-0.74,6.432-1.5c3.936-1.37,7.801-2.96,11.647-4.58c1.558-0.66,3.066-1.5,4.465-2.45
		c1.921-1.307,3.252-2.939,3.913-4.84c-0.07-0.062-0.128-0.126-0.128-0.17c0.009-0.157,0.113-0.158,0.229-0.106
		c0.408-1.326,0.497-2.777,0.201-4.354C56.997,20.992,56.478,19.131,55.578,17.524z M56.13,19.049c-0.01,0.22-0.25,0.65-0.57,0.31
		C55.241,19.009,55.91,19.04,56.13,19.049z M55.391,20.689c-0.12,0.22-0.469,0.65-0.689,0.42
		C54.602,20.99,55.281,20.79,55.391,20.689z M54.592,18.43c-0.12,0.21-0.579,0.53-0.679,0.08
		C53.723,17.83,54.382,18.08,54.592,18.43z M52.505,17.45c-0.02,0.45-0.11,0-0.35,0.21c-0.229,0.21-0.22-0.01-0.22-0.12
		C51.625,17.08,52.405,17.22,52.505,17.45z M51.156,17.62c-0.01,0.11-0.02,0.33-0.24,0.33C50.577,17.93,50.827,17.5,51.156,17.62z
		 M51.326,18.959c-0.01,0.12-0.26,0.77-0.47,0.43C50.646,19.049,50.997,18.729,51.326,18.959z M50.277,17.25
		c0.12-0.22,0.33,0.01,0.33,0.01C50.587,17.709,50.147,17.58,50.277,17.25z M50.657,18.83c0,0.11-0.13,0.44-0.35,0.43
		C50.188,19.37,50.437,18.709,50.657,18.83z M50.637,28.12c-0.12,0.22-0.36,0.66-0.569,0.2
		C49.868,27.759,49.748,27.859,50.637,28.12z M49.168,25.72c0.01-0.22,0.35-0.43,0.45-0.09C49.618,25.74,49.028,26.279,49.168,25.72
		z M46.562,14.99c0.12-0.22,0.13-0.44,0.35-0.32C46.891,15,46.421,15.54,46.562,14.99z M46.991,24.299
		c-0.02,0.33-0.38,0.99-0.35,0.32C46.531,24.39,46.662,24.06,46.991,24.299z M41.657,14.569c-0.04,0.78-1.108-0.38-0.409-1.02
		C41.357,13.549,41.547,14.339,41.657,14.569z M41.357,11.93c-0.23-0.01-0.339-0.12-0.56-0.13l0.01-0.11l0.55,0.02V11.93z
		 M40.758,12.91l-0.35,0.21c0.01-0.22-0.1-0.34-0.2-0.45c0.22,0,0.34-0.1,0.56-0.09c0,0-0.12,0.1-0.12,0.21L40.758,12.91z
		 M40.438,33.1c-0.12,0.1-0.23,0.1-0.34,0.1l0.02-0.56l0.33,0.01c-0.11,0.11-0.12,0.22-0.23,0.22
		C40.218,32.979,40.438,32.99,40.438,33.1z M39.839,33.97c-0.459,0.2,0.14-0.56,0.14-0.56C40.768,33.22,39.959,33.75,39.839,33.97z
		 M40.019,24.91c-0.32-0.34,0.349-0.32,0.579-0.31C40.588,24.819,40.348,25.259,40.019,24.91z M39.75,23.45
		c0.009-0.22,0.139-0.66,0.359-0.65c-0.12,0.22-0.02,0.44-0.13,0.55C39.979,23.35,39.739,23.56,39.75,23.45z M39.859,26.24
		c-0.12,0.22-0.47,0.65-0.689,0.42C39.06,26.549,39.739,26.35,39.859,26.24z M40.119,12.1c0.01-0.33,0.13-0.44,0.25-0.65
		c0.22,0,0.22,0.12,0.1,0.33c-0.01,0.12-0.13,0.22,0.09,0.34c0.11,0.12,0.33,0.24,0.22,0.23
		C40.658,12.459,40.229,12.109,40.119,12.1z M39.609,10.75l0.229-0.22c0.449,0.02,0.789-0.08,1.238-0.06l0.11,0.01l-0.01,0.22
		l-1.119-0.05c-0.23,0.22-0.569,0.2-0.659-0.13l-0.11-0.23C39.399,10.29,39.5,10.629,39.609,10.75z M39.32,12.299
		c0,0,0.229,0,0.219,0.12v0.11l-0.449-0.02L39.32,12.299z M39.05,23.979c-0.12,0.22-0.58,0.54-0.669,0.09
		C38.181,23.39,38.84,23.64,39.05,23.979z M38.361,15.77c-0.21-0.34,0.129-0.55,0.239-0.43c0.11,0.11,0.09,0.45,0.2,0.56
		C38.68,16.009,38.58,15.89,38.361,15.77z M37.112,8.75c0.12,0.01,0.559,0.14,0.549,0.36c-0.109-0.01-0.339,0.1-0.339,0.1
		c-0.12,0.1-0.02,0.44-0.02,0.55C36.952,10.08,36.992,9.08,37.112,8.75z M36.942,10.31c0,0,0.21,0.34,0.319,0.34l0.12-0.21
		c0.12-0.11,0.219,0.23,0.33,0.23c0.339-0.1,0.469-0.65,0.799-0.3c0.1,0.11,0.21,0.23,0.21,0.34c0.09,0.34-0.24,0.21-0.359,0.43
		c-0.11,0.11,0.1,0.34-0.02,0.45l-0.33-0.02c0-0.11,0.489-0.98,0.029-0.89c-0.109,0.11-0.01,0.45-0.239,0.44
		c-0.299-0.79-0.689,0.42-0.879-0.26L36.942,10.31z M37.911,29.1c-0.01,0.22-0.24,0.32-0.35,0.21
		C37.352,29.189,37.921,28.759,37.911,29.1z M37.532,12.339l0.339,0.01c-0.01,0.11-0.13,0.22-0.349,0.32
		C37.412,12.549,37.412,12.439,37.532,12.339z M37.701,13.68c0.11,0,0.22,0.12,0.21,0.23v0.11
		C37.801,14.02,37.691,13.899,37.701,13.68z M37.342,11.439l-0.01,0.22l-0.219-0.01l0.02-0.44
		C37.232,11.319,37.352,11.209,37.342,11.439z M37.022,13.99c0.11,0,0.1,0.11,0.209,0.12l-0.01,0.44l-0.33-0.35
		C36.892,14.2,37.012,14.1,37.022,13.99z M36.962,23.009c-0.01,0.44-0.11-0.01-0.34,0.21c-0.23,0.21-0.22-0.01-0.22-0.12
		C36.083,22.64,36.862,22.779,36.962,23.009z M36.553,14.529c-0.01,0.11-0.01,0.22-0.13,0.32h-0.11c0.01-0.22,0.02-0.45-0.089-0.67
		L36.553,14.529z M36.113,26.569c0.11,0.01,0.319,0.24,0.319,0.35c-0.01,0.11-0.229,0.1-0.339,0.1L36.113,26.569z M32.847,27.109
		c0.21,0.23,0.56-0.09,0.68-0.31c-0.19-0.78,0.659,0.25,0.319,0.35c-0.229,0.1-0.33-0.01-0.56,0.09l-0.35,0.43
		c-0.35,0.21-0.409-1.02-0.399-1.24c0,0,0.45-0.09,0.439,0.02l-0.11-0.01C32.757,26.549,32.847,27.109,32.847,27.109z M33.875,14.2
		c0.12-0.11,0.34-0.21,0.45-0.1c0,0.11-0.12,0.22-0.12,0.33c-0.12,0-0.12,0.22-0.12,0.22C33.976,14.529,33.875,14.31,33.875,14.2z
		 M34.345,26.919c-0.01,0.22-0.339,0.09-0.33-0.02C34.125,26.799,34.245,26.799,34.345,26.919z M33.956,27.379l0.33,0.01v0.11
		c-0.12,0.11-0.229,0.11-0.339,0.1L33.956,27.379z M34.375,28.06c0.11-0.1-0.11-0.22,0.01-0.33c0.01-0.22,0.789-0.08,0.899-0.08
		l-0.03,0.67c0,0-0.21-0.34-0.2-0.45c-0.339-0.13-0.25,0.66-0.37,0.76c-0.219-0.01-0.449-0.01-0.56-0.13
		C34.036,28.16,34.245,28.279,34.375,28.06z M34.735,22.81c0.12-0.22,0.339,0.01,0.339,0.01C35.054,23.27,34.615,23.14,34.735,22.81
		z M35.124,24.379c-0.01,0.12-0.13,0.44-0.359,0.44C34.655,24.919,34.905,24.259,35.124,24.379z M34.715,15.68
		c0-0.11-0.42-0.8,0.02-0.56C34.955,15.129,34.814,16.02,34.715,15.68z M34.885,26.41c0-0.11,0.37-0.76,0.579-0.53
		c0.11,0.11-0.34,0.21-0.34,0.21c-0.13,0.33,0.32,0.23,0.439,0.24C35.873,26.899,35.104,26.529,34.885,26.41z M35.614,23.18
		c0,0.11-0.01,0.33-0.229,0.32C35.044,23.49,35.284,23.049,35.614,23.18z M35.704,13.149c0.589-0.53,0.11,0.23-0.13,0.44
		C35.234,13.799,35.594,13.259,35.704,13.149z M35.784,24.52c0,0.11-0.25,0.77-0.459,0.43C35.114,24.609,35.464,24.29,35.784,24.52z
		 M35.943,28.009c0-0.11,0.14-0.88,0.23-0.21l-0.02,0.45c-0.22-0.01-0.34,0.09-0.45,0.09S35.494,28,35.494,28
		C35.614,27.89,35.824,28.009,35.943,28.009z M36.073,9.6c0.11,0.01-0.24,0.55-0.359,0.55l0.02-0.34
		C35.624,9.589,35.853,9.589,36.073,9.6z M34.735,9.439c0.449,0.02,1.168,1.72,0.929,2.04l-0.459,0.21c-0.01,0.44,0.229,0,0.33,0.23
		c0.11,0.01-0.129,0.44-0.24,0.44c-0.23,0.1-0.319-0.35-0.319-0.46C36.063,9.939,34.465,10.759,34.735,9.439z M33.476,13.069
		c0-0.12,0.33,0.01,0.45-0.1c0.12-0.22,0.02-0.44,0.03-0.67c0.12-0.33,0.33,0.02,0.45-0.09c0.229-0.21-0.22-0.23-0.33-0.12
		c-0.11-0.23,0.01-0.34,0.02-0.45c0.01-0.33-0.55-0.47-0.649-0.69c-0.1-0.34,0.379-1.1,0.709-0.98c0.11,0.23-0.02,0.56,0.08,0.79
		c0,0,0.329,0.23,0.21,0.45c-0.11,0-0.22-0.01-0.23,0.1c0,0.11,0.11,0.12,0.1,0.23l0.24-0.21c0,0,0.33,0.01,0.33,0.12
		c0.1,0.12-0.47,0.54-0.37,0.65c0.33,0.35,0.45,0.13,0.31,0.69c0.12,0,0.209,0.34,0.209,0.34l-0.109-0.01
		c-0.22-0.12-0.439-0.13-0.669,0.09c-0.229,0.1-0.25,0.43-0.37,0.65c-0.33-0.01,0.02-0.33-0.09-0.56
		C33.686,13.299,33.246,13.169,33.476,13.069z M33.746,14.529l-0.01,0.33l-0.33-0.01C33.516,14.74,33.526,14.52,33.746,14.529z
		 M33.826,24.81c0,0.22-0.569,0.31-0.35,0.54c0.1,0.23,0.339-0.09,0.319,0.24c-0.11,0.11-0.339,0.21-0.449,0.09
		c-0.109,0,0.01-0.22,0.01-0.33c-0.1-0.12-0.209-0.12-0.209-0.23C32.727,24.43,33.396,24.459,33.826,24.81z M33.157,12.72
		c0.1,0.11-0.24,0.32-0.36,0.54l-0.3-0.9C32.617,12.029,33.046,12.49,33.157,12.72z M32.807,7.359c0,0.11-0.12,0.21-0.12,0.32h-0.23
		c0.01-0.12,0.12-0.22,0.13-0.33c-0.11-0.12-0.11-0.12-0.219-0.12C32.477,7.229,32.707,7.129,32.807,7.359z M32.348,10.459
		l0.219,0.01c0.11,0.11-0.01,0.33,0.1,0.45c-0.01,0.11,0.32,0.34,0.209,0.34c-0.119,0.11-0.339-0.01-0.449-0.02
		C32.328,10.899,32.337,10.68,32.348,10.459z M32.847,25.18c-0.12,0.33-0.12,0.33-0.459,0.32
		C31.838,25.259,32.747,24.959,32.847,25.18z M31.838,9.209c0.11,0.12,0.1,0.23,0.1,0.34c-0.339-0.01-0.439-0.35-0.429-0.57
		C31.739,8.979,31.849,9.1,31.838,9.209z M31.369,20.22c-0.01,0.34-0.479,0.87-0.35,0.32C31.149,20.33,31.149,20.1,31.369,20.22z
		 M31.389,24.27l-0.01,0.33c0,0-0.11,0-0.11-0.11c0,0-0.11-0.12-0.1-0.23L31.389,24.27z M31.04,15.089l-0.01,0.22l-0.22-0.01
		l0.01-0.33C30.93,15.08,31.049,14.97,31.04,15.089z M30.21,8.029c0.21,0.34,0.21,0.23,0.66,0.25c-0.02,0.45-1.029,0.52-0.999-0.15
		C29.871,8.02,29.98,8.02,30.21,8.029z M30.47,24.899c-0.1-0.23-0.51-1.25-0.5-1.47v-0.11c0.239-0.21,0.329,0.24,0.319,0.46
		C30.29,23.89,31.139,25.04,30.47,24.899z M29.751,13.81c0.1,0.23-0.12,0.33-0.13,0.55c-0.11-0.12-0.22-0.12-0.22-0.23
		c0.01-0.22,0.02-0.45,0.14-0.66C29.651,13.58,29.761,13.7,29.751,13.81z M28.882,7.64l0.33,0.02c0.129-0.22,0.129-0.22,0,0.11
		c-0.13,0.33,0.2,0.56,0.189,0.79c-0.01,0.22-0.01,0.22-0.119,0.22c-0.22-0.01,0.01-0.23-0.09-0.45
		C29.082,8.209,28.642,7.97,28.882,7.64z M28.552,10.189l0.56,0.03l-0.02,0.44c-0.219-0.01-0.439-0.13-0.549-0.24L28.552,10.189z
		 M28.682,23.24c-0.01,0.24-0.03,0.54,0.01,0.82c0.18,0.06,0.439,0.14,0.58,0.01c-0.419-0.57,0.01-0.11,0.339,0.02
		c0.1,0.11,0.12-0.22,0.229-0.22c0,0-0.01,0.34-0.129,0.33c-0.12,0.33,0.1,0.45,0.089,0.67c-0.01,0.11-0.359,0.55-0.469,0.54
		c-0.109,0-0.22-0.12-0.33-0.12c-0.109-0.01-0.229,0.21-0.229,0.21c-0.459,0.09-0.319-0.46-0.43-0.57
		c-0.22-0.12-0.809,0.74-0.789,0.08c0.21-0.06,0.589-0.12,0.859-0.28l-0.02-0.06c-0.53-0.69,0.169-1.22-0.05-1.45
		C28.023,22.759,28.582,22.79,28.682,23.24z M27.443,20.62c-0.22-0.23-0.2-0.67-0.19-1.01c0.13-0.33,0.45,0.13,0.549,0.25
		C27.454,20.18,27.893,20.529,27.443,20.62z M28.263,14.64c-0.01,0.22-0.24,0.33-0.46,0.32c0-0.11,0.01-0.23,0.13-0.44l0.339,0.01
		L28.263,14.64z M27.903,12.399c0.11,0.22,0.1,0.34,0.09,0.56c0,0.11-0.01,0.33-0.13,0.44c0,0.11-0.11,0.11-0.22,0.1
		C27.653,13.06,27.893,12.729,27.903,12.399z M27.623,11.16c0.1,0.34-0.359,0.43-0.459,0.21
		C27.064,11.029,27.414,10.709,27.623,11.16z M27.144,11.919l0.219,0.01c-0.11,0.11-0.12,0.33-0.13,0.44h-0.109L27.144,11.919z
		 M26.834,5.669L26.824,6c-0.109-0.11-0.219-0.23-0.209-0.45C26.724,5.549,26.834,5.56,26.834,5.669z M26.155,11.439
		c0.11,0,0.229-0.11,0.34-0.1l0.02-0.45c0,0,0.09,0.45,0.09,0.56l-0.15,0.78c-0.11,0.11-0.22-0.01-0.33-0.01
		c0.01-0.23,0.12-0.33,0.239-0.44C26.364,11.669,26.155,11.549,26.155,11.439z M26.115,20.12c-0.03,0.78-1.099-0.37-0.399-1.01
		C25.825,19.109,26.015,19.899,26.115,20.12z M26.095,20.79c-0.01,0.11-0.25,0.44-0.469,0.54
		C25.286,21.209,25.875,20.56,26.095,20.79z M25.216,12.509c0,0,0.439,0.24,0.32,0.35c-0.11,0-0.33-0.12-0.33-0.12
		c-0.11-0.01-0.229,0.21-0.229,0.1c-0.11-0.01-0.1-0.23-0.1-0.23c0.12-0.22,0.229-0.21,0.02-0.44c0-0.11,0.12-0.22,0.12-0.22
		c-0.11-0.12-0.22-0.23-0.21-0.34c0.22,0,0.45-0.1,0.679-0.2c-0.129,0.33-0.14,0.66-0.37,0.88
		C25.106,12.399,25.106,12.509,25.216,12.509z M24.707,8.589l-0.02,0.45c-0.11-0.12-0.33-0.24-0.32-0.46L24.707,8.589z M23.308,9.99
		l0.01-0.45c0.22,0.12-0.04,1,0.529,0.91c0-0.11,0.23-0.21,0.23-0.32c0.01-0.22-0.1-0.23,0.02-0.45
		c0.229-0.21,0.909-0.18,0.769,0.37c-0.11,0.1-0.469,0.65-0.339,0.1c0.01-0.12,0.229-0.11,0.229-0.22
		c0.13-0.33-0.43-0.24-0.549-0.13c-0.13,0.44-0.15,0.88-0.709,0.97l-0.23-0.01l0.13-0.44C23.408,10.1,23.298,10.1,23.308,9.99z
		 M24.447,14.93v0.12c-0.01,0.11-0.24,0.21-0.35,0.32l0.01-0.45L24.447,14.93z M22.439,12.069c0.22,0.12,0.09,0.45,0.439,0.24
		c0.1,0.11,0.649,0.36,0.419,0.57c-0.12,0.11-0.33-0.01-0.339,0.21c-0.12,0-0.13,0.33-0.13,0.44c-0.119,0-0.209-0.45-0.319-0.46
		c0.01-0.22,0.12-0.33,0.13-0.55C22.639,12.52,22.329,12.06,22.439,12.069z M23.158,13.66l0.22,0.01c-0.01,0.22-0.13,0.44-0.24,0.32
		L23.158,13.66z M22.659,9.399c0,0,0.1,0.12,0.1,0.23c0,0.11,0.189,0.9,0.189,0.9C22.599,10.85,22.419,9.62,22.659,9.399z
		 M21.75,9.589l0.689-0.31l-0.02,0.34c-0.11,0.1-0.229,0.32-0.129,0.55c0,0,0,0.11,0.099,0.22c-0.109,0-0.229,0.11-0.339,0.1
		c0.01-0.11,0.02-0.33-0.2-0.45l-0.12-0.01c0.01-0.11,0.12-0.1,0.12-0.1C21.86,9.819,21.75,9.7,21.75,9.589z M22.029,11.16
		l-0.02,0.33c-0.1-0.11-0.219,0-0.209-0.23c0-0.11,0.11-0.1,0.12-0.22C22.029,11.049,22.029,11.16,22.029,11.16z M20.731,9.99
		l0.01-0.22c0.11,0.01,0.55,0.25,0.66,0.36c-0.24,0.22-0.359,0.43-0.26,0.77c-0.109-0.11-0.539-0.47-0.539-0.58
		C20.611,10.209,20.721,10.109,20.731,9.99z M19.662,6.049c0-0.11,0.33,0.01,0.33-0.1c0.689-0.3,0.22,0.35,0.09,0.68
		c0,0.11-0.25,0.54-0.459,0.2L19.662,6.049z M20.102,11.75l-0.22-0.12c0.24-0.32,0.25-0.66,0.37-0.99
		C20.591,10.66,20.331,11.649,20.102,11.75z M18.673,8.24l0.11,0.12l-0.02,0.33c-0.11,0-0.22-0.01-0.21-0.12
		c0-0.11-0.109-0.23-0.1-0.34L18.673,8.24z M17.964,6.319c0.119,0,0.219,0.12,0.339,0.12l-0.01,0.23l-0.45-0.02
		C17.844,6.54,17.854,6.43,17.964,6.319z M15.836,12.029l0.34-0.21l-0.24,0.44l-0.219-0.01
		C15.717,12.25,15.717,12.129,15.836,12.029z M15.477,7c-0.109-0.01-0.109-0.12-0.1-0.34C15.377,6.77,15.487,6.89,15.477,7z
		 M15.347,10.229c0.01-0.12-0.08-0.68,0.03-0.67c0.11,0,0.42,0.68,0.3,0.79C15.566,10.459,14.778,10.43,15.347,10.229z
		 M14.099,10.62l0.45,0.02c-0.11,0-0.12,0.11-0.23,0.21l-0.229-0.01L14.099,10.62z M13.779,10.39c0,0,0.11-0.11,0.11,0l-0.01,0.33
		h-0.12L13.779,10.39z M14.418,11.189c-0.02,0.34-0.809,0.64-0.35,0.32c0.02-0.44-0.439-0.35-0.539-0.58
		C13.539,10.819,14.418,11.08,14.418,11.189z M12.75,17.279c0,0-0.1-0.34,0.01-0.33c0.229-0.1,0.299,0.79,0.189,0.79
		c-0.11-0.01-0.22-0.01-0.34,0.1C12.62,17.72,12.85,17.399,12.75,17.279z M13.02,18.75c-0.1-0.12-0.54-0.36-0.319-0.35
		C13.04,18.299,13.129,18.75,13.02,18.75z M9.004,15.79c0.11,0.01,0.33,0.02,0.33,0.13C9.214,16.029,8.885,15.899,9.004,15.79z
		 M9.154,17.589c0,0-0.1-0.34,0.01-0.34C9.384,17.37,9.254,17.81,9.154,17.589z M7.227,15.39c0.01-0.11,0.34-0.1,0.33,0.12
		C7.656,15.959,6.887,15.709,7.227,15.39z M5.898,18.02c-0.01,0.22-0.45-0.02-0.359,0.43c-0.01,0.22,0.329,0.12,0.21,0.45
		c-0.439-0.13,0.419,0.69-0.34-0.01c-0.1-0.12-0.1-0.23-0.21-0.23l-0.1-0.23c-0.109-0.23,0.58-0.65,0.47-0.65
		c0.12-0.11-0.209-0.23-0.1-0.23c0.23-0.1,0.439,0.13,0.56,0.02C6.018,17.799,6.008,17.91,5.898,18.02z M7.576,20.759
		c-0.11,0-0.33-0.12-0.33-0.23l-0.11-0.12c-0.31-0.57,0.35-0.21,0.35-0.32C7.816,20.33,7.466,20.649,7.576,20.759z M7.187,16.39
		c-0.43-0.46,0.23-0.1,0.23-0.1c0.649,0.69,0.03-0.78,0.889,0.26c0.1,0.23,0.309,0.46,0.09,0.56c-0.12,0-0.439-0.24-0.439-0.24
		C7.836,16.979,7.307,16.399,7.187,16.39z M8.944,19.93c0,0.11-0.25,0.77-0.139,0.77c0,0.11-0.34,0.21-0.33-0.01
		c-0.12-0.01-0.11-0.12-0.11-0.23c0.01-0.22,0.02-0.33,0.24-0.44c0.12,0.01,0.23,0.01,0.23-0.1c0.08,0,0.16-0.1,0.16-0.09
		L8.944,19.93z M9.214,18.819c-0.439-0.13-0.31-0.46,0.02-0.34C9.883,18.85,9.434,18.939,9.214,18.819z M9.574,20.959
		c0.12-0.11,0.34,0.01,0.45,0.13C10.014,21.31,9.464,21.06,9.574,20.959z M10.073,10.68c-0.11-0.11-0.439-0.35-0.21-0.45l0.45-0.09
		C10.423,10.25,10.293,10.689,10.073,10.68z M10.732,20c0.01-0.11,0.02-0.45,0.13-0.33C10.962,19.89,10.852,20,10.732,20z
		 M11.931,20.04c0.679-0.47,1.368-0.95,1.998-1.42l-0.11-0.07c0-0.11-0.09-0.56,0.01-0.44c0.11,0,0.45,0.02,0.22,0.23
		c-0.04,0.06-0.02,0.12,0.01,0.17l0.35-0.27c-0.01-0.09,0.01-0.18,0.1-0.22c0.03,0.01,0.069,0.03,0.109,0.06
		c0.919-0.74,1.588-1.38,1.668-1.73c0.12-0.5-0.05-3.43,0.069-5.03c-0.209-0.08-0.409-0.22-0.259-0.28c0.1-0.06,0.2-0.07,0.299-0.06
		c0.04-0.29,0.09-0.51,0.17-0.63c0.45-0.66,2.258-1.33,2.108,0.31c-0.08,0.78-0.32,2.09-0.5,3.31l0.04,0.05l-0.06,0.08
		c-0.18,1.29-0.28,2.45-0.01,2.76c0,0,3.636,1.89,5.524,2.33c1.887,0.43,1.388,3.61-0.859,2.34c-2.248-1.27-4.665-2.85-5.254-3.06
		c-0.589-0.22-4.415,2.84-5.115,3.37C11.751,22.379,9.863,21.45,11.931,20.04z M22.409,25.02c-0.01,0.12-0.01,0.12-0.119,0.11
		c-0.1-0.11,0.01-0.22-0.1-0.34c-0.11,0-0.43-0.35-0.31-0.46C22.109,24.12,22.409,24.91,22.409,25.02z M20.861,21.29
		c0,0.12-0.359,0.55-0.35,0.44l-0.23-0.01c0.01-0.11,0.01-0.11-0.1-0.23c0.01-0.11,0.229-0.21,0.24-0.33
		c0.11,0.01,0.11-0.1,0.11-0.1C20.761,21.069,20.871,21.069,20.861,21.29z M19.622,21.58c-0.23,0.1-0.1-0.45,0.13-0.55
		C19.862,21.029,19.732,21.58,19.622,21.58z M15.077,20.39c-0.1-0.11-0.089-0.34,0.02-0.33c-0.01,0.11-0.01,0.11,0.1,0.23
		C15.197,20.29,15.197,20.399,15.077,20.39z M15.866,36.18c-0.339,0.09,0.35-0.55,0.459-0.43
		C16.326,35.75,15.976,36.18,15.866,36.18z M17.185,20.919c0.11,0.12,0.33,0.13,0.33,0.13c0.01-0.11,0.1,0.34-0.23,0.21
		C17.285,21.149,17.185,21.04,17.185,20.919z M17.435,23.49c0.01-0.22,0.02-0.56,0.14-0.66c0.1,0.22,0.089,0.44,0.089,0.56
		C17.654,23.5,17.435,23.49,17.435,23.49z M17.794,25.729c0.11-0.11,0.339-0.1,0.449-0.09c0.11,0,0.669,0.14,0.55,0.24
		c0,0-0.44-0.13-0.34,0.1c0.1,0.23,0.439,0.13,0.659,0.25C18.843,27.33,18.114,26.189,17.794,25.729z M21.031,35.6
		c-0.11,0-0.459,0.43-0.58,0.54c-0.11-0.01-0.11-0.12-0.1-0.23c0.23-0.1,0.02-0.56,0.47-0.54l0.22,0.01
		C21.26,35.39,21.031,35.6,21.031,35.6z M20.661,26.85c-0.439-0.24-0.779-0.25-0.639-0.81l0.339-0.32c0,0-0.2-0.56-0.08-0.56
		c0,0,0.1,0.23,0.09,0.34c0.34,0.01,1.019-0.29,1.009,0.04C20.581,25.839,21.12,26.529,20.661,26.85z M21.35,36.169
		c-0.12,0.11-0.1-0.34,0.01-0.33C21.48,35.729,21.46,36.18,21.35,36.169z M21.51,24.99l-0.439-0.02c-0.11-0.12,0.009-0.33-0.1-0.45
		c-0.21-0.34-0.469,0.54-0.679,0.31c-0.11-0.12,0.02-0.45-0.09-0.56c-0.22-0.12-0.34,0.1-0.56,0.09c-0.12-0.01-0.989-0.49-1.099-0.6
		c0-0.12,0.13-0.56,0.13-0.56c0.01-0.22,0.13-0.44,0.14-0.55c0.01-0.22,0.01-0.33-0.1-0.45c0.219,0.23,0.549,0.47,0.769,0.48
		c0.22,0.12,0.339-0.1,0.449-0.09c0.11,0,0.34,0.01,0.439,0.12c-0.12,0.33-0.02,0.67,0.42,0.69c0.12,0,0.469-0.43,0.579-0.42
		c0.11,0.11-0.02,0.44,0.54,0.46c0.32,0.35,0.09,0.56-0.35,0.32l0.02-0.33c-0.109,0-0.339,0.1-0.349,0.21
		c-0.02,0.67,0.54,0.69,0.529,0.8l-0.23,0.21C21.53,24.649,21.63,24.879,21.51,24.99z M21.8,26.339c-0.11-0.12,0.479-0.99,0.45-0.1
		C22.239,26.47,21.9,26.56,21.8,26.339z M22.908,36.35c0,0-0.909,0.29-0.669-0.03c0.11-0.11,0.699-0.75,0.37-0.88
		c0.11-0.1,0.229-0.21,0.449-0.2C22.938,35.569,22.918,36.009,22.908,36.35z M23.188,25.169c0-0.11-0.1-0.34-0.09-0.56
		c-0.11-0.12-0.339-0.02-0.449-0.02c0.01-0.11,0.12-0.22,0.12-0.22c0.01-0.11-0.1-0.34,0.02-0.33c0.219,0,0.439,0.12,0.669,0.02
		c0.11,0.01,0.11-0.1,0.01-0.22c-0.01,0.11-0.12,0.11-0.229,0.1c0-0.11,0.12-0.22,0.12-0.33c-0.11-0.11-0.209-0.34-0.2-0.45
		c0.11,0,0.22-0.1,0.22-0.1c0.09,0.56,0.509,1.35,1.069,1.49c0.109,0,0.33-0.1,0.45-0.1l0.31,0.69c-0.12,0.1-0.229,0.1-0.34,0.09
		c-0.11-0.11-0.22-0.23-0.329-0.23c-0.22-0.12-0.34,0.1-0.46,0.2c-0.1-0.11-0.32-0.23-0.439-0.24
		C23.528,25.069,23.298,25.169,23.188,25.169z M24.187,37.959c0,0-0.01,0.22-0.12,0.21c-0.45-0.12-0.3-0.9-0.09-0.78
		c0.25-0.55,0.54,0.58,0.54,0.69C24.497,38.419,24.187,37.959,24.187,37.959z M25.845,28.5c-0.1-0.11-1.438-0.28-1.418-0.72
		c-0.11-0.01-0.22-0.12-0.22-0.23c-0.1-0.23,0.349-0.32,0.02-0.56c-0.34,0.32-0.11,0-0.32-0.23c-0.22-0.12-0.319-0.46,0.01-0.34
		c0.439,0.13,0.429,0.46,0.649,0.7c0.1,0.11,0.33,0.12,0.439,0.12c0.23-0.21,0.459-0.31,0.56,0.03c0.31,0.68-0.339,0.09-0.45,0.09
		c-0.12,0.11,0.2,0.57,0.31,0.57l0.879,0.26C26.854,28.66,26.185,28.52,25.845,28.5z M26.794,27.2c-0.109,0-0.22-0.12-0.33-0.12
		c0.01-0.11,0.23-0.21,0.35-0.21L26.794,27.2z M26.554,23.149c-0.23,0.1-0.1-0.34,0.35-0.21
		C26.894,23.049,26.665,23.16,26.554,23.149z M27.064,13.919c-0.23,0-0.45-0.13-0.549-0.35c0.01-0.11,0.12-0.22,0.13-0.44
		c0.01-0.11,0.229,0.01,0.229-0.1l0.21,0.45L27.064,13.919z M27.224,27.779l0.439,0.02v0.11l-0.559-0.02
		C27.104,27.89,27.114,27.77,27.224,27.779z M27.323,38.08c0.09-0.06-0.06-1.44,0.37-1.1c0.11,0.01,0.1,0.34,0.21,0.34
		C27.673,37.54,27.653,37.979,27.323,38.08z M28.353,30.16c-0.09-0.33,0.379-0.87-0.05-1.34c-0.22-0.12,0.01-0.33-0.21-0.45
		l-0.219-0.01c-0.1-0.34-0.09-0.67-0.08-1l0.56,0.02c0.109,0.11-0.01,0.44-0.02,0.55c-0.01,0.23,0.209,0.46,0.2,0.68
		c0.1,0.23,0.27,1.57,0.26,1.91C28.772,30.85,28.353,30.279,28.353,30.16z M28.772,28.29c0-0.23,0.12-0.22,0.24-0.44
		c0.01-0.22-0.4-1.24,0.379-1.1c0.21,0.34,0.22,0.12,0.549,0.13c0,0.12,0.21,0.35,0.1,0.45l-0.459,0.21
		c-0.23,0.1-0.13,0.55-0.25,0.66C29.211,28.299,28.882,28.29,28.772,28.29z M29.541,28.54c0.12-0.11,0.22,0.01,0.33,0.12L29.86,29
		l-0.229-0.01C29.531,28.87,29.421,28.759,29.541,28.54z M30.11,31.129l0.01-0.34c0.01-0.11,0.12-0.11,0.12-0.22l-0.02,0.45
		C30.22,31.129,30.11,31.129,30.11,31.129z M30.24,37.529c0,0,0.01-0.22,0.24-0.21c0,0,0.1,0.22,0.209,0.23L30.24,37.529z
		 M37.631,35.99c-0.109,0-0.33-0.12-0.33-0.23l0.02-0.34l0.33,0.02L37.631,35.99z M40.139,37.77c-0.01,0.11-0.23,0.1-0.34,0.09
		l0.01-0.22l0.33,0.01V37.77z M40.788,35.339c-0.219-0.01-0.339,0.1-0.449,0.2l0.319,0.24l-0.219-0.01l-0.02,0.45
		c-0.11,0.1-0.229,0.1-0.33-0.02c0-0.11-0.1-0.33-0.09-0.56c0.11-0.1,0.12-0.33,0.13-0.44c0.109-0.1,0.229-0.21,0.229-0.32
		c-0.209-0.23-0.55-0.25-0.769-0.15c-0.12,0.22-0.04,1.01-0.27,1.11c-0.11-0.01-0.32-0.46-0.32-0.46
		c-0.22-0.01-0.689,0.42-0.909,0.41c-0.089-0.56-0.549-0.36-0.979-0.71c-0.33-0.23,0.03-0.89-0.53-0.91
		c-0.22-0.01-0.23,0.32-0.449,0.2c-0.11-0.11-0.1-0.33-0.32-0.45c-0.11-0.12-0.22-0.12-0.32-0.35c0.11,0,0.34-0.1,0.56-0.09
		c0.01-0.22-0.209-0.34-0.319-0.46c-0.11,0-0.66-0.14-0.779-0.03l0.109,0.12c0.31,0.68-0.02,0.44-0.04,0.89
		c-0.01,0.33,0.32,0.57-0.14,0.77c-0.43-0.57-0.41-1.02-1.059-1.6c0.01-0.11-0.189-0.68-0.08-0.79c0.12-0.1,0.34,0.02,0.459-0.09
		c0.22-0.1-0.219-0.23-0.1-0.45c0,0,0.01-0.11,0.12-0.1l-0.229-0.01c-0.1-0.12-0.21-0.24-0.32-0.24c-0.22-0.12-0.32-0.46-0.649-0.58
		c-0.12,0.22-0.14,0.55-0.48,0.65l0.02-0.45c-0.329-0.12-0.769-0.25-1.218-0.16c-0.11-0.22,0.35-0.32,0.14-0.66
		c-0.43-0.46-0.57,0.09-0.909,0.19c-0.11-0.01-0.09-0.45-0.2-0.57c0,0-0.549-0.24-0.549-0.36c0,0,0.34,0.02,0.34-0.09
		c0.12-0.11,0.37-0.77,0.149-0.89c-0.339,0.1-0.199-0.45-0.09-0.45c0.11-0.11,0.33,0.24,0.439,0.13c0.459-0.2-0.089-0.56-0.199-0.68
		c0.12-0.1,0.469-0.42,0.579-0.31c0.11,0.01-0.13,0.33-0.13,0.44c0.1,0.12,0.33,0.02,0.439,0.02c0.22,0.23-0.14,0.89,0.32,0.46
		c0.769,0.36,0.199,0.56,0.189,1.01c-0.01,0.11,0.219-0.1,0.339-0.1c0.12-0.22,0.13-0.44,0.359-0.65c-0.01,0.22,0.1,0.34,0.31,0.57
		c0.43,0.57,0.34-0.1,0.57-0.2c0.12-0.11,0.21,0.34,0.21,0.45c-0.12,0-0.34,0.1-0.459,0.09c0,0.12,0.109,0.23,0.219,0.24
		c0.22,0,0.56-0.09,0.899-0.08c0-0.11,0.11-0.11,0.12-0.22c0.34-0.1,0.669-0.08,0.889,0.04c0.229-0.1,0.35-0.32,0.469-0.54
		c0.11,0.11-0.02,0.56,0.32,0.46c0.11,0,0.12-0.22,0.229-0.1c0.11,0,0.54,0.46,0.649,0.47l0.02-0.34c0.33,0.02,0.649,0.36,0.979,0.6
		c0.109,0.12,0.45,0.02,0.549,0.13c0,0.11-0.229,0.22-0.229,0.33c-0.12,0.1-0.01,0.22,0.09,0.45c0,0-0.58,0.53-0.13,0.55
		c0,0,0.229-0.33,0.339-0.21c0,0-0.12,0.22-0.12,0.33c0.41,0.8,0.35-0.43,0.47-0.54c0.449-0.2,0.429,0.35,0.31,0.57
		c-0.14,0.66-0.51,1.54,0.509,1.14c0.23,0,0.11,0.11,0.1,0.33c-0.35,0.44-1.978,1.93-0.18,1.67c0.12-0.11,0.709-0.75,0.919-0.41
		c0.1,0.11-0.13,0.44-0.03,0.55c0.109,0.12,0.339,0.02,0.33,0.24C40.798,35.12,40.798,35.229,40.788,35.339z M40.978,33.56
		l-0.459,0.21c0.01-0.11,0.119-0.22,0.129-0.33c0.11,0,0.33,0.01,0.449-0.09C41.087,33.459,40.978,33.45,40.978,33.56z
		 M40.918,32.109c-0.11,0-0.66-0.13-0.66-0.13c0-0.12,0.569-0.32,0.79-0.08c0.209,0.34-0.26,0.65,0.069,1
		C40.558,32.879,40.908,32.56,40.918,32.109z M41.527,15.43c-0.089,0.13-0.229,0.28-0.37,0.34c-0.259-0.09,0.04-0.51,0.29-0.58
		l0.01-0.36C41.957,15.049,41.797,15.79,41.527,15.43z M42.086,17.589c-0.22,0.11-0.09-0.33,0.35-0.21
		C42.426,17.5,42.207,17.6,42.086,17.589z M41.997,12.509c0.02-0.44,0.35-0.21,0.36-0.54c0.129-0.33-0.53-0.69,0.149-0.88
		l0.339,0.01l-0.01,0.11c0.1,0.23-0.12,0.11-0.12,0.22l-0.27,1.1L41.997,12.509z M42.706,14.439c0-0.04,0.03-0.1,0.08-0.15
		l0.01-0.23c0.12-0.33,0.439,0.13,0.549,0.24c-0.349,0.32,0.08,0.67-0.369,0.77c-0.14-0.15-0.18-0.39-0.19-0.63H42.706z
		 M42.855,26.81c0.01-0.22,0.32,0.35,0.549,0.24C43.166,27.379,42.845,27.14,42.855,26.81z M43.425,13.24
		c0,0.11-0.12,0.22-0.339,0.21c0-0.11,0.01-0.22,0.12-0.33l0.229,0.01L43.425,13.24z M43.265,11.779l0.22,0.01
		c0.229-0.1,0.13-0.44,0.35-0.43c0.12,0.01,0.12,0.01,0.11,0.12c-0.01,0.22-0.13,0.44-0.25,0.66
		C43.585,12.129,43.146,11.89,43.265,11.779z M43.935,19.12c-0.54-0.69,0.16-1.22-0.06-1.46c-0.31-0.45,0.239-0.43,0.339,0.02
		c-0.01,0.33-0.03,0.78,0.07,1.12C44.144,19.35,44.024,19.569,43.935,19.12z M44.414,13.609c-0.22-0.01-0.09-0.45-0.08-0.67
		c0,0,0.13-0.44,0.239-0.32c0.1,0.11-0.129,0.44-0.139,0.66C44.543,13.39,44.534,13.509,44.414,13.609z M45.343,12.979
		c0.1,0.12-0.01,0.22-0.02,0.33h-0.22c-0.11-0.12-0.1-0.23-0.1-0.34L45.343,12.979z M45.413,27.25c-0.549-0.36-0.419-0.69-0.09-0.45
		c0.22,0.12,0.32,0.23,0.549,0.24C45.743,27.37,45.752,27.259,45.413,27.25z M46.002,26.6c-0.25,0.55-0.2-0.79,0.25-0.77
		L46.002,26.6z M46.611,30.75c-0.21-0.23-0.09-0.56,0.25-0.55C46.741,30.419,46.721,30.859,46.611,30.75z M47.161,31.1
		c-0.24,0.33-0.189-0.78,0.14-0.77C47.291,30.549,47.28,30.89,47.161,31.1z M46.911,26.08c0.13-0.33-0.31-0.68,0.469-0.54
		C47.25,26.089,46.562,26.399,46.911,26.08z M47.67,29.56c0.24-0.43,0.35-0.43,0.45,0.02C47.99,29.91,47.55,29.779,47.67,29.56z
		 M47.93,19.939c-0.55-0.24,0.349-0.54,0.459-0.31C48.26,19.959,48.26,19.959,47.93,19.939z M49.199,27.729
		c-0.03,0.67-0.56,0.09-0.55-0.36l0.459-0.09c0.12-0.22,0.35-0.43,0.56-0.2C49.548,27.41,49.328,27.399,49.199,27.729z
		 M49.548,21.35c0.12-0.11,0.229-0.11,0.34,0.01C49.877,21.58,49.548,21.459,49.548,21.35z M49.888,29.99
		c-0.1-0.23,0.25-0.55,0.469-0.54C50.357,29.45,50.098,30.33,49.888,29.99z M51.556,30.279c0.12-0.22,0.569-0.2,0.79-0.2
		C52.325,30.75,51.426,30.72,51.556,30.279z M54.482,29.839c-0.1-0.23,0.02-0.45,0.239-0.33
		C54.722,29.62,54.582,30.169,54.482,29.839z M56.23,28.12c-0.11,0.11,0.099,0.45,0.089,0.56c-0.25,0.55-0.529-0.69-0.869-0.59
		c-0.569,0.2-0.799,0.3-1.039,0.74c-0.12,0.11-0.24,0.44-0.35,0.32c-0.32-0.35,0.229-0.21,0.13-0.44
		c0.02-0.45-0.559,0.09-0.659-0.36c0.13-0.33,0.149-0.77,0.379-1.1c0.24-0.21,0.689-0.42,0.14-0.55c-0.23,0.1-1.708,0.6-1.817,0.71
		c-0.12,0.1-0.809,0.63-0.7,0.75c0.21,0.12,0.669,0.02,0.419,0.46c-0.109,0-0.319-0.35-0.549-0.02c-0.13,0.33-0.26,0.88-0.28,1.32
		c-0.479,0.65-1.138,0.52-0.449-0.01c0.35-0.43-0.09-0.56-0.29-1.02c-0.22-0.23,0.449-0.09,0.56-0.2
		c0.339-0.1,0.129-0.44,0.259-0.77c0.11-0.1,0.379-1.1,0.28-1.32c-0.11-0.12-0.45-0.13-0.56-0.14c-0.22-0.12,0.13-0.44,0.25-0.55
		c0.12-0.32-0.22-0.23-0.32-0.45c0.13-0.44,1.208,0.6,1.129-0.29c-0.21-0.23-0.43-0.47-0.649-0.59c0.01-0.11-0.1-0.33-0.1-0.33
		c0.22,0.12,0.659,0.47,0.779,0.14c0.01-0.11,0.01-0.11,0.12-0.11c0.11,0.01,0.649,0.58,0.649,0.47c0.35-0.32,0.369-0.65,0.489-1.09
		c0.24-0.33,0.11,0.11,0.21,0.34c0.11,0.12,0.769,0.37,0.209,0.57c-0.799,0.19,0.489,1.58,0.739,0.92
		c0.129-0.33,0.22,0.12,0.109,0.22c-0.359,0.55,0.19,0.68,0.43,0.25c0.01-0.12,0.459-0.21,0.34,0.01
		c-0.01,0.22-0.469,0.65-0.03,0.78c0.33,0.01,0.459-0.43,0.789-0.19c0.33,0.23,0.529,0.69,0.19,0.89
		c-0.569,0.32,0.209,0.35,0.419,0.58C56.66,28.589,56.35,27.899,56.23,28.12z M57.249,25.04c-0.01,0.23-0.22-0.01-0.22-0.12
		c-0.2-0.45,0.02-0.55,0.35-0.32C57.369,24.819,57.259,24.819,57.249,25.04z"/>
	<path d="M87.495,23.75c-0.045-0.225-0.117-0.507-0.096-0.688c-0.062-0.144-0.123-0.289-0.194-0.432
		c-3.206-6.41-8.39-9.99-15.652-10.27c-5.324-0.2-9.509,2.78-10.987,7.88c-0.609,2.08-0.79,4.28-1.169,6.43
		c0.021,0.34,0.048,0.677,0.079,1.013c0.139-0.103,0.297-0.245,0.371-0.313c0.12-0.21,0.21,0.24,0.34-0.09
		c0.13-0.55,0.439,0.13,0.899-0.08c0.34-0.32,0.25-0.66,0.79-0.3c-0.02,0.44-0.01,0.33-0.35,0.32c-0.22-0.01-0.12,0.33-0.35,0.43
		c-0.229,0.1-0.559-0.13-0.779-0.03c-0.12,0.11-0.24,0.44-0.58,0.53c-0.109,0.06-0.193,0.091-0.277,0.122
		c0.279,2.5,0.894,4.871,2.345,7.008c1.518,2.24,3.536,3.34,6.333,2.72c2.307-0.52,4.645-0.87,6.941-1.42
		c3.646-0.89,7.152-2.16,10.009-4.73c2.427-2.185,3.385-5.185,2.512-8.035C87.605,24.02,87.53,24.098,87.495,23.75z M60.295,29.959
		c-0.02,0.55-0.319-0.24,0.03-0.78c0.01-0.11,0.39-1.32,0.36-0.55c-0.02,0.45,0.22,0.24,0.659,0.36
		C60.995,29.319,60.325,29.399,60.295,29.959z M61.254,28.319c-0.11,0.11-0.549-0.13-0.319-0.23c0.11-0.11,0.339-0.1,0.449-0.1
		C61.384,28.1,61.375,28.22,61.254,28.319z M81.801,20.74c-0.01,0.22-0.24,0.32-0.349,0.32C81.122,20.819,81.691,20.62,81.801,20.74
		z M81.631,22.069c-0.01,0.33-0.439-0.02-0.439-0.02L81.631,22.069z M80.053,22.45c-0.01,0.33-0.22-0.01-0.329-0.12
		C79.624,21.99,80.053,22.45,80.053,22.45z M78.994,23.74c-0.01,0.12-0.139,0.78-0.359,0.55C78.425,24.06,78.665,23.62,78.994,23.74
		z M78.514,21.83c0.01-0.33,0.45-0.2,0.44,0.02C78.944,22.29,78.604,22.279,78.514,21.83z M78.874,21.069
		c-0.12,0.33-0.34,0.09-0.33-0.13c0.01-0.22,0.459-0.31,0.569-0.31C79.114,20.85,78.884,20.839,78.874,21.069z M78.544,18.16
		l0.439,0.35c-0.14,0.55-0.339,0.09-0.559-0.03S78.325,18.149,78.544,18.16z M75.837,24.399c-0.03,0.56-0.33-0.24,0.03-0.78
		c0-0.11,0.39-1.32,0.35-0.54c-0.01,0.44,0.22,0.23,0.659,0.36C76.527,23.759,75.857,23.839,75.837,24.399z M76.637,24.259
		c0,0-0.12,0.21-0.34,0.2C76.188,24.459,76.427,24.02,76.637,24.259z M76.467,22.529c0.12-0.11,0.339-0.1,0.45-0.09
		c0,0.11-0.01,0.22-0.12,0.33C76.677,22.87,76.237,22.629,76.467,22.529z M77.346,26.18c0,0.11-0.01,0.22-0.12,0.22
		c-0.11-0.01-0.21-0.35-0.21-0.35c-0.11-0.11-0.329-0.12-0.329-0.23C76.926,25.49,77.126,26.06,77.346,26.18z M78.025,22.819
		c-0.01,0.22-0.01,0.22-0.24,0.32C76.647,23.649,76.796,22.77,78.025,22.819z M77.805,19.91c-0.02,0.55-0.319-0.46-0.429-0.58
		C77.166,18.99,77.735,18.899,77.805,19.91z M75.268,18.919c-0.01,0.22-0.12,0.21-0.12,0.33
		C74.689,19.56,74.589,19.22,75.268,18.919z M73.641,20.52c0.33,0.24,0.549,0.25,0.649,0.47c0.22,0.24,0.319,0.46,0.31,0.8
		l-0.11-0.12c-0.1-0.23-0.1-0.23-0.33-0.23c-0.339,0.2,0.419,0.79,0.639,0.8c0.11,0,0.459-0.32,0.58-0.42
		c0.119-0.22,0.209,0.23,0.339-0.1c0.129-0.55,0.439,0.13,0.899-0.08c0.35-0.32,0.25-0.65,0.799-0.3c-0.02,0.45-0.02,0.34-0.35,0.32
		c-0.23-0.01-0.13,0.33-0.36,0.43c-0.229,0.11-0.549-0.13-0.779-0.03c-0.12,0.11-0.239,0.44-0.579,0.54
		c-1.148,0.62-0.77-0.48-1.978-0.97C72.941,21.27,73.301,20.62,73.641,20.52z M74.879,26.41l-0.11-0.11l0.889,0.03
		c-0.01,0.34-0.13,0.56-0.26,0.88c-0.12,0.33-0.32-0.34-0.31-0.45l0.01-0.23L74.879,26.41z M75.118,25.979
		c0.01-0.34,0.45-0.1,0.56,0.02C75.558,26.109,75.108,26.31,75.118,25.979z M72.911,19.049c0,0.22-0.12,0.21-0.13,0.44
		c0,0.22-0.22-0.01-0.209-0.12C72.362,18.91,72.592,18.81,72.911,19.049z M66.169,22.569c-0.12,0.21-0.359,0.65-0.569,0.2
		C65.399,22.2,65.29,22.31,66.169,22.569z M65.899,23.89c0,0-0.259,0.88-0.469,0.54C65.32,24.2,65.669,23.879,65.899,23.89z
		 M67.417,25.56c-0.01,0.22-0.35,0.32-0.459,0.09C66.858,25.54,67.297,25.549,67.417,25.56z M67.088,24.72
		c0.13-0.22,0.569-0.2,0.799-0.19C67.857,25.2,66.958,25.16,67.088,24.72z M67.208,27.779c-0.12,0.33-0.889-0.15-0.979-0.49
		C66.818,26.319,67.138,26.89,67.208,27.779z M67.167,28.89c-0.01,0.23-0.239,0.33-0.35,0.32
		C66.489,29.089,67.058,28.89,67.167,28.89z M65.919,26.609c-0.33-0.23,0.24-0.43,0.35-0.32
		C66.259,26.52,66.029,26.62,65.919,26.609z M66.099,27.62c-0.01,0.34-0.45-0.01-0.45-0.01L66.099,27.62z M64.701,20.169
		c0.01-0.23,0.349-0.43,0.449-0.1C65.15,20.18,64.57,20.72,64.701,20.169z M64.641,21.72c0.12-0.21,0.35-0.43,0.569-0.2
		c-0.13,0.33-0.35,0.32-0.479,0.65c-0.02,0.67-0.56,0.09-0.54-0.35L64.641,21.72z M64.521,28.009c-0.02,0.33-0.23-0.01-0.33-0.13
		C64.091,27.54,64.521,28.009,64.521,28.009z M62.922,19.979c-0.14,0.56-0.819,0.86-0.469,0.54
		C62.573,20.189,62.144,19.839,62.922,19.979z M62.523,18.74c-0.02,0.34-0.379,0.99-0.35,0.32
		C62.073,18.839,62.193,18.509,62.523,18.74z M60.945,21.689c-0.54-0.36-0.419-0.69-0.09-0.45c0.219,0.12,0.33,0.23,0.549,0.24
		C61.274,21.81,61.284,21.7,60.945,21.689z M61.534,21.04c-0.25,0.55-0.189-0.78,0.25-0.77L61.534,21.04z M61.844,24.89
		c-0.14-0.23,0.07-0.34,0.24-0.09c0.05-0.1,0.16-0.16,0.31-0.16c-0.08,0.16-0.12,0.42-0.169,0.52c0.02,0.09,0.04,0.19,0.05,0.31
		C62.244,26.02,61.954,25.009,61.844,24.89z M62.253,28.7c-1.139,0.51-0.999-0.38,0.229-0.33
		C62.483,28.589,62.483,28.589,62.253,28.7z M62.842,24.77c-0.01,0.23-0.03,0.56-0.149,0.78
		C62.463,25.87,62.503,24.759,62.842,24.77z M62.953,28.06c0.11,0,0.21,0.34,0.319,0.34c-0.229,0.11-0.339-0.01-0.559-0.13
		C62.603,28.259,62.833,28.049,62.953,28.06z M62.973,27.39c0.02-0.34,0.459-0.21,0.449,0.02
		C63.402,27.85,63.072,27.839,62.973,27.39z M63.462,29.299c-0.01,0.11-0.15,0.78-0.359,0.54
		C62.882,29.609,63.123,29.18,63.462,29.299z M63.292,30.74c-0.229,0.11-0.129,0.22-0.25,0.55c-0.13,0.33-0.22-0.12-0.21-0.34
		c0.25-0.66,0.14-0.78,0.689-0.42C63.512,30.64,63.512,30.64,63.292,30.74z M63.342,26.62c-0.129,0.33-0.339,0.1-0.33-0.12
		c0.01-0.22,0.46-0.32,0.57-0.31C63.572,26.41,63.352,26.399,63.342,26.62z M63.392,24.22c-0.13,0.29-0.31-0.07-0.51-0.18
		c-0.219-0.12-0.09-0.34,0.13-0.33l0.25,0.2c0.2-0.34,0.3-0.3,0.39,0.12C63.602,24.16,63.492,24.22,63.392,24.22z M64.65,30.35
		c-0.479,0.65-0.569,0.09-0.549-0.24c-0.209-0.46,0.719-1.31,1.029-0.74C65.01,29.589,64.88,30.14,64.65,30.35z M64.97,27.91
		l0.23-0.21c-0.01,0.33,0.1,0.23,0.319,0.35C65.399,28.259,64.851,28.129,64.97,27.91z M65.979,30.52
		c-0.22-0.01-0.08-0.68,0.24-0.33C66.219,30.299,66.099,30.52,65.979,30.52z M66.129,29.74c-0.01,0.23-0.339-0.01-0.33-0.12
		c-0.659-0.36,0.35-0.43,0.569-0.43C66.358,29.419,66.029,29.399,66.129,29.74z M66.199,27.959c0.109,0.12,0.099,0.34,0.319,0.35
		c0.11,0,0.229-0.1,0.22,0.12c-0.01,0.33-0.12,0.22-0.34,0.21C65.38,28.709,65.859,27.95,66.199,27.959z M66.628,31.1
		c-0.2-0.57,0.24-0.33,0.569-0.09C67.068,31.45,66.728,31.549,66.628,31.1z M68.556,30.399c-0.33-0.13-0.189-0.68,0.24-0.33
		C68.796,30.18,68.786,30.41,68.556,30.399z M70.964,29.16c-0.23,0.1-0.35,0.32-0.68,0.19c-0.229-0.01-0.669-0.14-0.54-0.47
		c0.23-0.21,0.13-0.55-0.209-0.45c-0.11,0-0.01,0.22-0.13,0.33c-0.45,0.2-0.01,0.33-0.25,0.66c0,0.11-0.45,0.09-0.55-0.02
		c0-0.12,0.23-0.22,0.12-0.33c-0.1-0.23-0.43-0.47-0.549-0.14c-0.01,0.11-0.38,0.99-0.38,0.99c-0.11,0-0.1-0.23-0.21-0.34
		c-0.109-0.01-0.119,0.22-0.239,0.32c-0.229,0.11-0.21-0.34,0.03-0.55c0.679-0.31,0.25-0.77,0.05-1.34
		c0.12-0.33,0.29-1.66,0.629-1.87c0.549,0.25-0.529,2.1,0.839,1.48c0.12-0.1,0.25-0.54,0.47-0.42c0.32,0.23,0.549,0.24,0.759,0.47
		c0.209,0.46,0.11,0.12,0.33,0.13c0.339-0.1,0.549,0.35,0.319,0.57c-0.469,0.54,0.33,0.12,0.43,0.24
		C71.193,28.83,71.193,28.939,70.964,29.16z M69.625,26.089c0.229-0.1,0.01-0.22,0.02-0.33c0.34-0.21,0.539,0.36,0.539,0.47
		c-0.129,0.33-0.339,0.09-0.129,0.44c-0.01,0.22-0.03,0.66-0.35,0.43c-0.12-0.01,0.12-0.22-0.21-0.34
		c-0.229-0.01-0.229,0.1-0.47,0.31c-0.229,0.33-0.339,0.21-0.429-0.24c-0.11-0.22,0.23-0.32,0.25-0.66
		C68.746,25.72,69.295,25.97,69.625,26.089z M70.254,23.95c0,0.12-0.139,0.67-0.229,0.33C69.915,24.049,70.035,23.83,70.254,23.95z
		 M70.984,22.529c-0.57,0.2-0.79,0.31-1.039,0.74c-0.11,0.11-0.24,0.44-0.35,0.32c-0.32-0.34,0.239-0.21,0.13-0.44
		c0.02-0.44-0.56,0.09-0.649-0.36c0.12-0.33,0.14-0.77,0.379-1.1c0.23-0.21,0.689-0.42,0.13-0.55c-0.23,0.1-1.698,0.6-1.818,0.71
		s-0.809,0.64-0.699,0.75c0.22,0.12,0.669,0.03,0.43,0.46c-0.11,0-0.32-0.34-0.56-0.02c-0.13,0.33-0.259,0.88-0.279,1.33
		c-0.47,0.65-1.139,0.51-0.45-0.02c0.359-0.43-0.09-0.56-0.29-1.01c-0.219-0.24,0.45-0.1,0.57-0.2c0.339-0.1,0.13-0.45,0.25-0.78
		c0.12-0.1,0.38-1.09,0.28-1.32c-0.11-0.12-0.439-0.13-0.56-0.13c-0.219-0.12,0.13-0.45,0.25-0.55c0.13-0.33-0.209-0.23-0.319-0.46
		c0.13-0.44,1.208,0.6,1.129-0.29c-0.21-0.23-0.419-0.46-0.64-0.58c0-0.11-0.1-0.34-0.1-0.34c0.22,0.12,0.65,0.47,0.78,0.14
		c0-0.11,0-0.11,0.109-0.11c0.11,0.01,0.649,0.59,0.66,0.48c0.339-0.32,0.359-0.66,0.489-1.1c0.229-0.32,0.11,0.12,0.209,0.34
		c0.11,0.12,0.769,0.37,0.2,0.57c-0.789,0.19,0.5,1.58,0.749,0.92c0.12-0.33,0.22,0.12,0.1,0.23c-0.359,0.54,0.199,0.67,0.439,0.24
		c0-0.11,0.45-0.21,0.33,0.01c-0.01,0.22-0.47,0.65-0.03,0.78c0.34,0.01,0.47-0.43,0.789-0.19c0.33,0.23,0.54,0.69,0.19,0.9
		c-0.569,0.31,0.209,0.34,0.43,0.57c-0.03,0.56-0.33-0.12-0.459,0.1c-0.11,0.1,0.1,0.44,0.09,0.56
		C71.613,23.669,71.323,22.439,70.984,22.529z M71.502,23.939c0.01-0.22,0.56,0.13,0.67,0.14
		C71.942,24.18,71.383,24.16,71.502,23.939z M71.962,29.31c-0.09-0.45-0.29-1.13,0.37-0.77
		C72.322,28.759,72.042,30.089,71.962,29.31z M72.112,25.64c0.12-0.22,0.33,0.01,0.56,0.02C72.542,25.99,72.102,25.859,72.112,25.64
		z M72.811,27.56c-0.109,0.1-0.209-0.12-0.099-0.23c0.119-0.22,0.469-0.43,0.689-0.42C73.281,27.24,73.151,27.459,72.811,27.56z
		 M73.291,29.689c0.05-1.33-0.07-1.11,0.58-0.64C73.75,29.27,73.71,30.379,73.291,29.689z M73.431,22.85l-0.779-0.03
		c0-0.11,0.239-0.32,0.25-0.66c-0.11,0-0.439-0.24-0.43-0.35c0.01-0.33,0.439,0.02,0.549,0.14c0.41,0.9,0.879,0.37,1.299,1.16
		C74.42,23.45,73.431,22.97,73.431,22.85z M75.128,28.54c-0.02,0.45,0.449-0.09,0.54,0.36c-0.01,0.22-0.22-0.01-0.439-0.02
		l-0.679-0.03C73.88,28.939,74.919,28.089,75.128,28.54z M75.078,29.759c0.02-0.66,0.56,0.03,0.769,0.26
		C75.837,30.35,75.058,30.1,75.078,29.759z M75.358,28.22c-0.21-0.12-0.55-0.03-0.66-0.14l-0.309-0.68
		c-0.2-0.57,0.979,0.59,1.208,0.6c0.34-0.1,0.36-0.76,0.799-0.41c0.1,0.23,0.319,0.23,0.54,0.35
		C76.816,28.27,75.578,28.45,75.358,28.22z M76.966,29.95c0.14-0.55,0.03-0.67-0.06-1.12c-0.1-0.33,0.24-0.43,0.339-0.09
		c0.2,0.45-0.159,1.22,0.28,1.46C77.605,30.87,77.066,30.29,76.966,29.95z M77.286,27.62c-0.209-0.23,0.13-0.44,0.35-0.32
		C77.635,27.419,77.386,27.959,77.286,27.62z M77.745,30.209c0.02-0.45,0.33,0.12,0.44,0.24
		C78.175,30.56,77.735,30.319,77.745,30.209z M77.835,25.08c-0.11,0.11-0.13,0.44-0.24,0.44c-0.979-0.71-0.409-0.8,0.6-0.87
		C78.175,24.99,77.956,24.87,77.835,25.08z M78.484,22.5c0.11,0,0.21,0.34,0.32,0.35c-0.23,0.1-0.33-0.02-0.549-0.14
		C78.135,22.709,78.375,22.49,78.484,22.5z M78.574,25.729c-0.12,0.33-0.219-0.12-0.209-0.34c0.25-0.66,0.149-0.77,0.689-0.42
		c0,0.11,0,0.11-0.229,0.22C78.594,25.29,78.705,25.399,78.574,25.729z M79.294,27.93c-0.669-0.14,1.059-1.3,0.04-1
		c-1.019,0.29,0.13-0.56,0.569-0.43c0.12,0.01,0.08,0.9,0.18,1.24C80.183,27.959,79.403,27.93,79.294,27.93z M80.822,28.77
		c-0.219-0.01-0.31-0.57-0.31-0.57c0.22,0.01,0.33,0.12,0.549,0.13L80.822,28.77z M80.782,22.6l-0.07-0.01
		c-0.149-0.03-0.27-0.12-0.209-0.23l0.229-0.22c-0.01,0.34,0.11,0.23,0.33,0.35C81.012,22.58,80.892,22.609,80.782,22.6z
		 M81.521,24.959c-0.229-0.01-0.089-0.67,0.23-0.32C81.751,24.75,81.631,24.959,81.521,24.959z M81.661,24.189
		c-0.01,0.22-0.34-0.02-0.33-0.13c-0.66-0.36,0.35-0.43,0.579-0.42C81.901,23.859,81.561,23.85,81.661,24.189z M81.761,21.74
		c0.599-0.98,0.909-0.41,0.989,0.48C82.62,22.549,81.861,22.08,81.761,21.74z M82.54,25.049c0.01-0.22,0.239-0.33,0.339-0.1
		C82.879,25.06,82.65,25.16,82.54,25.049z M82.73,25.45l-0.01,0.03c-0.06-0.06-0.15-0.12-0.24-0.19
		C82.56,25.339,82.65,25.399,82.73,25.45z M82.7,23.339c-0.01,0.19-0.18,0.29-0.3,0.31l-0.05,0.01c-0.05-0.02-0.08-0.05-0.09-0.07
		C82.19,23.47,82.61,23.33,82.7,23.339z M82.55,27.5c0.14-0.55-0.639-0.69,0.04-0.89c0.11,0,0.2,0.45,0.31,0.57
		C82.89,27.399,82.65,27.839,82.55,27.5z M82.5,20.1c-0.11-0.12,0.339-0.1,0.45-0.1C82.939,20.22,82.6,20.319,82.5,20.1z
		 M84.178,24.83l-0.08,0.01c-0.29-0.11-0.22-0.55,0.09-0.42c0.04,0.02,0.09,0.05,0.14,0.09C84.328,24.609,84.318,24.79,84.178,24.83
		z M84.218,22.33c-0.11-0.12,0.339-0.21,0.449-0.21C84.667,22.35,84.438,22.45,84.218,22.33z M84.698,24.35
		c-0.43-0.57,0.459-0.31,0.689-0.42C85.367,24.379,85.127,24.709,84.698,24.35z M85.237,21.54c-0.11,0,0.12-0.22-0.21-0.34
		c-0.219-0.01-0.229,0.1-0.459,0.32c-0.239,0.32-0.349,0.2-0.439-0.24c-0.1-0.23,0.24-0.33,0.25-0.66V20.6l-0.01-0.05
		c-0.03-0.36,0.479-0.13,0.799-0.01c0.229-0.11,0.01-0.23,0.01-0.34c0.349-0.21,0.549,0.36,0.54,0.47c-0.12,0.33-0.34,0.1-0.13,0.44
		C85.577,21.33,85.566,21.779,85.237,21.54z M85.457,24.83c0.12-0.22,0.669,0.03,0.779,0.25C85.986,25.52,85.447,25.16,85.457,24.83
		z"/>
	<path d="M92.715,24.752c-0.091-0.111-0.173-0.249-0.207-0.363c0.031-0.132,0.047-0.237,0.055-0.33
		c-0.121-0.497-0.26-0.977-0.415-1.437c-0.42,0.159-1.098,0.202-1.248,0.037c-0.22-0.12-0.56-0.02-0.67-0.14l-0.309-0.68
		c-0.2-0.56,0.989,0.6,1.208,0.61c0.339-0.1,0.369-0.77,0.799-0.42c0.005,0.011,0.014,0.017,0.02,0.027
		c-0.672-1.805-1.526-3.255-2.137-4.117c-4.594-6.15-10.698-9.47-18.448-9.53c-5.394-0.04-10.788,0.03-16.182,0.11
		c-0.415,0.005-0.828,0-1.239-0.011c0.022,0.038,0.044,0.071,0.071,0.141c0,0.11-0.04,1-0.25,0.77
		c-0.069-0.076-0.071-0.676,0.012-0.913c-1.814-0.057-3.594-0.28-5.345-0.675c-0.086,0.35-0.573,0.348-0.879,0.338
		c0.008-0.172,0.39-0.322,0.674-0.382c-1.347-0.315-2.676-0.735-3.99-1.268c-3.406-1.38-6.862-2.62-10.288-3.96
		c-5.364-2.1-10.848-3.26-16.601-2.1c-5.11,1.032-9.737,3.738-12.927,7.596C4.443,8.108,4.463,8.164,4.46,8.229
		C4.455,8.335,4.38,8.285,4.304,8.191C1.95,11.091,0.408,14.63,0.072,18.596l0.103-0.136c0.109,0,0.33,0.12,0.33,0.01
		c0.229,0.01,0.349-0.21,0.459-0.2l-0.01,0.33c-0.01,0.22-0.01,0.22,0.09,0.34c-0.01,0.22,0.089,0.56-0.13,0.67
		c-0.12,0.1-0.22-0.24-0.1-0.34c-0.22-0.12,0.02-0.56-0.44-0.36c-0.11,0.11-0.11,0.11-0.12,0.22c0,0.082-0.125,0.221-0.235,0.241
		c-0.059,1.337,0.016,2.718,0.245,4.139c0.94,5.862,3.076,9.322,6.803,12.808c0.058-0.001,0.118-0.011,0.18-0.038
		c0.088,0,0.23,0.222,0.166,0.363c0.892,0.813,1.869,1.632,2.94,2.487c8.88,7.08,19.388,8.56,27.758,8.87
		c12.276-0.07,21.885-1.67,31.364-3.87c5.224-1.21,9.968-1.66,14.913-3.69C92.602,35.653,93.656,29.532,92.715,24.752z
		 M91.21,20.439c-0.12,0.11-0.57,0.31-0.56-0.02C90.661,20.089,91.1,20.33,91.21,20.439z M91.2,20.779
		c-0.02,0.33-0.14,0.55-0.259,0.88c-0.13,0.33-0.32-0.35-0.32-0.46l0.01-0.22l-0.22-0.12l-0.11-0.12L91.2,20.779z M65.589,10.33
		c-0.01,0.23-0.239,0.33-0.349,0.21C65.03,10.31,65.49,9.99,65.589,10.33z M65.08,9.089c-0.01,0.11-0.12,0.22-0.24,0.32
		c0.1,0.23-0.469,0.65-0.58,0.54C64.161,9.72,64.97,9.08,65.08,9.089z M62.463,9.99c0.12,0,0.12,0,0.22,0.12v0.11
		c-0.11-0.01-0.22-0.01-0.33-0.13L62.463,9.99z M58.647,10.279c0.12-0.11,0.12-0.22,0.12-0.22c0.12-0.11,0.12,0.01,0.11,0.12
		c0.1,0.22,0.1,0.34-0.02,0.55l-0.34-0.01C58.527,10.5,58.647,10.39,58.647,10.279z M57.239,9.109l-0.01,0.33
		c-0.229,0.11-0.21-0.23-0.21-0.34C57.129,9.1,57.249,9,57.239,9.109z M52.625,9.93c0.11,0,0.33,0.01,0.33,0.12l-0.01,0.23
		l-0.33-0.02L52.625,9.93z M49.269,9.79c0.109,0.12,0.22,0.12,0.33,0.13c0.219,0.12,0.219,0.23,0.209,0.45
		c-0.45-0.01-0.109-0.11-0.33-0.23c-0.1-0.12-0.439-0.02-0.439-0.13C48.819,9.89,49.048,9.79,49.269,9.79z M46.951,9.029
		c0.11,0.01,0.219,0.12,0.329,0.24l-0.01,0.22c-0.11,0-0.22-0.12-0.33-0.23L46.951,9.029z M42.885,7.2l-0.02,0.45l-0.219-0.01
		C42.546,7.41,42.766,7.31,42.885,7.2z M8.825,5.62c0.1,0.12,0.21,0.23,0.21,0.34c0.1,0.12,0.1,0.23,0.09,0.45L8.805,6.06
		L8.825,5.62z M7.866,7.029l0.34,0.01l-0.01,0.23L7.856,7.25L7.866,7.029z M1.203,15.149c0.11,0,0.01-0.45,0.13-0.44
		c0.1,0.11-0.13,0.44,0.09,0.45c-0.12,0.1-0.13,0.33-0.24,0.32C1.193,15.37,1.313,15.149,1.203,15.149z M0.833,16.029
		c0.34-0.1,0.34-0.1,0.45-0.1c0.1,0.12-0.239,0.22-0.239,0.22C0.484,16.35,0.724,15.91,0.833,16.029z M0.974,18.04
		c0,0-0.33-0.23,0.01-0.22c0,0,0.439,0.13,0.319,0.24L0.974,18.04z M0.833,21.39c-0.329-0.01-0.199-0.46-0.09-0.45
		C0.854,20.939,0.954,21.279,0.833,21.39z M1.433,20.41c-0.11-0.01-0.439-0.13-0.439-0.13c-0.23,0.1-0.33-0.13-0.22-0.12
		c0.01-0.11,0.23-0.1,0.339-0.1C1.113,20.06,1.553,20.299,1.433,20.41z M1.513,15.83c0.129-0.55,0.449-0.09,0.449-0.09
		c-0.01,0.11,0.22,0.12,0.21,0.23c0.1,0.34-0.11-0.01-0.229,0.1c-0.11,0.11-0.22-0.12-0.33-0.12
		C1.623,15.83,1.513,15.83,1.513,15.83z M6.947,35.379l-0.12-0.01c0.02-0.33,0.24-0.32,0.36-0.54c0,0.11,0.22,0.12,0.33,0.23
		C7.506,35.29,6.947,35.379,6.947,35.379z M7.916,36.31c-0.23-0.01-0.33-0.35-0.1-0.34C7.926,35.97,8.026,36.2,7.916,36.31z
		 M87.294,34.35c-2.417,2.25-5.264,3.8-8.45,4.61c-11.726,3-23.543,5.49-36.808,6.19c-8.45-0.188-17.772-0.882-26.21-5.723
		l-0.1,0.083c-0.11,0-0.11,0-0.22-0.12c0,0,0.101-0.04,0.201-0.034c-0.458-0.266-0.917-0.535-1.37-0.826
		c-4.095-2.62-7.571-5.78-9.878-10.12c-1.338-2.514-2.04-5.087-2.186-7.589c-0.195,0.032-0.412,0.049-0.412,0.049l-0.11-0.11
		c0.006-0.148,0.286-0.143,0.515-0.117c-0.01-0.209-0.021-0.418-0.022-0.626c-0.027-0.041-0.025-0.072-0.003-0.099
		c-0.001-0.412,0.021-0.819,0.051-1.226l-0.23,0.067c-0.559-0.03-0.22-0.24-0.21-0.46c0.215-0.324,0.382-0.488,0.533-0.617
		c0.102-0.739,0.269-1.461,0.474-2.171C2.724,15.48,2.706,15.003,2.881,15.1c0.025,0.028,0.05,0.062,0.072,0.097
		c0.979-3.138,2.96-5.928,5.833-8.037c0.035-0.138,0.092-0.252,0.099-0.42c0.014-0.357,0.169-0.125,0.251,0.165
		c1.156-0.807,2.432-1.517,3.854-2.085c6.985-2.79,14.057-2.467,21.036,0.028V4.839c0.068,0.006,0.13,0.041,0.191,0.075
		c0.063,0.022,0.126,0.042,0.188,0.065c4.065,1.5,8.031,3.3,12.146,4.63c3.975,1.284,8.039,1.47,12.128,1.403
		c0.261-0.105,0.559-0.217,0.617-0.153c0.028,0.031,0.024,0.083,0.004,0.142c1.309-0.029,2.619-0.079,3.93-0.124
		c-0.005-0.025-0.01-0.05-0.008-0.078c0.109-0.11,0.459-0.32,0.449-0.21c-0.003,0.118-0.023,0.204-0.048,0.275
		c0.639-0.021,1.278-0.041,1.917-0.055c3.496-0.07,7.072,0,10.488,0.66c4.663,0.912,8.278,3.385,11.045,6.889
		c0.076-0.129,0.53,0.161,0.632,0.161c-0.114,0.052-0.317,0.07-0.472,0.047c0.779,1.01,1.494,2.099,2.14,3.263
		c0.229,0.413,0.42,0.828,0.593,1.242c0.184-0.178,0.575-0.352,0.695-0.092c-0.02,0.45,0.45-0.09,0.55,0.36
		c-0.01,0.22-0.23-0.01-0.45-0.02l-0.669-0.02c-0.016,0.002-0.019-0.002-0.032-0.001C91.624,27.278,90.639,31.242,87.294,34.35z
		 M90.611,24.209c0.03-0.67,0.56,0.02,0.77,0.25C91.37,24.799,90.601,24.54,90.611,24.209z"/>
</g>
</svg>
