<?xml version="1.0" encoding="utf-8"?>
<!-- Generator: Adobe Illustrator 16.0.0, SVG Export Plug-In . SVG Version: 6.00 Build 0)  -->
<!DOCTYPE svg PUBLIC "-//W3C//DTD SVG 1.0//EN" "http://www.w3.org/TR/2001/REC-SVG-20010904/DTD/svg10.dtd">
<svg version="1.0" id="Layer_1" xmlns="http://www.w3.org/2000/svg" xmlns:xlink="http://www.w3.org/1999/xlink" x="0px" y="0px"
	 width="100px" height="48px" viewBox="0 0 100 48" enable-background="new 0 0 100 48" xml:space="preserve">
<path fill-rule="evenodd" clip-rule="evenodd" d="M58.062,23.33l0.27,0.25l0.34-0.16c0.01-0.1,0.05-0.3-0.07-0.22
	c-0.2-0.03-0.3-0.05-0.42,0.04L58.062,23.33z M57.521,22.82c0.32-0.05,0.48-0.44,0.06-0.4C57.251,22.57,57.082,22.96,57.521,22.82z
	 M56.821,21.99c0.04-0.2-0.05-0.32-0.13-0.44l-0.21-0.03c-0.01,0.1-0.04,0.3,0.06,0.32C56.622,21.96,56.722,21.97,56.821,21.99z
	 M55.031,22.23c0.23-0.18-0.04-0.43-0.26-0.36C54.542,22.05,54.801,22.4,55.031,22.23z M51.441,18.75c0.01-0.1,0.14-0.29-0.06-0.32
	l-0.1-0.01c-0.12,0.08-0.05,0.3,0.04,0.42L51.441,18.75z M64.091,25.1c-0.2-0.03-0.3-0.04-0.33,0.16
	C63.861,25.28,63.972,25.19,64.091,25.1z M24.231,26.71c0,0,0.62,0,0.43-0.14C24.582,26.46,24.261,26.51,24.231,26.71z
	 M23.671,28.29c0,0,0.66,0.41,0.42-0.04C24.011,28.13,23.622,27.97,23.671,28.29z M23.241,27.08c0.2,0.03,0.29,0.15,0.49,0.18
	c0,0,0.65-0.21,0.25-0.27c-0.2-0.04-0.08-0.12-0.25-0.36C23.452,26.38,23.261,26.98,23.241,27.08z M38.912,23.26
	c0,0,0.62-0.01,0.44-0.14C39.261,23,38.941,23.06,38.912,23.26z M38.361,24.83c0,0,0.65,0.42,0.42-0.03
	C38.691,24.68,38.301,24.51,38.361,24.83z M37.921,23.62c0.21,0.04,0.29,0.15,0.49,0.18c0,0,0.66-0.21,0.25-0.27
	c-0.2-0.03-0.08-0.12-0.25-0.35C38.142,22.93,37.941,23.52,37.921,23.62z M85.511,23.94c-1.33,0.02-2.46-1.09-2.49-2.46
	c-0.02-1.36,1.06-2.51,2.39-2.55c1.37-0.04,2.6,1.15,2.59,2.52C87.991,22.77,86.841,23.92,85.511,23.94z M59.162,38.88
	c0.88,0.04,1.75,0.07,2.61,0.07c-0.1-0.08-0.24-0.22-0.16-0.28c0.1,0.02,0.29,0.15,0.29,0.15c0.1,0.01,0.23-0.17,0.21-0.07
	c0.09,0.01,0.08,0.15,0.08,0.2c0.5,0,1.01-0.01,1.51-0.02l-0.06-0.04c0.12-0.09,0.31,0.04,0.34-0.16c0.1,0.02,0.15-0.29,0.16-0.39
	c0.1,0.02,0.14,0.44,0.24,0.45l-0.03,0.11c4.54-0.18,8.93-0.89,13.18-2.07c-0.04-0.12-0.04-0.21,0.08-0.25
	c0.06,0.01,0.16,0.09,0.25,0.16c0.67-0.2,1.35-0.4,2.02-0.62c0.02-0.04,0.05-0.07,0.1-0.1c0.03-0.21,0.4,0.06,0.36-0.36
	c0.03-0.21-0.29-0.15-0.14-0.44c0.39,0.16-0.31-0.68,0.31,0.04c0.08,0.12,0.06,0.22,0.17,0.24l0.07,0.22c0.01,0.04,0,0.08-0.03,0.12
	l0.66-0.23c-0.16-0.13-0.5-0.11-0.44-0.49c0.19,0.14,0.57-0.32,0.69-0.41c0.27-0.13,0.15,0.51,0.15,0.76l1.04-0.38
	c-0.2,0-0.38,0.02-0.45,0.15l-0.04-1.03c0.02,0.09,0.28,0.13,0.3,0.03c0.01-0.1-0.26-0.35-0.16-0.33c0.05-0.31,0.45-0.25,0.42-0.04
	c0.09,0.12-0.03,0.2,0.07,0.22c-0.05,0.3,0.36,0.37,0.46,0.38c0.27,0.25-0.13,0.19-0.17,0.39c0,0.02,0.01,0.04,0.02,0.05l1.07-0.43
	c-0.07-0.07-0.12-0.15-0.07-0.19c0.06,0.01,0.18,0.07,0.27,0.11c4.14-1.72,8.15-3.89,12.04-6.46c0.99-0.66,1.87-1.51,2.69-2.38
	c0.97-1.03,0.98-2.24-0.02-3.24c-1.04-1.04-2.15-2.07-3.38-2.85c-11.81-7.51-24.56-11.51-38.67-10.39
	c-0.86,0.07-1.84-0.18-2.61-0.58c-2.87-1.5-5.67-3.13-8.5-4.7l-4.53-2.52c0,0.15-0.35,0.21-0.42,0.12c0.02-0.13,0.12-0.21,0.21-0.24
	l-0.5-0.28c-0.15,0.06-0.26-0.02-0.33-0.18l-0.51-0.29c-0.15,0.41-0.32,0.85-0.52,0.94c-0.28-0.17,0.03-0.81,0.04-1.2L39.261,0
	l-0.22,0.06V0.4c0.02,0.06,0.03,0.15,0.04,0.26c0.03,0.07,0.01,0.12-0.03,0.17c0.11,3.94,1.12,7.52,2.26,11.13
	c-1.8,0.53-3.47,1.06-5.16,1.5c-5.54,1.42-11.09,2.86-16.65,4.2c-0.36,0.09-0.72,0.15-1.08,0.18c0.02,0.04,0.03,0.08,0.02,0.13
	c-0.07,0.46-0.32,0.17-0.52-0.1c-0.42,0.02-0.83-0.01-1.24-0.08c-0.09,0.34-0.03,0.48,0.01,0.84c0.05,0.32-0.27,0.37-0.32,0.05
	c-0.09-0.27,0.04-0.64,0.06-0.93c-0.91-0.19-1.8-0.58-2.68-1.18c-4.06-2.75-8.28-5.26-12.44-7.86C0.941,8.47,0.542,8.27,0.062,8
	c-0.03,0.32-0.07,0.5-0.06,0.67c0.02,0.51,0.04,1.02,0.09,1.53c0.41,4.12,1.48,8.08,3.09,11.87c0.07-0.01,0.2,0.12,0.35,0.15
	l0.61,0.09c0.62-0.01-0.41,0.66-0.55,0.23c0.04-0.26-0.14-0.18-0.29-0.19l0.19,0.43l0.05,0.11c0.16,0.04,0.33,0.03,0.39,0.12
	l0.21,0.65c0.06,0.28-0.16,0.1-0.42-0.14c0.1,0.54,0.01,1.04-0.24,1.61c-0.63,1.45-1.19,2.93-1.67,4.43
	c-1.06,3.31-1.77,6.68-1.81,10.37c0.56-0.31,0.95-0.52,1.33-0.76c4.12-2.57,8.31-5.04,12.32-7.79c1.95-1.34,3.89-1.64,6.01-1.13
	c5.25,1.26,10.48,2.61,15.71,3.96c1.99,0.52,3.96,1.15,5.94,1.73c-1.23,3.99-2.38,7.81-2.21,12.06c3.79-2.12,7.45-4.1,11.03-6.15
	c0.04-0.07,0.1-0.14,0.16-0.18l0.12,0.02l1.99-1.15l0.15-0.09c-0.27-0.52-0.45-1.39-0.27-1.58l0.43-0.14
	c0.06-0.41-0.2-0.03-0.27-0.25c-0.1-0.02,0.16-0.39,0.26-0.38c0.22-0.07,0.26,0.35,0.24,0.46c-0.91,1.29-0.22,1.24-0.02,1.69
	c0.19-0.11,0.39-0.2,0.58-0.3c0.01-0.09,0.02-0.19-0.01-0.27c0,0-0.27-0.25-0.14-0.44c0.1,0.02,0.21,0.04,0.22-0.07
	c0.02-0.1-0.08-0.11-0.07-0.21l-0.23,0.17c0,0-0.3-0.05-0.29-0.15c-0.08-0.12,0.48-0.45,0.4-0.56c-0.26-0.36-0.39-0.17-0.21-0.66
	c-0.1-0.02-0.15-0.34-0.15-0.34l0.1,0.02c0.18,0.13,0.39,0.17,0.62-0.01c0.22-0.07,0.26-0.37,0.4-0.56c0.3,0.05-0.05,0.31,0.02,0.53
	c0.1,0.01,0.49,0.18,0.27,0.25c-0.02,0.1-0.3-0.05-0.42,0.03c-0.13,0.19-0.06,0.41-0.09,0.61c-0.15,0.29-0.31-0.04-0.42,0.04
	c-0.24,0.17,0.17,0.24,0.28,0.15c0.07,0.22-0.04,0.3-0.06,0.41c-0.05,0.3,0.44,0.48,0.51,0.7v0.05c0.19-0.08,0.37-0.14,0.56-0.21
	c-0.03-0.04-0.04-0.07-0.01-0.07c0.07-0.04,0.15-0.02,0.23,0C56.292,38.96,57.642,38.81,59.162,38.88z M79.011,33.57l0.09,0.12
	c0.22,0.55-0.34,0.15-0.35,0.26c-0.27-0.25,0.08-0.51-0.01-0.63C78.841,33.34,79.031,33.47,79.011,33.57z M77.722,33.89
	c-0.1-0.02-0.2-0.03-0.21,0.07c-0.07-0.01-0.16,0.07-0.16,0.07l0.05-0.09c0.02-0.1,0.32-0.68,0.22-0.69c0.01-0.1,0.33-0.16,0.3,0.05
	c0.1,0.01,0.08,0.11,0.07,0.21C77.961,33.72,77.941,33.82,77.722,33.89z M84.961,33.88c-0.1-0.02-0.16-0.34-0.04-0.42
	C85.222,33.5,85.062,33.9,84.961,33.88z M74.991,32.84c-0.05-0.33,0.64-0.11,0.52-0.03c0,0-0.48,0.45-0.46,0.35
	C74.961,33.04,74.981,32.94,74.991,32.84z M75.642,33.98c-0.07-0.22,0.05-0.31,0.15-0.29C75.781,33.79,75.731,34.1,75.642,33.98z
	 M73.582,34.59c0.09,0.12,0.46,0.39,0.26,0.36C73.521,35,73.481,34.58,73.582,34.59z M73.542,35.53c0.1,0.01,0.2,0.03,0.32-0.06
	c-0.01,0.1-0.26,0.38-0.18,0.49c0,0,0.05,0.33-0.05,0.31C73.421,36.34,73.441,35.51,73.542,35.53z M77.042,34.93
	c0.39,0.16,0.24,0.45-0.04,0.3C76.441,34.83,76.861,34.8,77.042,34.93z M76.921,36.37c-0.18-0.13-0.02-0.52,0.05-0.31
	C76.972,36.06,77.021,36.39,76.921,36.37z M76.941,32.93c-0.11,0.09-0.3-0.04-0.39-0.16C76.591,32.56,77.062,32.85,76.941,32.93z
	 M67.312,31.11c-0.02,0.1-0.02,0.1,0.07,0.22c-0.02,0.1-0.24,0.17-0.25,0.27c-0.1-0.02-0.12,0.09-0.12,0.09
	c-0.2-0.04-0.3-0.05-0.27-0.25c0.02-0.11,0.38-0.47,0.37-0.36L67.312,31.11z M69.751,32.01c-0.02,0.1-0.05-0.32,0.23-0.17
	c-0.01,0.1,0.07,0.22,0.06,0.32C69.952,32.04,69.751,32.01,69.751,32.01z M67.901,31.3c0.21-0.07,0.03,0.43-0.18,0.5
	C67.622,31.78,67.801,31.29,67.901,31.3z M71.771,32.96c0,0,0.02-0.11,0.12-0.09c0.08,0.12,0.05,0.32-0.05,0.3
	C71.861,33.07,71.861,33.07,71.771,32.96z M72.011,34.76c0.23-0.17,0.37,0.27,0.15,0.34C72.062,35.09,71.892,34.85,72.011,34.76z
	 M83.301,33.93c-0.19-0.13,0.63-0.11,0.63-0.11l0.09,0.12C83.991,34.14,83.401,33.95,83.301,33.93z M72.662,34.55l0.19,0.14
	c-0.02,0.1,0.02,0.52-0.07,0.4c-0.1-0.01-0.4-0.06-0.17-0.23c0.14-0.19-0.25-0.35-0.32-0.57c-0.06-0.09-0.08-0.11-0.07-0.12
	c0-0.01,0.08,0.04,0.1-0.09C72.542,34.01,72.662,34.55,72.662,34.55z M79.481,15.52c0,0,0.52-0.02,0.02,0.53
	c-0.11,0.08-0.2-0.03-0.18-0.14C79.352,15.71,79.352,15.71,79.481,15.52z M79.881,16.94c0,0-0.01,0.1,0.04,0.42
	c0,0-0.15,0.29-0.23,0.17C79.602,17.41,79.801,16.82,79.881,16.94z M73.321,15.28c0.1,0.02,0.1,0.02,0.18,0.14
	c0,0-0.21,0.07-0.3-0.05L73.321,15.28z M80.071,19.05c0.2,0.03,0.26,0.35,0.06,0.32C80.021,19.35,79.952,19.13,80.071,19.05z
	 M72.841,18.33c0.32-0.06-0.38,0.46-0.46,0.34C72.381,18.67,72.741,18.31,72.841,18.33z M84.631,16.96l0.24-0.17
	c0.08,0.11,0.07,0.21-0.07,0.4C84.792,17.29,84.602,17.16,84.631,16.96z M80.301,20.23c0.03-0.21,0.55-0.23,0.55-0.23l0.1,0.02
	c-0.04,0.3-0.24,0.27-0.38,0.46C80.591,20.38,80.392,20.34,80.301,20.23z M71.011,14.82c0.1,0.01,0.1,0.01,0.06,0.32
	c0,0-0.24,0.17-0.34,0.15C70.751,15.19,71.031,14.72,71.011,14.82z M82.781,17.6c0.23-0.17,0.07,0.22,0.35,0.37
	c-0.1-0.02-0.21,0.69-0.43,0.76c-0.33,0.16,0.13-0.81-0.07-0.84C82.751,17.8,82.662,17.69,82.781,17.6z M81.142,18.8
	c0.1,0.02,0.29,0.15,0.19,0.13c-0.45,0.24,0.29,0.15-0.15,0.29c-0.1-0.01-0.29-0.15-0.5-0.08c-0.1-0.01-0.26-0.35-0.04-0.42
	L81.142,18.8z M82.292,19.4c0.02-0.11,0.27-0.38,0.25-0.28c-0.02,0.1-0.03,0.21-0.16,0.39L82.292,19.4z M74.472,17.86
	c0,0,0.43-0.14,0.42-0.04c-0.02,0.1-0.13,0.18-0.35,0.25C74.622,18.19,74.352,17.94,74.472,17.86z M48.001,11.93
	c0.1,0.02,0.12-0.08,0.3,0.05c0,0-0.06,0.41-0.16,0.39C47.821,12.42,48.001,11.93,48.001,11.93z M62.042,16.01
	c0.23-0.17,0.3-0.57,0.61-0.63c-0.09,0.05-0.11,1.32-0.45,0.96C62.102,16.33,62.142,16.02,62.042,16.01z M59.711,15.75
	c0,0-0.07-0.22-0.17-0.24l0.4,0.06C59.941,15.57,59.912,15.78,59.711,15.75z M69.881,16.1c0,0,0.34-0.16,0.41,0.06
	c0.08,0.12,0,0.62,0,0.62c-0.08-0.11-0.29,0.58-0.38,0.46c0,0,0.08-0.5-0.02-0.52C69.921,16.52,69.952,16.31,69.881,16.1z
	 M72.662,16.84c0.34-0.15,0.13,0.54-0.19,0.6c-0.1-0.02,0.14-0.29,0.14-0.29L72.662,16.84z M74.651,17.36c0,0-0.02,0.11-0.12,0.09
	c0,0-0.07-0.22-0.05-0.32L74.651,17.36z M66.472,17.43c0,0,0.86-0.18,0.61,0.1c-0.12,0.08-0.72,0.61-0.43,0.76
	c-0.12,0.09-0.23,0.17-0.44,0.14C66.361,18.14,66.432,17.74,66.472,17.43z M67.872,17.75c0.12-0.08,0.05,0.32-0.05,0.31
	C67.702,18.14,67.771,17.74,67.872,17.75z M63.571,12.82c0.24-0.17,0.27,0.25,0.26,0.35C63.711,13.26,63.461,12.9,63.571,12.82z
	 M68.682,17.88c0.1,0.02,0.08,0.12,0.07,0.22c-0.22,0.07-0.08,0.51-0.49,0.44l-0.2-0.03c-0.2-0.03,0.03-0.2,0.03-0.2
	C68.191,18.32,68.562,17.97,68.682,17.88z M65.051,12.63c0.11-0.08,0.07,0.22,0.07,0.22c-0.08,0.11-0.18,0.15-0.23,0.16
	C64.901,12.91,64.941,12.72,65.051,12.63z M65.622,15.63c0.38,0.17,0.17,0.86-0.01,0.73c-0.29,0.48-0.43-0.59-0.41-0.69
	c0.04-0.3,0.28,0.15,0.28,0.15S65.511,15.62,65.622,15.63z M58.452,28.17c0.01-0.1-0.64-1.25-0.05-1.05c0.07,0.22,0.33,1.2,0.3,1.4
	l-0.01,0.1C58.452,28.79,58.412,28.37,58.452,28.17z M60.932,24.19l0.2,0.03c0.05,0.32,0,0.63-0.04,0.93l-0.51-0.08
	c-0.08-0.11,0.06-0.4,0.08-0.51c0.03-0.2-0.14-0.43-0.11-0.64c-0.07-0.21-0.08-1.46-0.03-1.77c0.05-0.3,0.37,0.27,0.36,0.37
	c0.05,0.32-0.43,0.76-0.09,1.23C60.972,23.89,60.741,24.06,60.932,24.19z M58.682,24.67c-0.12,0.09-0.47,0.34-0.55,0.22
	c-0.1-0.01,0.15-0.28,0.16-0.38c-0.08-0.12-0.3-0.05-0.4-0.07c-0.17-0.23,0.23-0.79-0.24-0.45c-0.66-0.42-0.12-0.54-0.06-0.95
	c0.02-0.1-0.22,0.07-0.32,0.06c-0.13,0.18-0.16,0.39-0.4,0.56c0.04-0.2-0.05-0.32-0.22-0.56c-0.32-0.57-0.32,0.06-0.54,0.13
	c-0.11,0.08-0.15-0.34-0.13-0.44c0.1,0.02,0.31-0.05,0.41-0.04c0.02-0.1-0.06-0.22-0.17-0.23c-0.2-0.03-0.52,0.02-0.82-0.03
	c-0.01,0.1-0.12,0.09-0.13,0.19c-0.32,0.05-0.62,0.01-0.81-0.13c-0.22,0.07-0.35,0.26-0.48,0.45c-0.09-0.12,0.08-0.51-0.24-0.46
	c-0.1-0.01-0.13,0.19-0.22,0.07c-0.1-0.01-0.44-0.48-0.54-0.5l-0.05,0.31c-0.3-0.05-0.56-0.4-0.83-0.65
	c-0.08-0.12-0.4-0.07-0.49-0.18c0.02-0.11,0.24-0.18,0.25-0.28c0.12-0.08,0.04-0.2-0.03-0.42c0,0,0.58-0.43,0.18-0.49
	c0,0-0.25,0.27-0.34,0.16c0,0,0.13-0.19,0.15-0.29c-0.29-0.78-0.37,0.36-0.48,0.44c-0.44,0.14-0.36-0.37-0.23-0.55
	c0.2-0.6,0.63-1.36-0.34-1.1c-0.2-0.03-0.09-0.12-0.06-0.32c0.37-0.36,2-1.56,0.34-1.5c-0.12,0.08-0.71,0.61-0.87,0.27
	c-0.08-0.11,0.16-0.38,0.08-0.5c-0.09-0.12-0.3-0.05-0.27-0.25c0.12-0.09,0.13-0.19,0.15-0.29c0.2,0.03,0.32-0.06,0.43-0.14
	l-0.27-0.25l0.2,0.03l0.07-0.41c0.11-0.08,0.21-0.07,0.3,0.05c-0.02,0.1,0.05,0.32,0.02,0.53c-0.12,0.08-0.15,0.28-0.16,0.39
	c-0.12,0.08-0.24,0.17-0.25,0.27c0.17,0.23,0.47,0.28,0.69,0.21c0.13-0.19,0.14-0.91,0.36-0.98c0.1,0.01,0.24,0.45,0.24,0.45
	c0.2,0.03,0.67-0.31,0.87-0.28c0.02,0.52,0.45,0.39,0.81,0.75c0.27,0.25-0.13,0.81,0.38,0.89c0.2,0.04,0.25-0.27,0.43-0.14
	c0.09,0.12,0.06,0.32,0.24,0.46c0.09,0.11,0.19,0.13,0.26,0.35c-0.1-0.02-0.32,0.05-0.52,0.02c-0.03,0.2,0.15,0.34,0.24,0.46
	c0.1,0.01,0.59,0.19,0.7,0.11l-0.08-0.12c-0.21-0.66,0.06-0.41,0.13-0.81c0.04-0.31-0.23-0.56,0.21-0.7
	c0.32,0.57,0.26,0.98,0.78,1.58c-0.01,0.1,0.11,0.64,0,0.73c-0.12,0.08-0.31-0.05-0.42,0.04c-0.22,0.07,0.17,0.23,0.03,0.42
	c0,0-0.01,0.1-0.11,0.08l0.2,0.03c0.08,0.12,0.17,0.24,0.27,0.25c0.19,0.14,0.24,0.46,0.53,0.61c0.13-0.19,0.18-0.49,0.49-0.55
	l-0.06,0.41c0.29,0.15,0.68,0.31,1.1,0.27c0.06,0.22-0.35,0.26-0.2,0.6c0.34,0.47,0.52-0.03,0.84-0.08c0.1,0.02,0.04,0.42,0.12,0.54
	c0,0,0.47,0.28,0.46,0.38c0,0-0.3-0.04-0.32,0.06c-0.12,0.08-0.41,0.66-0.23,0.79c0.32-0.05,0.14,0.44,0.04,0.42
	c-0.12,0.09-0.27-0.25-0.39-0.16C58.142,24.17,58.602,24.55,58.682,24.67z M60.341,27.32c0.18,0.13,0.81-0.6,0.72,0.01
	c-0.2,0.03-0.55,0.04-0.81,0.16l0.01,0.06c0.41,0.68-0.27,1.1-0.1,1.33c0.24,0.45-0.27,0.38-0.31-0.05c0.04-0.22,0.08-0.5,0.08-0.75
	c-0.16-0.08-0.39-0.18-0.53-0.07c0.33,0.57-0.01,0.1-0.3-0.05c-0.09-0.12-0.13,0.18-0.23,0.17c0,0,0.04-0.31,0.14-0.29
	c0.15-0.29-0.03-0.42,0-0.62c0.01-0.11,0.38-0.46,0.48-0.45c0.1,0.02,0.19,0.13,0.29,0.15c0.1,0.02,0.23-0.17,0.23-0.17
	C60.432,26.71,60.251,27.2,60.341,27.32z M55.832,26.4c0.08,0.12,0.18,0.14,0.17,0.24c0.31,0.67-0.3,0.58-0.66,0.21
	c0.04-0.2,0.56-0.23,0.39-0.46c-0.07-0.22-0.32,0.05-0.28-0.25c0.12-0.09,0.34-0.16,0.42-0.04C55.972,26.12,55.841,26.3,55.832,26.4
	z M56.461,24.32c0.33-0.15,0.26,0.98,0.23,1.18c0,0-0.42,0.04-0.4-0.06l0.1,0.01c0.11-0.08,0.09-0.61,0.09-0.61
	c-0.17-0.23-0.52,0.03-0.65,0.21c0.09,0.75-0.57-0.29-0.26-0.35c0.22-0.07,0.31,0.05,0.52-0.02L56.461,24.32z M55.542,24.28
	l-0.03,0.2l-0.31-0.04l0.02-0.11C55.332,24.25,55.441,24.26,55.542,24.28z M57.551,27.3c0,0,0.1,0.01,0.08,0.12
	c0,0,0.09,0.11,0.07,0.21l-0.2-0.03L57.551,27.3z M66.142,28.54c-0.23,0.17-0.43-0.58-0.41-0.68c0.02-0.11,0.02-0.11,0.12-0.09
	c0.08,0.12-0.04,0.2,0.05,0.32C66.001,28.11,66.261,28.46,66.142,28.54z M68.852,27.1c0.36-0.99,0.9,0.14,1.14,0.59
	c-0.11,0.09-0.32,0.06-0.42,0.04c-0.1-0.01-0.59-0.19-0.47-0.28c0,0,0.39,0.16,0.32-0.05C69.352,27.18,69.031,27.23,68.852,27.1z
	 M69.861,29.86c0.02-0.11,0.22-0.07,0.22-0.07c-0.03,0.2-0.08,0.5-0.19,0.59C69.821,30.16,69.852,29.96,69.861,29.86z M61.932,25.7
	l0.05-0.3c0.1,0.01,0.18,0.13,0.29,0.14C62.251,25.65,62.031,25.72,61.932,25.7z M61.251,24.76l0.02-0.1l0.5,0.08
	c0,0-0.02,0.1-0.12,0.08L61.251,24.76z M65.062,28.17c0.09,0.11,0.3,0.04,0.41,0.06c-0.02,0.1-0.14,0.19-0.14,0.19
	c-0.01,0.1,0.06,0.32-0.04,0.3c-0.21-0.03-0.39-0.16-0.61-0.09c-0.1-0.02-0.12,0.08-0.03,0.2c0.01-0.1,0.12-0.09,0.22-0.07
	c-0.02,0.1-0.14,0.19-0.15,0.29c0.08,0.12,0.15,0.33,0.14,0.44c-0.1-0.02-0.22,0.07-0.22,0.07c-0.02-0.53-0.32-1.3-0.81-1.48
	c-0.1-0.02-0.31,0.05-0.41,0.04l-0.21-0.66c0.11-0.09,0.22-0.07,0.32-0.05c0.08,0.11,0.17,0.23,0.27,0.25
	c0.18,0.13,0.32-0.06,0.43-0.14c0.09,0.11,0.27,0.25,0.37,0.26c0.12-0.08,0.34-0.15,0.44-0.14
	C65.021,27.74,65.091,27.96,65.062,28.17z M63.611,25.55c-0.23,0.17-0.45,0.24-0.51-0.08c-0.2-0.66,0.32-0.06,0.42-0.04
	c0.12-0.09-0.12-0.54-0.22-0.55l-0.78-0.33c-0.44-0.49,0.15-0.29,0.45-0.24c0.09,0.11,1.29,0.4,1.22,0.81
	c0.1,0.02,0.19,0.13,0.17,0.23c0.07,0.22-0.35,0.26-0.08,0.51c0.35-0.26,0.1,0.02,0.27,0.25c0.19,0.13,0.24,0.46-0.04,0.31
	c-0.39-0.17-0.34-0.47-0.51-0.71C63.912,25.6,63.711,25.56,63.611,25.55z M68.171,28.76c0.1,0.01,0.85,0.55,0.93,0.66
	c-0.01,0.11-0.18,0.5-0.18,0.5c-0.03,0.2-0.16,0.39-0.18,0.49c-0.03,0.2-0.04,0.3,0.04,0.42c-0.17-0.24-0.44-0.49-0.64-0.52
	c-0.19-0.13-0.32,0.06-0.42,0.04c-0.1-0.02-0.3-0.05-0.39-0.16c0.15-0.29,0.1-0.61-0.31-0.68c-0.1-0.01-0.46,0.35-0.57,0.33
	c-0.08-0.12,0.07-0.41-0.44-0.48c-0.25-0.36-0.02-0.53,0.35-0.26l-0.04,0.3c0.1,0.02,0.31-0.05,0.33-0.15
	c0.1-0.61-0.41-0.69-0.39-0.79l0.23-0.17c0,0-0.07-0.22,0.05-0.31l0.4,0.07c0.09,0.11-0.05,0.3,0.04,0.42
	c0.15,0.33,0.48-0.45,0.65-0.21c0.09,0.12-0.06,0.4,0.02,0.52C67.841,28.91,67.972,28.73,68.171,28.76z M51.312,14.26l-0.03,0.2
	l-0.31-0.04l0.02-0.1C51.001,14.21,51.211,14.25,51.312,14.26z M49.591,18.67c0.5,0.08,0.15,0.34,0.09,0.74
	c0.1,0.02,0.59,0.2,0.59,0.2c-0.02,0.1-0.55,0.22-0.72-0.01C49.392,19.26,49.841,19.02,49.591,18.67z M53.341,16.45l-0.04,0.31
	l-0.31-0.05l0.08-0.51C53.171,16.22,53.361,16.35,53.341,16.45z M50.071,18.23c-0.1-0.02-0.3-0.05-0.42,0.03
	c0.02-0.1,0.12-0.08,0.13-0.18l0.44-0.14C50.202,18.04,50.091,18.12,50.071,18.23z M59.491,24.8c0.22-0.07,0.18-0.49,0.29-0.58
	c0.12-0.09,0.42-0.04,0.52-0.02c-0.03,0.2-0.13,0.18-0.26,0.37c-0.03,0.2,0.23,1.18-0.46,0.97c-0.16-0.34-0.19-0.13-0.49-0.18
	c0.02-0.1-0.15-0.34-0.04-0.42L59.491,24.8z M67.631,27.63c-0.31-0.04-0.96,0.17-0.91-0.14c0.75-0.19,0.34-0.88,0.79-1.12
	c0.37,0.26,0.68,0.31,0.5,0.8l-0.35,0.26c0,0,0.12,0.54,0.02,0.52C67.682,27.95,67.611,27.73,67.631,27.63z M55.461,23.44
	c0.05,0.32-0.13,0.18-0.26,0.37c-0.12,0.09,0.07,0.22-0.05,0.31c-0.03,0.2-0.72-0.01-0.82-0.03l0.09-0.61c0,0,0.15,0.34,0.14,0.44
	c0.29,0.15,0.3-0.58,0.41-0.66C55.171,23.29,55.381,23.32,55.461,23.44z M50.222,18.56c0.12-0.08,0.22-0.07,0.32-0.05l-0.08,0.5
	l-0.3-0.04c0.12-0.09,0.13-0.19,0.23-0.17C50.412,18.69,50.211,18.66,50.222,18.56z M59.341,21.76c-0.02,0.1-0.12,0.09-0.13,0.19
	l0.06-0.41c0.02-0.1,0.12-0.09,0.12-0.09L59.341,21.76z M59.341,23.73l0.05-0.3l0.2,0.03c0.09,0.12,0.17,0.24,0.04,0.42
	C59.511,23.97,59.432,23.85,59.341,23.73z M66.421,26.72c0.09,0.11-0.54,0.85-0.42,0.04C66.042,26.55,66.352,26.5,66.421,26.72z
	 M53.211,24.64c0.01-0.1,0.21-0.07,0.31-0.05l-0.06,0.4C53.361,24.98,53.191,24.74,53.211,24.64z M52.091,22.49
	c0.04-0.2,0.25-0.27,0.34-0.15C52.611,22.47,52.051,22.8,52.091,22.49z M54.171,23.75c-0.12,0.09-0.3-0.04-0.4-0.06
	c-0.02,0.1-0.23,0.8-0.24,0.17l0.07-0.4c0.2,0.03,0.32-0.06,0.42-0.04C54.122,23.43,54.171,23.75,54.171,23.75z M53.932,25.28
	c-0.22-0.56,0.44-0.14,0.63-0.01c-0.02,0.1-0.42,0.66-0.59,0.43c-0.08-0.12,0.34-0.16,0.34-0.16
	C54.452,25.25,54.042,25.29,53.932,25.28z M50.682,18.32c-0.74,0.09,0.04-0.3,0.18-0.49C51.292,17.69,50.682,18.32,50.682,18.32z
	 M29.231,23.13c0.25-0.27,0.09,0.75-0.21,0.7C29.051,23.63,29.102,23.32,29.231,23.13z M26.071,24.82c0.17,0.24-0.41,0.04-0.53,0.12
	c-0.32,0.06-0.17,0.39-0.31,0.68c-0.12,0.09-0.46,0.97-0.39,1.19c0.08,0.12,0.38,0.16,0.48,0.18c0.19,0.13-0.16,0.39-0.28,0.47
	c-0.15,0.29,0.17,0.24,0.24,0.46c-0.16,0.39-1.03-0.68-1.05,0.14c0.17,0.24,0.34,0.47,0.52,0.61c-0.01,0.1,0.06,0.32,0.06,0.32
	c-0.19-0.14-0.55-0.5-0.69-0.22c-0.02,0.11-0.02,0.11-0.12,0.09s-0.53-0.6-0.54-0.5c-0.35,0.26-0.4,0.56-0.56,0.95
	c-0.25,0.27-0.09-0.12-0.16-0.34c-0.08-0.11-0.66-0.41-0.12-0.53c0.74-0.1-0.29-1.5-0.58-0.93c-0.15,0.29-0.19-0.13-0.07-0.22
	c0.38-0.46-0.11-0.64-0.37-0.26c-0.02,0.1-0.44,0.14-0.31-0.05c0.04-0.2,0.5-0.55,0.11-0.71c-0.3-0.05-0.46,0.34-0.73,0.09
	s-0.41-0.69-0.08-0.84c0.55-0.23-0.15-0.34-0.32-0.57c0.08-0.51,0.28,0.15,0.42-0.04c0.11-0.09-0.04-0.42-0.03-0.52
	c0.28-0.48,0.41,0.68,0.73,0.63c0.54-0.12,0.76-0.19,1.02-0.57c0.12-0.08,0.27-0.37,0.35-0.25c0.26,0.35-0.23,0.17-0.16,0.39
	c-0.07,0.4,0.52-0.03,0.56,0.4c-0.15,0.28-0.22,0.69-0.47,0.96c-0.23,0.17-0.66,0.31-0.18,0.49c0.22-0.07,1.61-0.37,1.73-0.45
	c0.12-0.09,0.8-0.5,0.72-0.62c-0.19-0.13-0.61-0.09-0.35-0.47c0.11,0.02,0.26,0.36,0.51,0.08c0.15-0.29,0.33-0.78,0.39-1.18
	c0.5-0.55,1.09-0.35,0.4,0.06C25.551,24.22,25.941,24.38,26.071,24.82z M17.441,24.5c1.1-0.45,0.64,0.52,1.69,1.1
	c0.36,0.37-0.04,0.93-0.36,0.98c-0.27-0.25-0.47-0.28-0.54-0.5c-0.17-0.23-0.24-0.45-0.19-0.75l0.08,0.11
	c0.07,0.22,0.07,0.22,0.27,0.25c0.34-0.15-0.29-0.77-0.49-0.8c-0.1-0.02-0.45,0.24-0.57,0.32c-0.13,0.19-0.17-0.23-0.32,0.06
	c-0.18,0.49-0.39-0.17-0.82-0.03c-0.35,0.26-0.3,0.58-0.75,0.2c0.06-0.41,0.04-0.31,0.35-0.26c0.2,0.03,0.14-0.29,0.36-0.36
	c0.22-0.07,0.49,0.18,0.71,0.11C16.972,24.85,17.122,24.56,17.441,24.5z M19.441,27.62c0.03-0.2,0.2,0.04,0.18,0.14
	c0.14,0.43-0.08,0.5-0.35,0.25C19.301,27.81,19.412,27.83,19.441,27.62z M25.761,25.5c0.13-0.19,0.4-0.56,0.54-0.12
	C26.421,25.91,26.542,25.83,25.761,25.5z M28.671,29.39c0.05-0.31,0.45-0.87,0.35-0.26C29.091,29.35,28.941,29.64,28.671,29.39z
	 M28.921,27.76c-0.14,0.29,0.21,0.66-0.48,0.45C28.622,27.72,29.271,27.51,28.921,27.76z M28.202,24.43
	c0.07-0.12,0.17-0.16,0.26-0.16c0.15-0.24,0.28,0.11,0.44,0.22c0.19,0.14,0.05,0.32-0.15,0.29l-0.2-0.21
	C28.332,24.86,28.241,24.82,28.202,24.43z M17.271,27.6c0.45-0.25,0.5,0.07-0.15,0.28C17.151,27.68,17.251,27.7,17.271,27.6z
	 M26.421,27.89c0.02-0.1,0.6-0.53,0.42-0.04C26.812,28.05,26.481,28.21,26.421,27.89z M19.611,25.16c0.1,0.01,0.38,0.26,0.36,0.37
	c-0.05,0.3-0.4-0.07-0.49-0.19c-0.28-0.87-0.76-0.43-1.05-1.2c-0.06-0.32,0.79,0.23,0.77,0.33l0.71,0.11
	C19.892,24.68,19.662,24.85,19.611,25.16z M13.162,24.14c0.04-0.3,0.2,0.04,0.28,0.15C13.501,24.61,13.162,24.14,13.162,24.14z
	 M15.281,23.75c1.09-0.35,0.87,0.45-0.24,0.27C15.071,23.82,15.071,23.82,15.281,23.75z M11.392,25.53c0.03-0.2,0.25-0.27,0.35-0.26
	C12.011,25.52,11.481,25.65,11.392,25.53z M11.682,24.33c0.05-0.31,0.4,0.06,0.4,0.06L11.682,24.33z M14.932,26.71
	c0.08-0.51,0.24,0.45,0.32,0.57C15.412,27.61,14.892,27.64,14.932,26.71z M14.332,23.91c0.22-0.07,0.3,0.05,0.49,0.18
	c0.1,0.02-0.13,0.19-0.24,0.17C14.481,24.25,14.432,23.93,14.332,23.91z M14.082,25.54c0.15-0.29,0.32-0.06,0.28,0.14
	c-0.03,0.21-0.45,0.25-0.55,0.23C13.841,25.71,14.051,25.74,14.082,25.54z M14.091,24.81c0.06-0.41,0.36-0.36,0.4,0.06
	C14.441,25.18,14.051,25.01,14.091,24.81z M14.222,27.95c0.18,0.13,0.05,0.32-0.15,0.29l-0.36-0.37
	C13.892,27.38,14.031,27.81,14.222,27.95z M39.321,30.02c0.16,0.34-0.19,0.59-0.46,0.34C38.872,30.26,39.171,29.68,39.321,30.02z
	 M42.412,34.77c0.05-0.31,0.53-0.75,0.35-0.26C42.631,34.7,42.602,34.9,42.412,34.77z M45.582,31c0.41,0.69-0.28,1.1-0.11,1.34
	c0.24,0.45-0.26,0.37-0.3-0.05c0.05-0.31,0.11-0.71,0.06-1.03C45.412,30.77,45.542,30.58,45.582,31z M42.042,29.82
	c0.47,0.28-0.38,0.46-0.45,0.24C41.741,29.77,41.741,29.77,42.042,29.82z M39.812,30.2c0.12-0.09-0.18,0.49-0.36,0.36
	C39.461,30.46,39.611,30.17,39.812,30.2z M40.412,28.32c0.04-0.2,0.32-0.05,0.31,0.05C40.602,28.45,40.501,28.44,40.412,28.32z
	 M50.281,34.65c0.16,0.34-0.18,0.49-0.26,0.37c-0.09-0.11-0.04-0.42-0.12-0.53C50.011,34.4,50.102,34.52,50.281,34.65z
	 M47.741,34.36c0.23,0.11-0.09,0.46-0.32,0.5l-0.05,0.33c-0.43-0.26-0.2-0.92,0-0.56C47.472,34.52,47.611,34.4,47.741,34.36z
	 M45.611,35.48c0.35-0.26-0.01-0.63,0.41-0.67c0.11,0.15,0.12,0.38,0.1,0.6l0.08,0.01c-0.01,0.03-0.04,0.08-0.09,0.13l-0.03,0.21
	C45.932,36.05,45.691,35.59,45.611,35.48z M47.171,35.41c0.11-0.71,0.96,0.46,0.26,0.97C47.332,36.37,47.241,35.63,47.171,35.41z
	 M47.091,32.59c0.22-0.07,0.05,0.32-0.34,0.16C46.771,32.64,46.991,32.57,47.091,32.59z M39.332,31.99c0.06-0.4,0.45-0.24,0.3,0.05
	C39.501,32.23,39.332,31.99,39.332,31.99z M32.211,27.24c0.25-0.27,0.52-0.02,0.47,0.28C32.651,27.72,32.432,27.17,32.211,27.24z
	 M35.051,29.56c0.26,0.35-0.35,0.25-0.55,0.22C34.531,29.58,34.801,29.2,35.051,29.56z M30.412,26.85c0.46,0.39,0.31,0.67,0.04,0.42
	c-0.19-0.13-0.27-0.25-0.48-0.28C30.122,26.7,30.111,26.81,30.412,26.85z M34.932,30.99c0,0,0.24-0.17,0.22-0.07
	c-0.03,0.21-0.19,0.6-0.4,0.56C34.892,31.3,34.821,31.08,34.932,30.99z M29.812,27.38c0.28-0.47,0.09,0.74-0.31,0.68L29.812,27.38z
	 M29.611,23.53c0-0.08-0.01-0.17,0-0.28c0.08-0.5,0.24,0.46,0.32,0.57c0.11,0.23-0.09,0.31-0.22,0.07c-0.06,0.08-0.17,0.12-0.3,0.1
	C29.501,23.86,29.562,23.62,29.611,23.53z M10.691,24.07c0.15-0.29,0.79,0.23,0.84,0.55C10.892,25.45,10.662,24.89,10.691,24.07z
	 M36.011,28.04c0.09,0.12-0.55,0.23-0.67,0.32C35.481,28.17,35.841,27.81,36.011,28.04z M39.122,31.34c0.3,0.05,0.04,0.42-0.25,0.27
	C38.881,31.51,38.921,31.31,39.122,31.34z M37.961,31.47c0.23-0.17,0.2,0.03,0.19,0.13c0.24,0.45-0.45,0.24-0.52,0.02
	C37.691,31.22,37.731,31.64,37.961,31.47z M35.841,30.51c0.13-0.19,0.58-0.43,0.62-0.01C36.562,31.14,35.991,30.85,35.841,30.51z
	 M27.031,26.01c0.09-0.61,0.52-0.02,0.45,0.38l-0.42,0.04c-0.13,0.19-0.36,0.36-0.53,0.12C26.682,26.27,26.881,26.3,27.031,26.01z
	 M3.761,21.42c-0.09,0.61-0.5-0.08-0.67-0.31C3.131,20.8,3.812,21.12,3.761,21.42z M10.271,26.08c0.03-0.2,0.35-0.26,0.42-0.04
	C10.781,26.16,10.372,26.1,10.271,26.08z M14.642,22.61c0.17,0.23-0.1,0.61-0.39,0.46C14.271,22.97,14.472,22.37,14.642,22.61z
	 M16.702,23.97c0.06-0.4-0.17-0.23-0.56-0.4c0.35-0.25,0.97-0.26,1.05-0.77c0.08-0.51,0.27,0.25-0.11,0.71
	C17.062,23.61,16.591,24.68,16.702,23.97z M22.452,23.52c0.07,0.22-0.06,0.41-0.25,0.28C22.222,23.7,22.401,23.2,22.452,23.52z
	 M16.421,24.45c-0.12,0.08-0.32,0.05-0.42,0.04c0.01-0.11,0.03-0.21,0.15-0.29C16.261,24.11,16.631,24.38,16.421,24.45z
	 M25.151,23.43c-0.13,0.19-0.53,0.12-0.73,0.09C24.511,22.91,25.321,23.04,25.151,23.43z M26.642,23.87
	c0.07,0.22-0.28,0.48-0.49,0.44C26.151,24.31,26.481,23.53,26.642,23.87z M15.001,21.63c-0.3,0.57-0.22,0.69-0.67,0.31
	c0.01-0.11,0.01-0.11,0.23-0.17c0.22-0.07,0.13-0.19,0.28-0.48C14.991,21,15.031,21.42,15.001,21.63z M6.021,25.52
	c-0.14,0.18-0.31-0.05-0.51-0.08C5.662,25.15,6.051,25.31,6.021,25.52z M5.651,23.9c-0.13,0.19-0.47,0.34-0.67,0.31
	c0.15-0.29,0.28-0.48,0.6-0.53C5.702,23.6,5.771,23.81,5.651,23.9z M5.801,26.94c0.21-0.07,0.72,0.01,0.59,0.19
	C6.352,27.34,5.901,26.95,5.801,26.94z M5.372,21.67c-0.18,1.22-0.05,1.03-0.59,0.53C4.912,22.02,5.071,21,5.372,21.67z
	 M6.122,22.83c0.04-0.2,0.43-1.39,0.42-0.66C6.582,22.59,6.682,23.23,6.122,22.83z M40.761,21.37c0.17,0.23-0.42,0.03-0.54,0.12
	c-0.32,0.05-0.16,0.39-0.31,0.68c-0.12,0.08-0.46,0.97-0.39,1.18c0.08,0.12,0.38,0.17,0.49,0.18c0.18,0.14-0.17,0.39-0.29,0.48
	c-0.14,0.29,0.17,0.23,0.24,0.45c-0.16,0.39-1.03-0.68-1.05,0.15c0.17,0.23,0.34,0.47,0.52,0.6c-0.01,0.1,0.06,0.32,0.06,0.32
	c-0.19-0.13-0.54-0.5-0.69-0.21c-0.02,0.1-0.02,0.1-0.12,0.09c-0.1-0.02-0.53-0.61-0.54-0.51c-0.35,0.26-0.4,0.57-0.56,0.96
	c-0.25,0.27-0.09-0.12-0.16-0.34c-0.08-0.12-0.66-0.42-0.12-0.54c0.74-0.09-0.28-1.5-0.58-0.92c-0.15,0.29-0.19-0.14-0.07-0.22
	c0.38-0.46-0.11-0.64-0.37-0.27c-0.02,0.1-0.44,0.14-0.3-0.04c0.03-0.21,0.49-0.55,0.11-0.72c-0.31-0.04-0.47,0.35-0.74,0.1
	s-0.41-0.69-0.08-0.85c0.55-0.22-0.15-0.33-0.32-0.57c0.08-0.5,0.28,0.15,0.42-0.03c0.11-0.09-0.04-0.43-0.02-0.53
	c0.28-0.47,0.4,0.69,0.72,0.64c0.54-0.13,0.76-0.2,1.02-0.57c0.12-0.09,0.27-0.38,0.35-0.26c0.26,0.35-0.23,0.17-0.16,0.39
	c-0.07,0.41,0.52-0.02,0.56,0.4c-0.15,0.29-0.22,0.7-0.46,0.97c-0.24,0.17-0.67,0.31-0.18,0.49c0.21-0.07,1.6-0.37,1.72-0.46
	c0.12-0.08,0.8-0.5,0.72-0.61c-0.19-0.14-0.61-0.1-0.34-0.47c0.1,0.01,0.25,0.35,0.5,0.08c0.15-0.29,0.33-0.78,0.39-1.19
	c0.5-0.54,1.09-0.35,0.41,0.07C40.231,20.76,40.622,20.93,40.761,21.37z M40.441,22.04c0.14-0.18,0.4-0.56,0.54-0.12
	C41.102,22.46,41.222,22.37,40.441,22.04z M32.122,21.05c1.11-0.45,0.65,0.52,1.69,1.1c0.36,0.36-0.04,0.93-0.36,0.98
	c-0.27-0.25-0.47-0.28-0.54-0.5c-0.17-0.24-0.24-0.46-0.19-0.76l0.08,0.12c0.07,0.22,0.07,0.22,0.27,0.25
	c0.34-0.16-0.29-0.78-0.49-0.81c-0.1-0.01-0.45,0.24-0.57,0.33c-0.13,0.19-0.17-0.23-0.32,0.05c-0.18,0.49-0.38-0.16-0.82-0.02
	c-0.35,0.26-0.3,0.58-0.75,0.19c0.06-0.4,0.04-0.3,0.35-0.25c0.2,0.03,0.15-0.29,0.36-0.36c0.22-0.07,0.49,0.18,0.71,0.11
	C31.662,21.39,31.801,21.1,32.122,21.05z M34.122,24.17c0.03-0.2,0.2,0.03,0.18,0.13c0.14,0.44-0.08,0.51-0.35,0.26
	C33.991,24.36,34.091,24.37,34.122,24.17z M34.292,21.7c0.11,0.02,0.38,0.27,0.36,0.37c-0.05,0.3-0.4-0.06-0.49-0.18
	c-0.27-0.88-0.76-0.43-1.05-1.21c-0.05-0.32,0.79,0.23,0.78,0.33l0.7,0.12C34.582,21.23,34.341,21.4,34.292,21.7z M43.611,24.31
	c-0.15,0.29,0.2,0.65-0.49,0.44C43.301,24.26,43.961,24.05,43.611,24.31z M43.352,25.93c0.05-0.3,0.45-0.86,0.35-0.26
	C43.771,25.89,43.622,26.18,43.352,25.93z M41.111,24.43c0.01-0.1,0.59-0.52,0.41-0.03C41.491,24.6,41.162,24.76,41.111,24.43z
	 M41.711,22.55c0.09-0.6,0.52-0.02,0.45,0.39l-0.41,0.04c-0.14,0.18-0.37,0.35-0.54,0.12C41.361,22.81,41.562,22.84,41.711,22.55z
	 M43.912,19.68c0.25-0.27,0.09,0.74-0.21,0.69C43.731,20.17,43.781,19.87,43.912,19.68z M42.881,20.97
	c0.15-0.29,0.54-0.12,0.41,0.07C43.021,21.41,42.921,21.39,42.881,20.97z M27.841,20.69c0.04-0.31,0.2,0.03,0.28,0.15
	C28.182,21.16,27.841,20.69,27.841,20.69z M26.071,22.07c0.03-0.2,0.25-0.27,0.35-0.25C26.691,22.07,26.162,22.19,26.071,22.07z
	 M26.361,20.87c0.05-0.3,0.41,0.07,0.41,0.07L26.361,20.87z M26.932,20.55c0.13-0.19,0.62-0.01,0.49,0.18l-0.24,0.17
	C27.231,20.59,27.122,20.68,26.932,20.55z M31.952,24.14c0.45-0.24,0.51,0.08-0.15,0.29C31.832,24.23,31.941,24.24,31.952,24.14z
	 M29.972,20.3c1.08-0.35,0.86,0.44-0.25,0.27C29.751,20.36,29.751,20.36,29.972,20.3z M28.771,21.35c0.06-0.4,0.36-0.35,0.4,0.07
	C29.122,21.72,28.741,21.56,28.771,21.35z M29.011,20.46c0.22-0.07,0.3,0.04,0.49,0.18c0.1,0.01-0.13,0.18-0.23,0.17
	C29.162,20.79,29.111,20.47,29.011,20.46z M28.761,22.08c0.15-0.29,0.32-0.05,0.28,0.15c-0.03,0.2-0.45,0.24-0.55,0.22
	C28.521,22.25,28.731,22.28,28.761,22.08z M28.441,18.81c0.14,0.44-0.79,1.12-1.02,0.57c0.13-0.19,0.31-0.68,0.55-0.85
	C28.472,17.98,28.491,18.5,28.441,18.81z M57.091,31.31c0.05-0.3,0.53-0.75,0.35-0.26C57.312,31.24,57.281,31.44,57.091,31.31z
	 M56.722,26.37c0.48,0.28-0.38,0.46-0.45,0.24C56.421,26.32,56.421,26.32,56.722,26.37z M55.102,24.86c0.03-0.2,0.31-0.05,0.3,0.05
	C55.281,25,55.182,24.98,55.102,24.86z M61.771,29.13c0.22-0.06,0.05,0.32-0.33,0.16C61.452,29.19,61.671,29.12,61.771,29.13z
	 M64.961,31.2c0.16,0.33-0.18,0.49-0.26,0.37c-0.09-0.12-0.04-0.42-0.12-0.54C64.691,30.94,64.781,31.06,64.961,31.2z M62.432,30.9
	c0.28,0.15-0.32,0.68-0.49,0.44C61.961,31.24,62.211,30.97,62.432,30.9z M60.292,32.02c0.35-0.26-0.01-0.62,0.41-0.66
	c0.17,0.23,0.11,0.64,0.06,0.94C60.611,32.59,60.372,32.14,60.292,32.02z M54.491,26.75c0.12-0.09-0.18,0.49-0.36,0.35
	C54.142,27,54.292,26.71,54.491,26.75z M44.372,20.06c0.17,0.24,0.02,0.53-0.28,0.48C44.222,20.35,44.281,19.95,44.372,20.06z
	 M61.852,31.95c0.11-0.71,0.96,0.47,0.26,0.98C62.011,32.91,61.921,32.17,61.852,31.95z M46.892,23.78
	c0.25-0.27,0.52-0.02,0.47,0.29C47.332,24.27,47.111,23.71,46.892,23.78z M49.741,26.1c0.25,0.35-0.36,0.26-0.56,0.23
	C49.211,26.12,49.481,25.75,49.741,26.1z M44.491,23.93c0.28-0.48,0.09,0.74-0.31,0.68L44.491,23.93z M49.611,27.54
	c0,0,0.24-0.17,0.22-0.07c-0.03,0.2-0.19,0.59-0.39,0.56C49.571,27.84,49.501,27.62,49.611,27.54z M54.011,28.54
	c0.06-0.41,0.45-0.24,0.3,0.05C54.182,28.77,54.011,28.54,54.011,28.54z M45.091,23.4c0.46,0.38,0.31,0.67,0.04,0.42
	c-0.19-0.13-0.27-0.25-0.47-0.28C44.801,23.25,44.792,23.35,45.091,23.4z M54.001,26.56c0.16,0.34-0.19,0.6-0.46,0.35
	C53.551,26.81,53.852,26.23,54.001,26.56z M53.801,27.88c0.3,0.05,0.04,0.43-0.25,0.28C53.571,28.05,53.602,27.85,53.801,27.88z
	 M52.642,28.01c0.24-0.17,0.2,0.03,0.19,0.14c0.24,0.45-0.45,0.24-0.52,0.02C52.372,27.76,52.412,28.18,52.642,28.01z M50.521,27.06
	c0.13-0.19,0.58-0.43,0.62-0.01C51.251,27.69,50.671,27.39,50.521,27.06z M50.691,24.59c0.09,0.12-0.55,0.22-0.66,0.31
	C50.162,24.71,50.521,24.35,50.691,24.59z M18.821,18.86c0.62-0.01-0.41,0.66-0.55,0.22c0.06-0.4-0.42,0.04-0.46-0.38
	c0.03-0.2,0.2,0.03,0.4,0.06L18.821,18.86z M13.122,18.27c0.2,0.04,0.23,0.56,0.23,0.56c-0.21-0.03-0.29-0.15-0.49-0.18
	L13.122,18.27z M11.292,20.07c-0.1-0.02-0.14-0.44-0.22-0.56c0.03-0.2,0.3-0.58,0.35-0.26C11.241,19.74,11.932,19.96,11.292,20.07z
	 M7.832,21.08c0.26-0.37,0.72,0.01,0.67,0.31C8.372,21.58,7.901,21.3,7.832,21.08z M31.381,20.52c0.06-0.41-0.17-0.24-0.56-0.4
	c0.35-0.26,0.97-0.27,1.05-0.77c0.08-0.51,0.27,0.25-0.11,0.71C31.741,20.16,31.271,21.23,31.381,20.52z M9.151,21.91
	c0.32,0.57-0.46,0.24-0.67,0.31C8.542,21.82,8.792,21.54,9.151,21.91z M31.102,20.99c-0.12,0.09-0.32,0.06-0.42,0.04
	c0.01-0.1,0.03-0.2,0.15-0.29C30.941,20.66,31.321,20.92,31.102,20.99z M37.131,20.07c0.07,0.22-0.06,0.41-0.25,0.27
	C36.901,20.24,37.082,19.75,37.131,20.07z M26.852,19.08c0.56,0.4-0.37,0.36-0.57,0.32c0.03-0.2,0.33-0.15,0.28-0.47
	C26.591,18.73,26.861,18.98,26.852,19.08z M15.861,19.95c0.01-0.1,0.3-0.58,0.35-0.26C16.381,19.93,16.042,20.08,15.861,19.95z
	 M29.321,19.15c0.17,0.24-0.1,0.61-0.39,0.46C28.952,19.51,29.151,18.92,29.321,19.15z M26.771,18.23c0.2,0.04,0.01,0.63-0.25,0.28
	C26.542,18.41,26.671,18.22,26.771,18.23z M25.872,20.07c0.04-0.31,0.13-0.19,0.33-0.16c0.92,0.04,0.41,0.69,0.11,0.64
	c-0.09-0.12-0.06-0.32-0.26-0.35C25.952,20.18,25.841,20.27,25.872,20.07z M26.251,17.63c0.12,0.54-0.25,0.27-0.52,0.02
	C25.892,17.26,26.211,17.21,26.251,17.63z M25.881,19.34c0.28,0.15-0.25,0.27-0.35,0.26C25.562,19.4,25.781,19.33,25.881,19.34z
	 M29.682,18.17c-0.3,0.58-0.22,0.7-0.67,0.31c0.01-0.1,0.01-0.1,0.23-0.17c0.22-0.07,0.13-0.19,0.28-0.48
	C29.671,17.55,29.711,17.97,29.682,18.17z M24.421,18.07c0.29,0.15,0.11,0.64-0.25,0.28C24.191,18.24,24.222,18.04,24.421,18.07z
	 M20.481,23.48c0.21-0.07,0.72,0.01,0.59,0.2C21.042,23.88,20.582,23.5,20.481,23.48z M20.702,22.06c-0.13,0.19-0.3-0.05-0.51-0.08
	C20.341,21.69,20.731,21.86,20.702,22.06z M20.062,18.22c-0.19,1.22-0.06,1.03-0.6,0.53C19.591,18.56,19.751,17.55,20.062,18.22z
	 M20.332,20.45c-0.13,0.18-0.47,0.34-0.67,0.31c0.15-0.29,0.28-0.48,0.6-0.53C20.381,20.14,20.452,20.36,20.332,20.45z
	 M25.392,19.16c-0.65,0.21-0.31,0.68-0.19,1.22c-0.15,0.29-0.44,1.49-0.77,1.64c-0.48-0.28,0.7-1.86-0.61-1.44
	c-0.11,0.08-0.28,0.47-0.46,0.34c-0.27-0.25-0.48-0.28-0.65-0.52c-0.14-0.43-0.08-0.11-0.28-0.15c-0.32,0.06-0.46-0.38-0.23-0.55
	c0.49-0.44-0.28-0.15-0.37-0.27c0.03-0.2,0.05-0.3,0.28-0.47c0.22-0.07,0.35-0.26,0.64-0.11c0.2,0.03,0.59,0.2,0.44,0.49
	c-0.23,0.17-0.18,0.49,0.14,0.43c0.1,0.02,0.03-0.2,0.15-0.29c0.43-0.14,0.04-0.3,0.29-0.57c0.02-0.1,0.42-0.04,0.51,0.08
	c-0.02,0.1-0.24,0.17-0.15,0.28c0.07,0.22,0.34,0.47,0.49,0.19c0.01-0.11,0.44-0.87,0.44-0.87c0.1,0.02,0.07,0.22,0.16,0.34
	c0.1,0.01,0.13-0.19,0.25-0.28C25.682,18.58,25.622,18.99,25.392,19.16z M11.042,21.11l0.01-0.02c0.05,0.05,0.13,0.12,0.2,0.19
	C11.182,21.23,11.111,21.17,11.042,21.11z M18.611,19.55l0.21,0.66c0.12,0.54-0.83-0.65-1.03-0.68c-0.32,0.05-0.42,0.66-0.77,0.29
	c-0.07-0.22-0.28-0.25-0.46-0.38c0.15-0.29,1.29-0.32,1.46-0.09C18.202,19.49,18.521,19.43,18.611,19.55z M20.812,19.38
	c0.03-0.21,0.42-1.39,0.41-0.67C21.261,19.14,21.361,19.78,20.812,19.38z M24.021,21.34c0.06,0.21-0.25,0.27-0.3,0.57
	c0.04,0.42-0.44,0.14-0.72-0.01c-0.22,0.07-0.03,0.21-0.05,0.31c-0.33,0.15-0.46-0.39-0.44-0.49c0.15-0.29,0.32-0.05,0.16-0.39
	c0.03-0.2,0.1-0.61,0.37-0.36c0.1,0.02-0.13,0.19,0.15,0.34c0.2,0.03,0.22-0.07,0.45-0.24C23.892,20.8,23.981,20.91,24.021,21.34z
	 M24.952,22.63c0.03-0.21,0.35-0.26,0.42-0.04C25.461,22.71,25.051,22.64,24.952,22.63z M25.372,20.61
	c0.15-0.29,0.79,0.23,0.84,0.55C25.571,21.99,25.341,21.44,25.372,20.61z M39.841,19.97c-0.14,0.19-0.54,0.13-0.74,0.1
	C39.191,19.46,40.001,19.58,39.841,19.97z M18.082,20.92l0.19,0.14l0.09,0.11l-0.81-0.12c0.05-0.31,0.18-0.49,0.33-0.78
	c0.14-0.29,0.25,0.35,0.24,0.45L18.082,20.92z M41.321,20.41c0.07,0.22-0.28,0.48-0.49,0.45C40.832,20.86,41.162,20.08,41.321,20.41
	z M14.281,20.12c0.96-0.16-0.18,0.49-0.57,0.33c-0.1-0.02,0.03-0.83-0.02-1.15c-0.07-0.22,0.63-0.11,0.73-0.09
	C15.011,19.4,13.332,20.28,14.281,20.12z M11.171,21.5c-0.03,0.2-0.25,0.27-0.32,0.06C10.872,21.45,11.091,21.38,11.171,21.5z
	 M17.501,21.35c0.12-0.08,0.55-0.22,0.51,0.08C17.961,21.74,17.591,21.47,17.501,21.35z M16.292,21.16
	c0.09,0.12,0.29,0.15,0.27,0.25c-0.25,0.27-0.37-0.26-0.56-0.4c0.02-0.1,0.04-0.2,0.14-0.18C16.241,20.84,16.292,21.16,16.292,21.16
	z M15.711,21.59c0.81,0.75,0.29,0.77-0.63,0.73c0.04-0.3,0.23-0.17,0.36-0.36C15.562,21.88,15.611,21.57,15.711,21.59z
	 M16.441,22.85c0,0,0.13-0.19,0.34-0.16C16.881,22.71,16.611,23.08,16.441,22.85z M43.972,3.82c0.18,0.13,0.05,0.32-0.15,0.29
	l-0.36-0.37C43.642,3.25,43.781,3.68,43.972,3.82z M72.162,10.64c0.04-0.31,0.53-0.75,0.35-0.26
	C72.381,10.57,72.341,10.77,72.162,10.64z M76.921,11.28c0.11-0.71,0.96,0.46,0.26,0.97C77.082,12.24,76.981,11.5,76.921,11.28z
	 M75.352,11.35c0.35-0.26,0-0.63,0.42-0.67c0.17,0.24,0.1,0.64,0.06,0.95C75.682,11.92,75.441,11.46,75.352,11.35z M40.021,1.95
	c0.03-0.2,0.35-0.26,0.42-0.04C40.521,2.03,40.122,1.97,40.021,1.95z M59.551,37.93c0.02-0.1,0.12-0.08,0.22-0.07
	c-0.06,0.41-0.31,0.68-0.36,0.98c-0.07-0.21-0.05-0.32-0.02-0.52C59.412,38.22,59.441,38.02,59.551,37.93z M59.771,36.51
	c-0.01,0.1-0.03,0.2-0.16,0.39l-0.3-0.05l0.01-0.1C59.361,36.55,59.571,36.48,59.771,36.51z M60.631,38.31
	c-0.01,0.1-0.2-0.03-0.22,0.07l-0.13-0.44l0.06-0.41c0.2,0.04,0.39,0.17,0.46,0.39C60.781,38.02,60.662,38.11,60.631,38.31z
	 M52.582,36.94c0.33-0.16-0.05,0.3-0.17,0.39C51.832,37.76,52.341,37.11,52.582,36.94z M51.131,36.3l0.06-0.41l0.25,0.35
	c0,0-0.11,0.09-0.13,0.19C51.211,36.41,51.231,36.31,51.131,36.3z M51.702,40.54c-0.1-0.01,0.29-0.47,0.39-0.46l-0.05,0.31
	C52.111,40.61,51.912,40.58,51.702,40.54z M54.682,38c-0.08-0.12,0.25-0.27,0.39-0.46l0.17,0.86
	C55.091,38.69,54.751,38.22,54.682,38z M68.781,38.44l-0.41-0.06C68.511,38.19,68.941,38.05,68.781,38.44z M50.301,38.97
	c0.19,0.76,0.66-0.31,0.77,0.33l-0.08,0.51c0,0-0.15-0.34-0.25-0.35l-0.14,0.18c-0.11,0.09-0.17-0.23-0.27-0.25
	c-0.32,0.06-0.5,0.55-0.75,0.2c-0.09-0.12-0.17-0.24-0.16-0.34c-0.05-0.32,0.24-0.17,0.37-0.36c0.12-0.08-0.05-0.32,0.06-0.4
	l0.31,0.04c-0.02,0.11-0.55,0.85-0.13,0.82C50.151,39.26,50.091,38.94,50.301,38.97z M47.952,38.08c0.02-0.1,0.14-0.18-0.05-0.32
	c-0.09-0.11-0.27-0.25-0.17-0.23c0.12-0.09,0.47,0.28,0.57,0.3c-0.04,0.3-0.16,0.39-0.29,0.57
	C47.801,38.37,47.821,38.27,47.952,38.08z M49.042,37.74c0,0-0.2-0.04-0.19-0.14l0.02-0.1l0.4,0.06L49.042,37.74z M47.761,37.33
	c0,0,0.12-0.09,0.13-0.19l-0.08-0.12l0.33-0.15c-0.03,0.2,0.06,0.32,0.14,0.43C48.082,37.27,47.961,37.36,47.761,37.33z
	 M50.722,37.58c0.08,0.12,0.07,0.22-0.05,0.31l-0.3-0.05C50.381,37.74,50.501,37.65,50.722,37.58z M53.501,35.63
	c-0.2-0.03,0.03-0.83,0.08-0.51C53.571,35.22,53.881,35.9,53.501,35.63z M63.901,37.89l-0.05,0.3l-0.2-0.03
	C63.682,37.96,63.821,37.77,63.901,37.89z M63.182,36.53l-0.06,0.4l-0.3-0.05l0.01-0.1C62.852,36.68,63.071,36.61,63.182,36.53z
	 M58.042,37.69c-0.09-0.11-0.17-0.23-0.15-0.33c-0.07-0.22,0.14-0.29,0.18-0.49c0.08,0.11,0.18,0.13,0.17,0.23
	C58.202,37.3,58.171,37.51,58.042,37.69z M52.042,35.71c-0.03,0.21-0.06,0.41,0.01,0.63l-0.26-0.36c0.02-0.1,0.04-0.2,0.15-0.28
	L52.042,35.71z M50.921,38.97c-0.09-0.12-0.21-0.04-0.17-0.24l0.03-0.2l0.2,0.03L50.921,38.97z M50.662,36.64
	c-0.1-0.02-0.19-0.13-0.17-0.24l0.01-0.1C50.602,36.32,50.691,36.44,50.662,36.64z M57.031,36.18c-0.08-0.11-0.2-0.03-0.18-0.13
	l0.03-0.2l0.2,0.03L57.031,36.18z M54.682,36.02c-0.11,0.09-0.15,0.29-0.35,0.26l0.05-0.3L54.682,36.02z M54.182,36.57
	c-0.11,0.08-0.33,0.15-0.42,0.04c0.02-0.11,0.14-0.19,0.15-0.29c0.1,0.01,0.14-0.19,0.14-0.19
	C54.131,36.25,54.202,36.47,54.182,36.57z M48.861,39.58c-0.1-0.02-0.16-0.34-0.24-0.46l-0.24,0.18c-0.4-0.07-0.72-0.01-1.12-0.08
	l-0.1-0.01l0.03-0.21l1.01,0.16c0.23-0.17,0.53-0.12,0.59,0.2L48.861,39.58z M45.332,41.62l0.21,0.03c0.07,0.22-0.15,0.29-0.27,0.38
	L45.332,41.62z M45.062,37.42c0.1,0.02,0.47,0.28,0.35,0.37l-0.2-0.03c-0.21,0.07-0.16,0.39-0.36,0.36c-0.1-0.02-0.1-0.02-0.09-0.12
	C44.792,37.8,44.932,37.61,45.062,37.42z M44.562,35.99c0.2,0.03,0.04,0.42,0,0.63c0,0-0.16,0.39-0.25,0.27
	c-0.08-0.12,0.17-0.39,0.2-0.59C44.421,36.18,44.441,36.08,44.562,35.99z M45.421,36.44c0.01-0.1,0.13-0.19,0.33-0.16
	c-0.01,0.1-0.03,0.21-0.15,0.29l-0.2-0.03L45.421,36.44z M43.702,36.17l0.2,0.03c0.09,0.12,0.07,0.22,0.06,0.32l-0.3-0.05
	C43.571,36.36,43.691,36.27,43.702,36.17z M45.872,38.17l0.36-0.98l0.41,0.06c-0.07,0.41-0.34,0.16-0.39,0.46
	c-0.14,0.29,0.41,0.69-0.22,0.8l-0.31-0.05l0.02-0.1C45.671,38.14,45.861,38.27,45.872,38.17z M50.611,40.27
	c0.35-0.26,0.21,0.65,0.06,0.94c-0.1-0.01-0.49-0.18-0.46-0.38c0.1,0.02,0.32-0.05,0.32-0.05
	C50.651,40.69,50.591,40.37,50.611,40.27z M48.751,40.29c1.19,0.29,0.23,1.18,0.03,0.42C48.702,40.59,48.731,40.39,48.751,40.29z
	 M43.301,39.43c-0.02,0.1,0.57,0.3,0.15,0.34c-0.18-0.14-0.47-0.28-0.42-0.59c0.01-0.1,0.26-0.37,0.33-0.15
	C43.461,39.04,43.211,39.31,43.301,39.43z M47.511,40.92c0.12-0.08,0.16-0.39,0.33-0.15c-0.04,0.3-0.16,0.39-0.46,0.34l-0.1-0.01
	L47.511,40.92z M47.651,38.04l-0.02,0.1l-0.5-0.08l0.03-0.2C47.361,37.89,47.452,38,47.651,38.04z M42.381,38.04l0.01-0.1
	c0.22-0.07,0.44-0.14,0.54-0.12l-0.06,0.4C42.771,38.2,42.562,38.17,42.381,38.04z M41.542,39.47c0.1,0.01,0.18,0.13,0.27,0.25
	l-0.03,0.2c-0.11-0.02-0.19-0.13-0.28-0.25L41.542,39.47z M40.271,40.93c0.07-0.4,0.57-0.32,0.87-0.28
	C41.111,40.86,40.481,40.96,40.271,40.93z M36.952,34.38l0.03-0.2l0.31,0.05l-0.04,0.2C37.151,34.41,36.941,34.48,36.952,34.38z"/>
</svg>
