<?xml version="1.0" encoding="utf-8"?>
<!-- Generator: Adobe Illustrator 16.0.0, SVG Export Plug-In . SVG Version: 6.00 Build 0)  -->
<!DOCTYPE svg PUBLIC "-//W3C//DTD SVG 1.0//EN" "http://www.w3.org/TR/2001/REC-SVG-20010904/DTD/svg10.dtd">
<svg version="1.0" id="Layer_1" xmlns="http://www.w3.org/2000/svg" xmlns:xlink="http://www.w3.org/1999/xlink" x="0px" y="0px"
	 width="81px" height="48px" viewBox="0 0 81 48" enable-background="new 0 0 81 48" xml:space="preserve">
<path fill-rule="evenodd" clip-rule="evenodd" d="M16.427,1.193c0-0.29,0.01-0.59,0.04-0.89l-0.43-0.12
	c0.11,0.12,0.19,0.28,0.24,0.48L16.427,1.193z M12.636,26.464c0.24-0.18-0.25-0.61-0.48-0.69l0.38,0.68L12.636,26.464z
	 M29.897,22.604c0,0,0.63,0.3,0.36-0.1C30.167,22.404,29.807,22.304,29.897,22.604z M29.357,21.504c0.18,0,0.27,0.1,0.45,0.1
	c0,0,0.54-0.3,0.18-0.3c-0.18,0-0.09-0.1-0.27-0.3C29.447,20.804,29.357,21.404,29.357,21.504z M29.327,20.674l-0.58-0.21
	l-0.02,0.04c-0.18,0.2-0.54,0.4-0.09,0.5C28.727,20.954,29.027,20.824,29.327,20.674z M26.707,19.793c0.04,0.04,0.08,0.06,0.11,0.04
	L26.707,19.793z M15.646,0.563c0.18-0.41-0.18-0.1-0.18,0.2L15.646,0.563z M16.437,1.473v-0.09c-0.05-0.22-0.4-0.39-0.52-0.52
	c-0.09-0.2-0.63,0.8-0.72,0.9c-0.18,0.6-0.18,0.7-0.45,0c0.09-0.4,0.09-1.1,0.36-1.51c0.05-0.09,0.12-0.16,0.18-0.21
	c-3.291-0.41-5.951,2.15-6.771,6.721c4.89,0.27,7.34,3.97,10.021,7.36c1.78,2.24,3.66,2.52,6.03,0.76c1.52-1.13,2.96-2.38,4.65-3.75
	l-2.09-0.81c0.01,0.07,0.02,0.15-0.03,0.27c-0.09,0.1-0.36,0.1-0.54,0.3c0.09-0.1-0.27-0.3-0.18-0.3c0.15-0.08,0.48-0.17,0.65-0.31
	c-1.24-0.47-2.46-0.95-3.66-1.47c-1.42-0.62-2.831-1.31-4.121-2.14c-1.61-1.04-2.42-2.471-2.7-4.121c-0.04-0.04-0.09-0.04-0.18,0.01
	c-0.27,0-0.09-0.5,0.09-0.6l0.01-0.01l-0.02-0.19h-0.08c-0.27,0.2-0.54,0.2-0.81,0.3c-0.09,0.1,0-0.1,0-0.1
	c0.27-0.2,0.36-0.2,0.63-0.2C16.347,1.663,16.417,1.563,16.437,1.473z M13.126,1.363c0.18-0.4,0.631-0.1,0.631,0.2
	C13.666,1.763,13.216,1.563,13.126,1.363z M12.856,3.373c0,0,0.18-0.51,0.36-0.31C13.486,3.373,13.126,3.473,12.856,3.373z
	 M14.387,1.963c0.36,0.5-0.36,0.3-0.54,0.4C13.847,1.963,14.027,1.663,14.387,1.963z M15.106,4.973c0.09,0,0.27,0.3,0.18,0.4
	c-0.09,0.101-0.45,0-0.54,0C14.836,5.173,15.017,4.973,15.106,4.973z M14.836,3.773c0.09,0.1-0.27,0.2-0.36,0.2
	C14.477,3.773,14.657,3.673,14.836,3.773z M16.097,1.263c0,0.2-0.18,0.3-0.27,0.1C15.827,1.263,16.007,1.163,16.097,1.263z
	 M25.487,19.594h0.5l-0.8-0.21C25.347,19.454,25.487,19.554,25.487,19.594z M73.959,29.204c0.09,0.1,0-0.2,0-0.2
	c-0.09-0.1-0.27-0.2-0.27-0.2C73.87,29.104,73.87,29.204,73.959,29.204z M47.128,18.364l0.27-0.2c0-0.1,0-0.3-0.09-0.2
	c-0.18,0-0.27,0-0.36,0.1l-0.09,0.1L47.128,18.364z M46.318,17.764c0.27-0.1,0.36-0.51,0-0.41
	C46.048,17.563,45.958,17.964,46.318,17.764z M45.328,16.954c0.09,0.1,0.18,0.1,0.27,0.1c0-0.2-0.09-0.3-0.18-0.399h-0.18
	C45.238,16.753,45.238,16.954,45.328,16.954z M44.068,17.563c0.18-0.21-0.09-0.41-0.27-0.31
	C43.618,17.464,43.888,17.764,44.068,17.563z M40.468,14.753c0-0.11,0.09-0.31-0.09-0.31h-0.09c-0.09,0.1,0,0.31,0.09,0.41
	L40.468,14.753z M52.349,18.964c-0.18,0-0.27,0-0.27,0.2C52.168,19.164,52.259,19.063,52.349,18.964z M17.856,26.563
	c0,0,0.54-0.1,0.36-0.2C18.126,26.264,17.856,26.364,17.856,26.563z M17.586,28.164c0,0,0.63,0.31,0.36-0.1
	C17.856,27.964,17.497,27.864,17.586,28.164z M17.047,27.063c0.18,0,0.27,0.1,0.45,0.1c0,0,0.54-0.3,0.18-0.3
	c-0.18,0-0.09-0.1-0.27-0.3C17.137,26.364,17.047,26.964,17.047,27.063z M25.237,16.833c0.99,0.58,1.9,1.12,2.77,1.63
	c0.02-0.14,0.1-0.55,0.18-0.27c0.07,0.16,0.03,0.32-0.08,0.32c0.81,0.48,1.59,0.93,2.38,1.36c0.1-0.12,0.17-0.24,0.13-0.28
	c-0.18-0.1-0.54,0-0.36-0.4c0.09,0,0.27,0.3,0.45,0c0.09-0.3,0.18-0.8,0.18-1.2c0.36-0.61,0.9-0.51,0.36,0
	c-0.27,0.4,0.09,0.5,0.27,0.9c0.18,0.2-0.36,0.1-0.45,0.2c-0.27,0.1-0.09,0.4-0.18,0.7c-0.02,0.03-0.06,0.12-0.09,0.25
	c1.08,0.58,2.17,1.12,3.27,1.66c0.14-0.44,0.58-0.68,0.33-0.4c-0.07,0.24,0.15,0.48-0.09,0.51l1.42,0.71l-0.16,0.5
	c-0.28-0.07-0.58-0.12-0.88-0.16c-0.03,0.1-0.13,0.16-0.29,0.04l0.01-0.09c-0.47-0.09-0.92-0.19-1.31-0.41
	c-0.65-0.36-1.311-0.68-1.971-0.98c-0.05,0.07-0.11,0.14-0.15,0.18c-0.09,0.3,0.18,0.2,0.27,0.4c-0.09,0.4-0.99-0.5-0.9,0.3
	c0.18,0.2,0.36,0.4,0.54,0.5c0,0.1,0.09,0.3,0.09,0.3c-0.18-0.1-0.54-0.4-0.63-0.1c0,0.1,0,0.1-0.09,0.1c-0.09,0-0.54-0.5-0.54-0.4
	c-0.27,0.3-0.27,0.6-0.36,1.01c-0.18,0.3-0.09-0.1-0.18-0.3c-0.09-0.11-0.63-0.31-0.18-0.51c0.63-0.2-0.45-1.4-0.63-0.8
	c-0.09,0.3-0.18-0.1-0.09-0.2c0.27-0.5-0.18-0.6-0.36-0.2c0,0.1-0.36,0.2-0.27,0c0-0.2,0.36-0.6,0-0.7c-0.27,0-0.36,0.4-0.63,0.2
	c-0.27-0.2-0.45-0.6-0.18-0.81c0.45-0.3-0.18-0.3-0.36-0.5c0-0.07,0.01-0.12,0.02-0.16l-0.38-0.1c-0.03,0.1-0.18,0.29-0.18,0.56
	c0.09,0,0.36,0.2,0.36,0.31c0,0.3-0.36,0-0.45-0.11c-0.36-0.8-0.72-0.3-1.08-1c-0.02-0.06,0-0.09,0.05-0.1
	c-0.44-0.11-0.87-0.21-1.31-0.3c0,0.1-0.27,1.2-0.27,0.5c0-0.4-0.181-0.2-0.541-0.3c0.11-0.12,0.25-0.2,0.39-0.3
	c-0.59-0.12-1.19-0.23-1.79-0.34c0.11,0.21-0.06,0.53-0.31,0.44c0-0.07,0.04-0.35,0.12-0.48l-0.63-0.11
	c0.02,0.42-0.59,1.05-0.84,0.59c0.07-0.15,0.13-0.45,0.23-0.69l-0.86-0.13c-0.01,0.15-0.1,0.3-0.27,0.12c0-0.04,0.02-0.1,0.04-0.16
	c-1.07-0.16-2.15-0.31-3.24-0.46c-4.101-0.55-7.411-2.351-9.11-6.451c-0.14-0.33-1.09-0.67-1.45-0.51
	c-2.88,1.23-4.07,3.91-4.92,6.62c-0.36,1.13,1.11,1.86,2.15,1.86c1.86-0.02,3.42,0.37,4.761,1.07l0.07-0.17
	c0.11,0,0.18,0.18,0.23,0.33c0.22,0.12,0.44,0.26,0.65,0.4c0.15-0.02,0.33-0.02,0.38-0.02c0.18,0.03,0.15,0.17,0.06,0.34
	c1.06,0.81,1.97,1.82,2.77,2.98c0.04-0.07,0.07-0.16,0.07-0.27c0-0.44,0.2,0.03,0.08,0.49c0.21,0.32,0.41,0.64,0.61,0.97
	c0.61-0.25,0.49,0.59,1.38,0.95c0.36,0.3,0.09,0.9-0.18,1c-0.08-0.05-0.14-0.09-0.2-0.12c1.36,2.681,2.48,5.491,4,8.071
	c2.82,4.78,7.34,7.521,12.391,9.23c14.211,4.82,23.121,4.62,36.872,0.12c6.101-2,13.561-9.33,14.461-15.49
	c1.4-9.61-0.93-15.091-7.59-22.231c-1.93-2.061-5.21-3.431-8.71-4.23c0.03,0.22-0.16,0.34-0.23,0.25c-0.06-0.06-0.08-0.2-0.11-0.32
	c-3.35-0.73-6.861-0.93-9.531-0.73c-7.811,0.59-14.231,4.351-20.411,8.711C31.227,12.493,28.467,14.513,25.237,16.833z
	 M72.43,25.684c0,0.1,0.18,0.2,0,0.5l-0.18,0.3c-0.09,0-0.27-0.1-0.27,0c-0.18,0-0.27,0.21-0.36,0.21v-0.31c0-0.2,0-0.2-0.09-0.3
	c0-0.2-0.09-0.5,0.09-0.6c0.09-0.1,0.18,0.2,0.09,0.3c0.18,0.1,0,0.5,0.36,0.3c0.09-0.1,0.09-0.1,0.09-0.2
	S72.339,25.583,72.43,25.684z M71.62,28.604c0.45-0.2,0.27,0.2,0.18,0.1c-0.27,0.1-0.27,0.1-0.36,0.1
	C71.35,28.704,71.62,28.604,71.62,28.604z M65.499,24.774c0.09,0,0.09,0.1,0.09,0.2c0,0.21,0,0.31-0.18,0.41
	c-0.09,0-0.18,0-0.18,0.1c-0.06,0-0.12,0.09-0.12,0.09l0.03-0.09c0-0.1,0.18-0.71,0.09-0.71
	C65.229,24.674,65.499,24.574,65.499,24.774z M73.78,31.824c-0.27-0.1,0-0.51,0-0.41C73.78,31.524,73.87,31.824,73.78,31.824z
	 M74.95,30.714c-0.09-0.2,0.09,0.1,0.09,0.2s-0.09,0.61-0.18,0.4C74.859,31.114,74.859,30.914,74.95,30.714z M72.79,26.994
	c0.09-0.1,0.54,0.2,0.54,0.2c0.09,0.1,0.09,0.2,0,0.3c-0.09,0.3-0.36,0.101-0.36,0c0-0.1-0.36,0-0.36-0.2
	C72.609,27.094,72.79,26.994,72.79,26.994z M71.62,27.094c0,0-0.36-0.1-0.27-0.2h0.27C71.62,26.894,71.89,27.094,71.62,27.094z
	 M72.609,29.504c0,0,0.54-0.1,0.54,0c0.09,0.1-0.27,0.3-0.27,0.3c-0.27-0.1-0.18,0.71-0.18,0.81c-0.09,0.3-0.18,0-0.18,0
	c-0.09-0.4-0.18-0.6-0.09-0.81C72.43,29.704,72.52,29.604,72.609,29.504z M74.68,30.414c-0.09,0.1,0.18,0.4-0.18,0.5
	c-0.09,0-0.18-0.1-0.18-0.2c0,0-0.18-0.7-0.27-0.6c-0.45-0.21-0.18,0.7-0.63,0.4c0-0.4,0.09-0.71,0.09-1.01v-0.9
	c0.54-0.61,0-0.51,0.36-1.01c0.18,0,0.27-0.101,0.27,0.199c0,0.101-0.09,0.611-0.09,0.611c0.18,0.1,0.18-0.1,0.27,0.5
	c0,0.1-0.09,0.3,0,0.5c0.09,0.1-0.18,0.3-0.18,0.4C74.229,30.114,74.589,30.214,74.68,30.414z M71.169,28.804
	c0,0.1,0.09,0.1,0.09,0.1c-0.09,0.5-0.36,0.1-0.36,0.1c0-0.1-0.18-0.1-0.18-0.2c-0.09-0.3,0.09,0,0.18-0.1
	C70.99,28.604,71.08,28.804,71.169,28.804z M66.399,29.404c-0.09-0.4,0.54-0.2,0.27,0.1C66.669,29.604,66.399,29.604,66.399,29.404z
	 M68.289,26.694c0.09,0.2-0.45,0.6-0.36,0.6c-0.09,0.1,0.18,0.2,0.09,0.2c-0.18,0.101-0.36-0.1-0.45,0c0-0.2,0-0.3,0.09-0.4
	c0-0.2,0.36,0,0.27-0.4c0-0.21-0.27-0.11-0.18-0.41c0.36,0.1-0.36-0.6,0.27,0c0.09,0.1,0.09,0.2,0.18,0.2L68.289,26.694z
	 M66.039,28.194c0.09-0.1,0.54,0.41,0.63,0.41c0.36,0.4-0.18,0.1-0.18,0.1c-0.54-0.61,0,0.7-0.72-0.2
	c-0.09-0.2-0.27-0.41-0.09-0.511C65.769,27.994,66.039,28.194,66.039,28.194z M70.72,26.284c0.45,0,0.18,0.2,0.18,0.41
	c-0.27,0.5-0.45,0.6-0.63,0.8c0,0-0.09,0.3-0.27,0.101c-0.09-0.201-0.18-0.4,0-0.5c0.09-0.1,0.18-0.2,0.09-0.2
	c-0.27-0.41-0.45,0.2-0.54,0.3c-0.45,0.2-0.45-0.3-0.631-0.5c0-0.41-0.54-0.11-0.54-0.61c0.18,0.1,0.45-0.4,0.54-0.5
	c0.271-0.2,0.181,0.8,0.271,0.8c0,0,0.09,0.41,0.09,0.51c0.09,0.1,0.09-0.2,0.18-0.2c0.18-0.21-0.36-1.31,0-1.72
	c0,0.1,0.27,0.1,0.27,0s-0.27-0.3-0.18-0.3c0-0.3,0.36-0.3,0.36-0.1c0.09,0.1,0,0.2,0.09,0.2c0,0.3,0.36,0.3,0.45,0.3
	c0.27,0.21-0.09,0.21-0.09,0.41c0,0.1,0.27,0.2,0.18,0.2c-0.18,0.1-0.81,0-0.9,0.3c0.09,0.2,0.54-0.1,0.81,0.4L70.72,26.284z
	 M69.459,29.904c0.27-0.4,0.27,0.31,0.09,0.31C69.459,30.214,69.37,30.014,69.459,29.904z M70.089,29.304
	c0.18-0.3,0.27,0.4,0.09,0.3C70.089,29.504,70,29.304,70.089,29.304z M68.739,28.304c0.18-0.11,0.36-0.11,0.45-0.11
	c0.18,0-0.271,0.31-0.36,0.41C68.649,28.604,68.739,28.304,68.739,28.304z M71.35,29.504c0.09-0.1,0.09-0.3,0.18-0.3
	c0,0.1-0.09,0.3,0,0.3c-0.09,0,0,0.4-0.09,0.4C71.35,29.804,71.53,29.504,71.35,29.504z M80.26,26.384c-0.18,0.1,0-0.3,0.09-0.3
	c0.09-0.1,0.09,0.2,0,0.2C80.35,26.384,80.26,26.384,80.26,26.384z M75.85,25.684c-0.09,0.2-0.18,0.2-0.27,0.2
	c-0.09,0.1-0.18-0.4,0-0.5C75.669,25.384,75.85,25.684,75.85,25.684z M76.03,27.994c-0.09,0.311,0.18,0.911,0,1.011
	c-0.09,0.1-0.09-0.5-0.18-0.4c-0.18,0-0.09-0.41-0.09-0.41c0.09-0.1,0.09-0.3,0.18-0.3C76.03,27.894,76.03,27.994,76.03,27.994z
	 M74.68,29.604c-0.09-0.1,0.36-0.2,0.45-0.2c0.18,0,0.27,0,0.36,0.1c0,0.1-0.18,0.3-0.18,0.2l-0.18,0.31c0,0-0.09,0.4-0.18,0.1
	C74.859,30.114,74.77,29.604,74.68,29.604z M76.39,24.374c0.18-0.1,0.45,0.2,0.45,0.3l-0.05,0.1c0,0,0.02-0.06-0.04,0
	c-0.09,0.1-0.27-0.2-0.36-0.3V24.374z M78.55,29.704c0.36,0.2-0.18,0.71-0.18,0.51c-0.181,0.3-0.811,0.9-0.9,0.6
	c0-0.2,0.09-0.4-0.09-0.4c-0.36,0.5-0.27-0.71,0.09-0.4l0.27,0.4c0.36-0.1,0.18-0.61,0.45-0.61
	C78.189,29.704,78.46,29.704,78.55,29.704z M79.18,28.704c0.18-0.1,0.27,0.5,0,0.3C79.18,29.004,79.09,28.704,79.18,28.704z
	 M78.82,30.514c0.09-0.1,0.27,0,0.27,0.1C79,30.914,78.73,30.714,78.82,30.514z M79.63,28.404c-0.09,0-0.18-0.1-0.09-0.1
	c-0.09-0.511-0.36-0.811-0.45-1.411c0.09,0,0.09-0.41,0.18-0.31v0.41c0,0.1,0.36,0.601,0.36,0.601c0.18,0.199,0.54,0.91,0.27,1.01
	C79.72,28.604,79.63,28.504,79.63,28.404z M80.17,28.604c0.09-0.1,0.27,0.4,0.27,0.4c0,0.3-0.45,0.2-0.45,0.6
	c-0.09,0.1,0,0.3-0.09,0.41c-0.27,0.3-0.45,0-0.45,0c-0.18-0.11-0.36,0.2-0.27,0c0-0.11,0.09-0.41,0.09-0.41
	c0.09-0.1,0.36-0.1,0.45-0.2c0.09-0.1-0.09-0.3,0.09-0.4C79.99,29.104,80.08,28.804,80.17,28.604z M58.208,24.774
	c0,0.1-0.09-0.3,0.18-0.2c0,0.1,0.09,0.2,0.09,0.3C58.389,24.774,58.208,24.774,58.208,24.774z M77.379,26.894
	c0.27-0.1,0.09,0.5,0,0.4C77.29,27.194,77.2,26.894,77.379,26.894z M74.77,26.894c0,0-0.18-0.41,0.27-0.31
	c0.09,0.11,0.36,0.41,0.27,0.41c0,0.2,0.09,0.601-0.09,0.601c-0.09,0.1-0.27-0.101-0.36,0c-0.09-0.101-0.36,0-0.18-0.4
	C74.68,27.194,74.95,26.994,74.77,26.894z M74.68,24.674c-0.18,0,0-0.3,0.09-0.3C74.77,24.374,74.77,24.674,74.68,24.674z
	 M71.709,24.274c-0.09,0-0.18-0.3-0.09-0.4C71.89,23.874,71.8,24.274,71.709,24.274z M73.419,25.884c-0.09,0.1-0.45-0.1-0.27-0.2
	C73.24,25.684,73.51,25.784,73.419,25.884z M73.419,26.184c0,0.1,0.36,0.51,0.45,0.2c0,0.1,0.09,0.41-0.18,0.41l-0.36-0.1
	c0-0.11-0.18-0.21-0.18-0.31C73.149,26.184,73.24,26.083,73.419,26.184z M74.05,24.674c0,0.51-0.36,0.91-0.63,0.71
	c-0.09-0.1,0.09-0.2,0.18-0.1c0.09,0.2,0-0.41,0-0.41C73.689,24.374,73.78,24.374,74.05,24.674z M73.78,25.984
	c0-0.1,0.18-0.3,0.27-0.2c0.18,0.1,0.27-0.4,0.54-0.3c0.09,0.1,0.09,0.5,0.18,0.6c0,0.1-0.18,0.2-0.27,0.1c-0.27-0.1,0-0.1-0.36-0.1
	C74.05,26.083,73.87,26.083,73.78,25.984z M75.22,27.894c0.09,0.1-0.27,0.41,0,0.51c0.09,0,0,0.8-0.27,0.5
	c-0.09-0.1-0.09-0.71,0-0.71C74.95,28.094,75.129,27.894,75.22,27.894z M77.47,28.094c0.72,0.21-0.09,0.71,0.45,0.91h0.18
	c0,0-0.09-0.6,0-0.7c0.181-0.311,0.181,0.2,0.181,0.2s0,0.6-0.091,0.7c-0.18,0.2-0.18,0-0.36,0.1c0,0-0.27-0.4-0.36-0.4
	C77.29,28.504,77.47,28.404,77.47,28.094z M78.189,26.793c0,0-0.54-0.1-0.54-0.41c-0.09-0.2,0.36-0.1,0.36-0.1l0.09-0.2
	c0.181-0.4,0.63-0.5,0.9-0.7c0.09,0,0.09-0.2,0.27-0.2s0.27-0.11,0.45-0.31c0,0.1,0.18,0.31,0.27,0.41l-0.18,0.1
	c0,0.7-0.54-0.1-0.54,0.6c-0.09,0.5-0.72-0.4-0.81,0.1C78.28,26.284,78.28,26.793,78.189,26.793z M78.73,24.474
	c-0.09,0.1-0.27-0.1-0.27-0.2C78.37,23.974,78.73,24.274,78.73,24.474z M78.46,24.574c-0.18,0.2-0.63,0-0.271-0.1
	C78.28,24.474,78.46,24.574,78.46,24.574z M78.01,25.284c0.271,0,0,0.6-0.09,0.3C77.83,25.484,77.92,25.284,78.01,25.284z
	 M61.089,26.793l0.18,0.1c0,0.1,0.09,0.5,0,0.4c-0.09,0-0.36,0-0.18-0.2c0.09-0.2-0.27-0.3-0.36-0.51
	c-0.06-0.07-0.08-0.09-0.08-0.09c0.01-0.01,0.08,0.02,0.08-0.11C60.909,26.284,61.089,26.793,61.089,26.793z M71.439,25.074
	c0,0-0.36-0.2-0.27-0.3c0.09,0,0.36,0.1,0.36,0.1c0.18-0.1,0.27,0.1,0.18,0.1C71.709,25.074,71.53,25.074,71.439,25.074z
	 M62.169,26.994c-0.27,0.1-0.36-0.3-0.27-0.3C61.989,26.793,62.349,26.994,62.169,26.994z M62.889,24.774
	c-0.09-0.3,0.54-0.2,0.45-0.1c0,0-0.36,0.51-0.36,0.4C62.889,24.974,62.889,24.874,62.889,24.774z M65.049,27.894
	c-0.18-0.101-0.09-0.5,0-0.3C65.049,27.594,65.139,27.894,65.049,27.894z M63.609,25.784c-0.09-0.2,0-0.3,0.09-0.3
	C63.699,25.583,63.699,25.884,63.609,25.784z M64.959,26.484c0.36,0.1,0.27,0.41,0,0.31C64.419,26.484,64.779,26.384,64.959,26.484z
	 M64.239,24.474c0-0.2,0.45,0,0.36,0.1S64.329,24.574,64.239,24.474z M61.989,27.594c0.09,0,0.18,0,0.27-0.101
	c0,0.101-0.18,0.4-0.09,0.5c0,0,0.09,0.311,0,0.311C61.989,28.404,61.899,27.594,61.989,27.594z M55.789,24.274h0.18
	c0,0.1,0,0.1,0.09,0.2c0,0.1-0.18,0.2-0.18,0.3c-0.09,0-0.09,0.1-0.09,0.1c-0.18,0-0.27,0-0.27-0.2
	C55.519,24.574,55.789,24.174,55.789,24.274z M66.309,25.284c-0.27-0.21,0-0.51-0.09-0.61c0.09,0,0.27,0.1,0.27,0.2l0.09,0.1
	C66.849,25.484,66.309,25.184,66.309,25.284z M70.27,24.574c-0.18-0.1,0.54-0.2,0.54-0.2l0.09,0.1
	C70.899,24.674,70.359,24.574,70.27,24.574z M64.959,29.104c0.09-0.1,0.36,0,0.27,0.1C65.139,29.204,64.959,29.204,64.959,29.104z
	 M60.099,25.384c0,0,0-0.1,0.09-0.1c0.09,0.1,0.09,0.3,0,0.3C60.189,25.484,60.189,25.484,60.099,25.384z M60.549,27.094
	c0.18-0.2,0.36,0.2,0.18,0.3C60.639,27.394,60.459,27.194,60.549,27.094z M56.499,24.374c0.19-0.1,0.1,0.4-0.08,0.5
	C56.329,24.874,56.418,24.374,56.499,24.374z M64.459,7.383c0,0,0.45-0.1,0.09,0.5c-0.09,0.1-0.18,0-0.18-0.1
	C64.369,7.583,64.369,7.583,64.459,7.383z M64.909,9.283c-0.09-0.1,0-0.7,0.09-0.6c0,0,0,0.1,0.09,0.4
	C65.089,9.083,64.999,9.383,64.909,9.283z M65.449,10.693c0.18,0,0.27,0.3,0.09,0.3C65.449,10.993,65.359,10.793,65.449,10.693z
	 M59.059,8.083c0.09,0,0.09,0,0.18,0.1c0,0-0.18,0.1-0.27,0L59.059,8.083z M60.409,10.393c0,0,0.36-0.2,0.36-0.1
	c0,0.1-0.09,0.2-0.27,0.3C60.589,10.693,60.319,10.493,60.409,10.393z M59.059,11.093c0.27-0.1-0.27,0.5-0.36,0.4
	C58.699,11.493,58.969,11.093,59.059,11.093z M60.499,9.893c0,0,0,0.1-0.09,0.1c0,0-0.09-0.2-0.09-0.3L60.499,9.893z M65.809,11.793
	c0-0.2,0.45-0.3,0.45-0.3h0.09c0,0.3-0.18,0.3-0.27,0.5C66.079,11.893,65.899,11.893,65.809,11.793z M69.14,7.983l0.18-0.2
	c0.09,0.1,0.09,0.2,0,0.4C69.319,8.283,69.14,8.183,69.14,7.983z M70.76,9.893c0,0,0.18,0.2,0.09,0.3c0-0.1-0.27-0.1-0.36-0.2h-0.02
	C70.47,9.993,70.76,9.983,70.76,9.893z M66.529,10.393c-0.36,0.3,0.27,0.1-0.09,0.3c-0.09,0-0.27-0.1-0.45,0
	c-0.09,0-0.27-0.3-0.09-0.4h0.45C66.439,10.293,66.619,10.393,66.529,10.393z M67.429,10.693c0-0.1,0.18-0.4,0.18-0.3
	s0,0.2-0.09,0.4L67.429,10.693z M67.609,8.883c0.18-0.2,0.09,0.2,0.36,0.3c-0.09,0-0.09,0.71-0.27,0.81c-0.27,0.2,0-0.81-0.18-0.81
	C67.609,9.083,67.519,8.983,67.609,8.883z M58.699,9.693c0.27-0.21,0.18,0.5-0.09,0.6c-0.09,0,0.09-0.3,0.09-0.3V9.693z
	 M50.228,7.183c0.18-0.2,0.27,0.2,0.27,0.3C50.408,7.583,50.138,7.283,50.228,7.183z M47.258,10.593c0,0-0.09-0.2-0.18-0.2h0.36
	C47.438,10.393,47.438,10.593,47.258,10.593z M51.489,6.783c0.09-0.1,0.09,0.2,0.09,0.2c-0.05,0.12-0.13,0.16-0.18,0.18
	C51.398,7.063,51.409,6.873,51.489,6.783z M49.328,10.493c0.18-0.2,0.18-0.6,0.45-0.7c-0.08,0.06,0.08,1.29-0.27,1
	C49.418,10.793,49.418,10.493,49.328,10.493z M56.989,7.983c0.09,0,0.09,0,0.09,0.3c0,0-0.19,0.2-0.28,0.2
	C56.799,8.383,56.989,7.883,56.989,7.983z M56.168,9.383c0,0,0.27-0.2,0.36,0c0.09,0.1,0.09,0.61,0.09,0.61
	c-0.09-0.1-0.18,0.6-0.27,0.5c0,0,0-0.5-0.09-0.5C56.259,9.793,56.259,9.593,56.168,9.383z M54.639,11.293c0.09-0.1,0.09,0.3,0,0.3
	C54.549,11.693,54.549,11.293,54.639,11.293z M55.358,11.293c0.09,0,0.09,0.1,0.09,0.2c-0.18,0.1,0,0.5-0.36,0.5h-0.18
	c-0.18,0,0-0.2,0-0.2C54.999,11.793,55.269,11.393,55.358,11.293z M53.378,11.193c0,0,0.72-0.3,0.54,0c-0.09,0.1-0.54,0.7-0.27,0.8
	c-0.09,0.1-0.18,0.2-0.36,0.2C53.378,11.893,53.378,11.493,53.378,11.193z M52.389,9.593c0.36,0.1,0.27,0.8,0.09,0.7
	c-0.18,0.5-0.45-0.5-0.45-0.6c0-0.31,0.27,0.1,0.27,0.1S52.299,9.593,52.389,9.593z M47.578,19.364c-0.09,0.1-0.36,0.4-0.45,0.3
	c-0.09,0,0.09-0.3,0.09-0.4c-0.09-0.1-0.27,0-0.36,0c-0.18-0.2,0.09-0.8-0.27-0.4c-0.63-0.3-0.18-0.5-0.18-0.9
	c0-0.1-0.18,0.1-0.27,0.1c-0.09,0.2-0.09,0.4-0.27,0.6c0-0.2-0.09-0.3-0.27-0.5c-0.36-0.5-0.27,0.1-0.45,0.2
	c-0.09,0.1-0.18-0.3-0.18-0.4c0.09,0,0.27-0.1,0.36-0.1c0-0.1-0.09-0.2-0.18-0.2c-0.18,0-0.45,0.1-0.72,0.1c0,0.1-0.09,0.1-0.09,0.2
	c-0.27,0.1-0.54,0.1-0.72,0c-0.18,0.1-0.27,0.3-0.36,0.5c-0.09-0.1,0-0.5-0.27-0.4c-0.09,0-0.09,0.2-0.18,0.1
	c-0.09,0-0.45-0.4-0.54-0.4v0.3c-0.27,0-0.54-0.3-0.81-0.5c-0.09-0.1-0.36,0-0.45-0.1c0-0.11,0.18-0.21,0.18-0.31
	c0.091-0.101,0-0.2-0.09-0.4c0,0,0.45-0.5,0.09-0.5c0,0-0.18,0.3-0.27,0.2c0,0,0.09-0.2,0.09-0.3c-0.36-0.7-0.27,0.4-0.36,0.5
	c-0.36,0.199-0.36-0.301-0.27-0.5c0.09-0.6,0.36-1.4-0.45-1c-0.18,0-0.09-0.1-0.09-0.3c0.27-0.41,1.531-1.81,0.09-1.51
	c-0.09,0.1-0.54,0.7-0.72,0.4c-0.09-0.1,0.09-0.4,0-0.5c-0.09-0.1-0.27,0-0.27-0.2c0.09-0.1,0.09-0.2,0.09-0.3
	c0.18,0,0.27-0.1,0.36-0.2l-0.27-0.2h0.18v-0.4c0.09-0.1,0.18-0.1,0.27,0c0,0.1,0.09,0.3,0.09,0.5c-0.09,0.1-0.09,0.3-0.09,0.4
	c-0.09,0.1-0.18,0.2-0.18,0.3c0.18,0.2,0.45,0.2,0.63,0.1c0.09-0.2,0-0.9,0.18-1c0.09,0,0.27,0.4,0.27,0.4c0.18,0,0.54-0.4,0.72-0.4
	c0.091,0.5,0.45,0.3,0.811,0.6c0.27,0.2,0,0.8,0.45,0.8c0.18,0,0.18-0.3,0.36-0.2c0.09,0.1,0.09,0.3,0.27,0.4
	c0.09,0.1,0.18,0.1,0.27,0.3c-0.09,0-0.27,0.1-0.45,0.1c0,0.2,0.18,0.3,0.27,0.4c0.09,0,0.54,0.11,0.63,0l-0.09-0.1
	c-0.27-0.6,0-0.4,0-0.8c0-0.3-0.27-0.5,0.09-0.7c0.36,0.5,0.36,0.9,0.9,1.4c0,0.1,0.18,0.61,0.09,0.71s-0.27,0-0.36,0.1
	c-0.18,0.1,0.18,0.2,0.09,0.4c0,0,0,0.1-0.09,0.1h0.18c0.09,0.1,0.18,0.2,0.27,0.2c0.18,0.1,0.27,0.4,0.54,0.5
	c0.09-0.2,0.09-0.5,0.36-0.601v0.4c0.27,0.1,0.63,0.2,0.99,0.1c0.09,0.2-0.27,0.301-0.09,0.601c0.36,0.4,0.45-0.101,0.72-0.2
	c0.09,0,0.09,0.4,0.18,0.5c0,0,0.45,0.21,0.45,0.31c0,0-0.27,0-0.27,0.1c-0.09,0.1-0.27,0.7-0.09,0.8c0.27-0.1,0.18,0.4,0.09,0.4
	c-0.09,0.1-0.27-0.2-0.36-0.1C47.038,18.964,47.488,19.264,47.578,19.364z M47.848,22.774c0-0.1-0.72-1.1-0.18-1
	c0.09,0.2,0.45,1.1,0.45,1.3v0.11C47.938,23.384,47.848,22.974,47.848,22.774z M46.948,22.074c0,0,0.09,0,0.09,0.1
	c0,0,0.09,0.1,0.09,0.2h-0.18V22.074z M44.608,18.664c0.09,0.3-0.09,0.2-0.18,0.4c-0.09,0.1,0.09,0.2,0,0.3c0,0.2-0.63,0.1-0.72,0.1
	v-0.6c0,0,0.18,0.3,0.18,0.4c0.27,0.1,0.18-0.6,0.27-0.7C44.338,18.563,44.518,18.563,44.608,18.664z M45.598,19.364
	c0.27-0.2,0.36,0.91,0.36,1.11c0,0-0.36,0.1-0.36,0h0.09c0.09-0.1,0-0.61,0-0.61c-0.18-0.2-0.45,0.1-0.54,0.3
	c0.18,0.71-0.54-0.2-0.27-0.3c0.18-0.1,0.27,0,0.45-0.1L45.598,19.364z M50.008,21.574c-0.17,0.06-0.47,0.12-0.68,0.28l0.02,0.05
	c0.45,0.6-0.09,1.1,0.09,1.3c0.27,0.41-0.18,0.41-0.27,0c0-0.22,0-0.49-0.04-0.74c-0.15-0.04-0.36-0.11-0.47,0.01
	c0.36,0.5,0,0.1-0.27,0c-0.09-0.1-0.09,0.2-0.18,0.2c0,0,0-0.3,0.09-0.3c0.09-0.3-0.09-0.4-0.09-0.6c0-0.1,0.27-0.5,0.36-0.5
	c0.09,0,0.18,0.1,0.27,0.1c0.09,0,0.18-0.2,0.18-0.2c0.36-0.1,0.27,0.4,0.36,0.5C49.558,21.774,50.008,20.974,50.008,21.574z
	 M45.328,21.474c0.09,0.1,0.18,0.1,0.18,0.2c0.36,0.6-0.18,0.6-0.54,0.3c0-0.2,0.45-0.3,0.27-0.5c-0.09-0.2-0.27,0.1-0.27-0.2
	c0.09-0.1,0.27-0.2,0.36-0.1C45.418,21.174,45.328,21.374,45.328,21.474z M44.518,19.664v-0.1c0.09-0.1,0.18-0.1,0.27-0.1v0.2
	H44.518z M55.949,21.974c0.18,0.1,0.27-0.1,0.45-0.1c0.09,0,0.81,0.4,0.9,0.5c0,0.1-0.09,0.5-0.09,0.5c0,0.2-0.09,0.41-0.09,0.51
	c0,0.2,0,0.3,0.09,0.4c-0.18-0.2-0.45-0.4-0.63-0.4c-0.18-0.1-0.27,0.1-0.36,0.1c-0.09,0-0.27,0-0.36-0.1
	c0.09-0.31,0-0.61-0.36-0.61c-0.09,0-0.36,0.41-0.45,0.41c-0.09-0.11,0-0.41-0.45-0.41c-0.27-0.3-0.09-0.5,0.27-0.3v0.3
	c0.09,0,0.27-0.1,0.27-0.2c0-0.6-0.45-0.6-0.45-0.7l0.18-0.2c0,0-0.09-0.2,0-0.3h0.36c0.09,0.1,0,0.3,0.09,0.4
	c0.18,0.3,0.36-0.5,0.54-0.3C55.949,21.574,55.858,21.874,55.949,21.974z M56.759,20.164c0.18-1,0.81,0,1.08,0.41
	c-0.09,0.1-0.27,0.1-0.36,0.1s-0.54-0.1-0.45-0.2c0,0,0.36,0.1,0.27-0.1C57.208,20.164,56.938,20.274,56.759,20.164z M58.019,22.674
	c0-0.1,0.18-0.1,0.18-0.1c0,0.2,0,0.5-0.09,0.61C58.019,22.974,58.019,22.774,58.019,22.674z M53.608,21.774c0.09,0.1,0.27,0,0.36,0
	c0,0.1-0.09,0.2-0.09,0.2c0,0.1,0.09,0.3,0,0.3c-0.18,0-0.36-0.1-0.54,0c-0.09,0-0.09,0.1,0,0.2c0-0.1,0.09-0.1,0.18-0.1
	c0,0.1-0.09,0.2-0.09,0.3c0.09,0.1,0.18,0.3,0.18,0.4c-0.09,0-0.18,0.11-0.18,0.11c-0.09-0.51-0.45-1.21-0.9-1.31
	c-0.09,0-0.27,0.1-0.36,0.1l-0.27-0.6c0.09-0.1,0.18-0.1,0.27-0.1c0.09,0.1,0.18,0.2,0.27,0.2c0.18,0.1,0.27-0.1,0.36-0.2
	c0.09,0.1,0.27,0.2,0.36,0.2c0.09-0.1,0.27-0.2,0.36-0.2C53.519,21.374,53.608,21.574,53.608,21.774z M51.989,19.464
	c-0.18,0.2-0.36,0.3-0.45,0c-0.27-0.6,0.27-0.1,0.36-0.1c0.09-0.1-0.18-0.5-0.27-0.5l-0.72-0.2c-0.451-0.4,0.09-0.3,0.36-0.3
	c0.09,0.1,1.17,0.2,1.17,0.6c0.09,0,0.18,0.1,0.18,0.2c0.09,0.2-0.27,0.3,0,0.5c0.27-0.3,0.09,0,0.27,0.2c0.18,0.1,0.27,0.41,0,0.3
	c-0.36-0.1-0.36-0.4-0.54-0.6C52.259,19.464,52.079,19.464,51.989,19.464z M54.599,21.974c-0.18,0.2-0.45-0.5-0.45-0.6
	c0-0.1,0-0.1,0.09-0.1c0.09,0.1,0,0.2,0.09,0.3C54.418,21.574,54.688,21.874,54.599,21.974z M49.828,19.063v-0.1h0.45
	c0,0,0,0.1-0.09,0.1H49.828z M50.549,19.864v-0.3c0.09,0,0.18,0.1,0.27,0.1C50.818,19.764,50.639,19.864,50.549,19.864z
	 M38.848,14.953c0.45,0,0.18,0.3,0.18,0.7c0.09,0,0.54,0.1,0.54,0.1c0,0.1-0.45,0.3-0.63,0.1
	C38.758,15.553,39.118,15.253,38.848,14.953z M43.528,20.674c-0.27-0.51,0.36-0.2,0.54-0.1c0,0.1-0.27,0.7-0.45,0.5
	c-0.09-0.1,0.27-0.2,0.27-0.2C43.978,20.574,43.618,20.674,43.528,20.674z M47.758,16.153v0.3c0,0.1-0.09,0.1-0.09,0.2v-0.4
	C47.668,16.153,47.758,16.153,47.758,16.153z M49.288,18.964c0-0.2-0.18-0.4-0.18-0.6c-0.09-0.2-0.27-1.41-0.27-1.71
	c0-0.301,0.36,0.199,0.36,0.3c0.09,0.3-0.27,0.81,0.09,1.21c0.18,0.1,0,0.3,0.18,0.4h0.18c0.09,0.3,0.09,0.6,0.09,0.9h-0.45
	C49.198,19.364,49.288,19.063,49.288,18.964z M48.028,18.364v-0.3h0.18c0.09,0.1,0.18,0.2,0.09,0.4
	C48.208,18.563,48.118,18.464,48.028,18.364z M47.938,19.563l0.36-0.2c0.18-0.1,0.09-0.5,0.18-0.6s0.36-0.1,0.45-0.1
	c0,0.2-0.09,0.2-0.18,0.4c0,0.2,0.36,1.1-0.27,1c-0.18-0.3-0.18-0.1-0.45-0.1C48.028,19.864,47.848,19.664,47.938,19.563z
	 M39.748,10.433v0.2h-0.27v-0.1C39.478,10.433,39.658,10.433,39.748,10.433z M41.818,12.243v0.3h-0.27v-0.5
	C41.638,12.043,41.818,12.143,41.818,12.243z M39.298,14.143c0,0.1-0.09,0.2-0.09,0.3c-0.09,0-0.27,0-0.36,0.1
	c0-0.1,0.09-0.1,0.09-0.2L39.298,14.143z M42.808,20.164c0-0.1,0.18-0.1,0.27-0.1v0.41C42.988,20.474,42.808,20.274,42.808,20.164z
	 M43.348,18.864c0.09,0,0.18,0.3,0.18,0.3c-0.09,0.1-0.27,0-0.36,0c0,0.1-0.09,0.8-0.18,0.2v-0.4
	C43.168,18.964,43.258,18.864,43.348,18.864z M41.818,18.063c0.18,0.1-0.27,0.5-0.27,0.2C41.548,18.063,41.728,17.964,41.818,18.063
	z M39.837,13.943c0.36-0.2-0.09,0.5-0.09,0.5C39.118,14.643,39.748,14.143,39.837,13.943z M55.769,20.874c-0.27,0-0.81,0.3-0.81,0
	c0.63-0.3,0.18-0.91,0.54-1.21c0.36,0.2,0.63,0.2,0.54,0.71l-0.27,0.3c0,0,0.18,0.5,0.09,0.5
	C55.858,21.174,55.769,20.974,55.769,20.874z M39.567,14.953c0-0.1-0.18-0.1-0.18-0.2c0.09-0.11,0.18-0.11,0.27-0.11v0.51h-0.27
	C39.478,15.053,39.478,14.953,39.567,14.953z M54.599,20.164c0.09,0.11-0.36,0.91-0.36,0.11
	C54.239,20.063,54.509,19.964,54.599,20.164z M21.727,22.344c0.18-0.3,0.18,0.71-0.09,0.71
	C21.637,22.854,21.637,22.543,21.727,22.344z M19.927,27.364c0-0.1,0.45-0.6,0.36-0.1C20.287,27.464,20.017,27.664,19.927,27.364z
	 M21.007,23.754c0.03-0.13,0.12-0.18,0.2-0.19c0.1-0.26,0.25,0.06,0.41,0.15c0.18,0.1,0.09,0.3-0.09,0.3l-0.2-0.17
	C21.167,24.154,21.086,24.124,21.007,23.754z M18.667,27.164c-0.09,0.301,0.18,0.2,0.27,0.4c-0.09,0.4-0.99-0.5-0.9,0.3
	c0.18,0.2,0.36,0.4,0.54,0.5c0,0.11,0.09,0.31,0.09,0.31c-0.18-0.1-0.54-0.41-0.63-0.1c0,0.1,0,0.1-0.09,0.1
	c-0.09,0-0.54-0.51-0.54-0.41c-0.27,0.31-0.27,0.61-0.36,1.01c-0.18,0.3-0.09-0.1-0.18-0.3c-0.09-0.1-0.63-0.3-0.18-0.5
	c0.63-0.21-0.45-1.411-0.63-0.811c-0.09,0.301-0.18-0.1-0.09-0.199c0.27-0.5-0.18-0.601-0.36-0.201c0,0.1-0.36,0.201-0.27,0
	c0-0.2,0.36-0.6,0-0.7c-0.27,0-0.36,0.4-0.63,0.2s-0.45-0.6-0.18-0.8c0.45-0.3-0.18-0.3-0.36-0.51c0-0.5,0.27,0.1,0.36-0.1
	c0.09-0.1-0.09-0.4-0.09-0.5c0.18-0.5,0.45,0.6,0.72,0.5c0.45-0.2,0.63-0.3,0.81-0.7c0.09-0.1,0.18-0.4,0.27-0.3
	c0.27,0.3-0.18,0.2-0.09,0.4c0,0.4,0.45-0.1,0.54,0.3c-0.09,0.3-0.09,0.71-0.27,1.01c-0.18,0.2-0.54,0.4-0.09,0.5
	c0.18-0.1,1.35-0.6,1.44-0.7s0.63-0.61,0.54-0.71c-0.18-0.1-0.54,0-0.36-0.4c0.09,0,0.27,0.3,0.45,0c0.09-0.3,0.18-0.8,0.18-1.2
	c0.36-0.6,0.9-0.5,0.36,0c-0.27,0.4,0.09,0.5,0.27,0.9c0.18,0.2-0.36,0.1-0.45,0.2c-0.27,0.1-0.09,0.4-0.18,0.7
	c-0.09,0.1-0.27,1.01-0.18,1.21c0.09,0.1,0.36,0.1,0.45,0.1C19.027,26.764,18.757,27.063,18.667,27.164z M13.807,28.164
	c0-0.2,0.18,0,0.18,0.1c0.18,0.41,0,0.51-0.27,0.31C13.716,28.364,13.807,28.364,13.807,28.164z M19.027,25.154
	c0.09-0.2,0.27-0.6,0.45-0.2C19.657,25.454,19.747,25.354,19.027,25.154z M13.986,26.063c0,0.3-0.36,0-0.45-0.1
	c-0.36-0.81-0.72-0.3-1.08-1.01c-0.09-0.3,0.72,0.1,0.72,0.2h0.63c0,0.1-0.181,0.3-0.181,0.61
	C13.716,25.764,13.986,25.964,13.986,26.063z M33.788,26.864c0.45,0.2-0.27,0.5-0.36,0.3C33.518,26.864,33.518,26.864,33.788,26.864
	z M31.897,27.564c0.09-0.1-0.09,0.5-0.27,0.4C31.627,27.864,31.717,27.564,31.897,27.564z M34.778,31.584c0-0.3,0.36-0.81,0.27-0.3
	C34.958,31.484,34.958,31.684,34.778,31.584z M31.717,29.374c0-0.4,0.36-0.3,0.27,0C31.897,29.574,31.717,29.374,31.717,29.374z
	 M32.167,25.664c0-0.21,0.271-0.11,0.271,0C32.348,25.764,32.258,25.764,32.167,25.664z M41.618,30.274c0.18,0.3-0.09,0.5-0.181,0.4
	c-0.09-0.1-0.09-0.4-0.18-0.5C41.348,30.074,41.438,30.174,41.618,30.274z M22.086,26.864c-0.09,0.3,0.27,0.601-0.36,0.5
	C21.816,26.864,22.356,26.563,22.086,26.864z M39.008,31.484c0-0.71,0.9,0.3,0.36,0.9C39.278,32.384,39.098,31.684,39.008,31.484z
	 M37.658,31.784c0.27-0.3-0.09-0.61,0.27-0.71c0.11,0.13,0.16,0.35,0.17,0.56h0.07c0,0.04-0.03,0.09-0.06,0.14v0.21
	C38.018,32.284,37.748,31.884,37.658,31.784z M38.558,28.774c0.18-0.1,0.09,0.3-0.27,0.2C38.288,28.874,38.468,28.774,38.558,28.774
	z M37.028,27.464c0.45,0.6-0.09,1.11,0.09,1.31c0.27,0.4-0.18,0.4-0.27,0c0-0.3,0-0.71-0.09-1.01
	C36.848,27.264,36.938,27.063,37.028,27.464z M23.257,25.764c0.45,0.3,0.36,0.6,0.09,0.4c-0.18-0.1-0.27-0.2-0.451-0.2
	C22.987,25.664,22.987,25.764,23.257,25.764z M24.877,25.864c0.18-0.31,0.45-0.1,0.45,0.2
	C25.327,26.264,25.057,25.764,24.877,25.864z M31.447,28.774c0.27,0,0.09,0.4-0.18,0.3C31.267,28.974,31.267,28.774,31.447,28.774z
	 M22.807,26.364c0.181-0.5,0.181,0.7-0.18,0.7L22.807,26.364z M27.667,27.664c0.27,0.301-0.27,0.301-0.45,0.301
	C27.217,27.764,27.397,27.364,27.667,27.664z M22.086,28.474c0-0.31,0.27-0.91,0.27-0.31C22.447,28.364,22.356,28.674,22.086,28.474
	z M27.757,29.074c0,0,0.18-0.2,0.18-0.1c0,0.2-0.09,0.6-0.27,0.6C27.757,29.374,27.667,29.174,27.757,29.074z M31.447,27.464
	c0.18,0.3-0.09,0.6-0.36,0.399C31.087,27.764,31.267,27.164,31.447,27.464z M30.457,29.074c0.18-0.2,0.18,0,0.18,0.1
	c0.27,0.4-0.36,0.3-0.45,0.1C30.187,28.874,30.277,29.274,30.457,29.074z M27.757,26.464c0.09-0.2,0.36-0.6,0.54-0.4
	C28.387,26.164,27.847,26.364,27.757,26.464z M28.477,28.474c0.09-0.21,0.45-0.51,0.54-0.11
	C29.197,28.974,28.657,28.774,28.477,28.474z M20.197,25.454c0-0.6,0.45-0.1,0.45,0.31l-0.36,0.1c-0.09,0.2-0.27,0.4-0.45,0.2
	C19.927,25.764,20.106,25.764,20.197,25.454z M15.876,23.754c0.09,0.2,0,0.4-0.18,0.3C15.697,23.954,15.787,23.454,15.876,23.754z
	 M22.117,22.674c-0.02-0.08-0.04-0.17-0.05-0.27c0-0.5,0.27,0.4,0.36,0.5c0.12,0.2-0.04,0.32-0.19,0.1
	c-0.04,0.08-0.12,0.15-0.24,0.15C22.057,23.014,22.077,22.774,22.117,22.674z M19.566,23.454c0.09,0.2-0.18,0.5-0.36,0.5
	C19.207,23.954,19.387,23.154,19.566,23.454z M18.217,23.254c-0.09,0.2-0.45,0.2-0.63,0.2
	C17.586,22.854,18.307,22.854,18.217,23.254z M39.368,30.374c0.21,0.08-0.02,0.46-0.21,0.53v0.33c-0.41-0.18-0.3-0.85-0.08-0.54
	C39.147,30.574,39.258,30.434,39.368,30.374z M23.957,19.894c0.9-0.6,0.63,0.4,1.62,0.81c0.36,0.3,0.09,0.9-0.18,1
	c-0.27-0.2-0.45-0.2-0.54-0.4c-0.18-0.2-0.27-0.4-0.27-0.7l0.09,0.1c0.09,0.2,0.09,0.2,0.27,0.2c0.27-0.2-0.36-0.71-0.54-0.71
	c-0.09,0-0.36,0.31-0.45,0.41c-0.09,0.2-0.18-0.21-0.27,0.1c-0.09,0.5-0.36-0.1-0.72,0.1c-0.27,0.3-0.18,0.6-0.63,0.3
	c0-0.4,0-0.3,0.27-0.3c0.18,0,0.09-0.3,0.27-0.41c0.18-0.1,0.451,0.11,0.631,0C23.597,20.293,23.687,19.994,23.957,19.894z
	 M24.227,22.904c0.36-0.3,0.45,0-0.09,0.3C24.137,23.004,24.227,23.004,24.227,22.904z M26.117,22.604c0-0.2,0.18,0,0.18,0.1
	c0.18,0.4,0,0.5-0.27,0.3C26.027,22.804,26.117,22.804,26.117,22.604z M33.317,18.194c0.09-0.3,0.45-0.2,0.36,0
	C33.498,18.594,33.408,18.594,33.317,18.194z M32.508,19.894c0-0.6,0.45-0.1,0.45,0.3l-0.36,0.1c-0.09,0.21-0.271,0.41-0.45,0.21
	C32.237,20.194,32.417,20.194,32.508,19.894z M31.337,19.594c0.09-0.2,0.27-0.6,0.45-0.2C31.967,19.894,32.057,19.793,31.337,19.594
	z M21.977,19.494c0.9-0.5,0.81,0.3-0.18,0.3C21.797,19.594,21.797,19.594,21.977,19.494z M18.917,20.604c0-0.31,0.36,0,0.36,0
	H18.917z M19.367,20.194c0.09-0.2,0.54-0.1,0.45,0.1l-0.18,0.21C19.637,20.194,19.547,20.293,19.367,20.194z M19.097,18.793
	c0.54,0.3-0.27,0.4-0.45,0.4c0-0.2,0.27-0.2,0.18-0.5C18.827,18.494,19.097,18.694,19.097,18.793z M18.017,20.504
	c0.09-0.31,0.72,0.1,0.81,0.4C18.376,21.804,18.106,21.304,18.017,20.504z M19.097,21.504c0.27,0.2-0.18,0.4-0.27,0.3
	C18.827,21.604,19.007,21.504,19.097,21.504z M34.038,16.784c0.18-0.3,0.18,0.7-0.09,0.7C33.948,17.284,33.948,16.984,34.038,16.784
	z M21.437,21.504c0,0.2-0.36,0.3-0.45,0.3c0-0.2,0.18-0.2,0.18-0.4C21.257,21.104,21.437,21.304,21.437,21.504z M20.177,20.194
	c0-0.3,0.18,0,0.27,0.1C20.537,20.604,20.177,20.194,20.177,20.194z M44.028,23.813c0-0.4,0.36-0.3,0.27,0
	C44.208,24.014,44.028,23.813,44.028,23.813z M44.208,22.004c0.09-0.1-0.09,0.5-0.27,0.4C43.938,22.304,44.028,22.004,44.208,22.004
	z M47.088,26.014c0-0.3,0.37-0.8,0.28-0.3C47.278,25.914,47.278,26.114,47.088,26.014z M44.478,20.094c0-0.2,0.27-0.1,0.27,0
	C44.658,20.194,44.568,20.194,44.478,20.094z M51.329,25.914c0-0.7,0.9,0.3,0.36,0.91C51.599,26.824,51.418,26.114,51.329,25.914z
	 M53.938,24.714c0.18,0.3-0.09,0.5-0.18,0.4c-0.09-0.1-0.09-0.4-0.18-0.5C53.668,24.514,53.759,24.614,53.938,24.714z
	 M50.878,23.204c0.181-0.1,0.091,0.31-0.27,0.21C50.608,23.304,50.788,23.204,50.878,23.204z M49.978,26.214
	c0.27-0.3-0.09-0.6,0.27-0.7c0.181,0.2,0.181,0.6,0.181,0.91C50.338,26.724,50.068,26.324,49.978,26.214z M46.098,21.304
	c0.45,0.2-0.27,0.5-0.36,0.3C45.828,21.304,45.828,21.304,46.098,21.304z M37.188,20.293c0.18-0.3,0.45-0.1,0.45,0.21
	C37.638,20.704,37.368,20.194,37.188,20.293z M35.567,20.194c0.45,0.31,0.36,0.61,0.09,0.41c-0.18-0.1-0.27-0.21-0.45-0.21
	C35.298,20.094,35.298,20.194,35.567,20.194z M35.118,20.804c0.18-0.51,0.18,0.7-0.18,0.7L35.118,20.804z M17.927,22.504
	c0-0.2,0.27-0.3,0.36-0.1C18.376,22.504,18.017,22.504,17.927,22.504z M43.758,23.204c0.27,0,0.09,0.41-0.18,0.31
	C43.578,23.414,43.578,23.204,43.758,23.204z M39.978,22.104c0.27,0.3-0.27,0.3-0.45,0.3C39.528,22.204,39.708,21.804,39.978,22.104
	z M42.768,23.514c0.18-0.21,0.18,0,0.18,0.1c0.27,0.4-0.36,0.3-0.45,0.1C42.498,23.304,42.588,23.714,42.768,23.514z M43.758,21.904
	c0.18,0.3-0.09,0.6-0.36,0.4C43.398,22.204,43.578,21.604,43.758,21.904z M40.067,20.904c0.09-0.2,0.36-0.61,0.54-0.4
	C40.698,20.604,40.158,20.804,40.067,20.904z M40.788,22.904c0.09-0.2,0.451-0.5,0.541-0.1
	C41.508,23.414,40.968,23.204,40.788,22.904z M40.067,23.514c0,0,0.18-0.21,0.18-0.1c0,0.2-0.09,0.6-0.27,0.6
	C40.067,23.813,39.978,23.614,40.067,23.514z M11.176,19.793c0-0.2,0.18,0,0.36,0h0.54c0.54-0.1-0.27,0.71-0.45,0.3
	C11.626,19.694,11.266,20.194,11.176,19.793z M14.146,19.293c0.09,0.4,0.27,1-0.271,0.7C13.876,19.793,14.057,18.594,14.146,19.293z
	 M16.847,18.194c0.27,0.1,0.18,0.6-0.18,0.3C16.667,18.394,16.667,18.194,16.847,18.194z M11.626,18.994c0,0.6-0.45,0-0.63-0.2
	C10.996,18.494,11.626,18.694,11.626,18.994z M18.017,19.494c0-0.2,0.18-0.3,0.27-0.3C18.557,19.293,18.106,19.494,18.017,19.494z
	 M9.916,19.994c-0.18-0.4,0.09-1.1-0.27-1.3c-0.09-0.6,0.36-0.1,0.45,0.2c-0.09,0.5,0,0.6,0.09,1
	C10.276,20.194,10.006,20.293,9.916,19.994z M9.646,21.304c0-0.1,0.18-0.6,0.27-0.3C10.096,21.204,9.826,21.404,9.646,21.304z
	 M17.836,19.094c-0.54,0.3-0.18,0.7,0,1.2c-0.09,0.31-0.18,1.51-0.45,1.71c-0.45-0.2,0.36-1.91-0.72-1.3
	c-0.09,0.1-0.18,0.5-0.36,0.4c-0.27-0.2-0.45-0.2-0.63-0.4c-0.18-0.41-0.09-0.1-0.27-0.1c-0.27,0.1-0.45-0.31-0.27-0.51
	c0.36-0.5-0.27-0.1-0.36-0.2c0-0.2,0-0.3,0.18-0.5c0.18-0.1,0.27-0.3,0.54-0.2c0.18,0,0.54,0.1,0.45,0.4
	c-0.18,0.2-0.09,0.5,0.18,0.4c0.09,0,0-0.2,0.09-0.3c0.36-0.2,0-0.3,0.18-0.6c0-0.1,0.36-0.1,0.45,0c0,0.1-0.18,0.2-0.09,0.3
	c0.09,0.2,0.36,0.4,0.45,0.1c0-0.1,0.27-0.9,0.27-0.9c0.09,0,0.09,0.2,0.18,0.3c0.09,0,0.09-0.2,0.18-0.3
	C18.017,18.494,18.017,18.894,17.836,19.094z M31.877,17.894c0.09,0.2-0.18,0.5-0.36,0.5C31.517,18.394,31.697,17.583,31.877,17.894
	z M30.527,17.694c-0.09,0.2-0.45,0.2-0.63,0.2C29.897,17.284,30.617,17.284,30.527,17.694z M51.688,24.813
	c0.27,0.1-0.18,0.7-0.36,0.5C51.329,25.214,51.509,24.914,51.688,24.813z M34.488,17.083c0.18,0.2,0.09,0.5-0.18,0.5
	C34.397,17.384,34.397,16.984,34.488,17.083z M21.437,20.704c0,0.3-0.36,0.2-0.36,0C21.077,20.293,21.347,20.293,21.437,20.704z
	 M18.376,19.894c0-0.3,0.09-0.2,0.27-0.2c0.81-0.1,0.45,0.6,0.18,0.6c-0.09-0.1-0.09-0.3-0.27-0.3
	C18.467,19.994,18.376,20.094,18.376,19.894z M21.167,19.793c0.18-0.1,0.27,0,0.45,0.1c0.09,0-0.09,0.2-0.18,0.2
	C21.347,20.094,21.257,19.793,21.167,19.793z M22.787,19.793c0.09-0.1,0.451,0.1,0.27,0.2c-0.09,0.1-0.27,0.1-0.36,0.1
	C22.697,19.994,22.697,19.894,22.787,19.793z M11.266,22.404c0.09-0.1,0.45-0.3,0.45,0C11.716,22.704,11.356,22.504,11.266,22.404z
	 M11.716,21.904l0.18,0.1l0.09,0.1h-0.72c0-0.3,0.09-0.5,0.18-0.8c0.09-0.3,0.27,0.3,0.27,0.4V21.904z M11.986,20.504l0.27,0.6
	c0.18,0.5-0.81-0.5-0.99-0.5c-0.27,0.1-0.27,0.7-0.63,0.4c-0.09-0.2-0.27-0.2-0.45-0.3c0.09-0.31,1.08-0.51,1.26-0.31
	C11.626,20.504,11.896,20.394,11.986,20.504z M13.066,18.994c0,1.2,0.09,1-0.45,0.6C12.706,19.394,12.706,18.394,13.066,18.994z
	 M16.937,21.404c0.09,0.2-0.18,0.3-0.18,0.6c0.09,0.4-0.36,0.2-0.63,0.1c-0.18,0.1,0,0.2,0,0.3c-0.27,0.2-0.45-0.3-0.45-0.4
	c0.09-0.3,0.27-0.1,0.09-0.4c0-0.2,0-0.6,0.27-0.4c0.09,0-0.09,0.2,0.18,0.3c0.18,0,0.18-0.1,0.36-0.3
	C16.757,20.904,16.847,21.004,16.937,21.404z M14.146,24.014c0.18-0.1,0.63-0.1,0.54,0.1C14.687,24.313,14.237,24.014,14.146,24.014
	z M13.516,20.904c0.09-0.1,0.18,0.1,0.09,0.2c-0.09,0.2-0.36,0.4-0.54,0.4C13.156,21.204,13.246,21.004,13.516,20.904z
	 M13.696,22.604c0.09-0.3,0.45-0.2,0.45,0C14.057,22.804,13.876,22.604,13.696,22.604z M10.186,22.404c0.09,0.1,0.27,0.1,0.27,0.2
	c-0.18,0.3-0.36-0.2-0.54-0.3c0-0.1,0-0.2,0.09-0.2C10.096,22.104,10.186,22.404,10.186,22.404z M9.466,18.694
	c0,0.4-0.27-0.1-0.36-0.2C9.106,18.394,9.466,18.594,9.466,18.694z M57.409,3.773c0-0.3,0.36-0.81,0.27-0.3
	C57.588,3.673,57.588,3.873,57.409,3.773z M61.639,3.673c0-0.71,0.91,0.3,0.36,0.9C61.919,4.573,61.739,3.873,61.639,3.673z
	 M60.289,3.973c0.27-0.3-0.09-0.6,0.27-0.7c0.18,0.2,0.18,0.6,0.18,0.9C60.649,4.473,60.379,4.073,60.289,3.973z M61.999,2.563
	c0.27,0.1-0.17,0.71-0.36,0.5C61.639,2.963,61.829,2.663,61.999,2.563z M43.838,32.544c-0.45,0.5-0.09-0.21,0.09-0.41
	C44.198,31.934,43.928,32.434,43.838,32.544z M51.219,38.964v-0.3c0.09,0.1,0.18,0.2,0.18,0.399
	C51.309,39.064,51.219,39.064,51.219,38.964z M50.769,31.534c0.18,0,0.36,0.1,0.45,0.3c0,0.1-0.09,0.2-0.09,0.4
	c0,0.1-0.18,0-0.18,0.1l-0.18-0.4V31.534z M49.238,34.944v-0.4c0.18,0,0.36,0.1,0.45,0.2v0.2H49.238z M50.138,30.634
	c0,0.1,0,0.2-0.09,0.4h-0.27v-0.1C49.778,30.734,49.958,30.634,50.138,30.634z M50.138,32.034c0-0.1,0.09-0.1,0.18-0.1
	c0,0.4-0.18,0.71-0.18,1.01c-0.09-0.2-0.09-0.3-0.09-0.51C50.048,32.334,50.048,32.134,50.138,32.034z M54.458,32.134
	c0,0.2-0.09,0.3-0.09,0.51c0,0,0.27,0.4,0.18,0.4c-0.18-0.1-0.09-0.4-0.36-0.2c-0.09-0.1-0.54-0.3-0.36-0.51
	c0.09-0.1,0.27,0,0.27-0.2c0.09,0,0.09-0.3,0.09-0.4C54.279,31.734,54.369,32.134,54.458,32.134z M54.188,34.444
	c0.27-0.3,0.45,0.8,0.27,1.01c0,0-0.09-0.1-0.09-0.21C54.369,35.144,54.188,34.444,54.188,34.444z M51.309,33.044
	c0.09-0.1,0.18,0,0.27,0c0,0.2-0.09,0.3-0.18,0.4c0,0.1,0.18,0.2,0.18,0.3c-0.09,0-0.18,0.1-0.27,0.1v0.4c0,0-0.09-0.4-0.09-0.5
	L51.309,33.044z M52.659,33.544c-0.18,0-0.36,0.1-0.54,0.2c0.09-0.3,0.09-0.6,0.27-0.8c0-0.1,0-0.2-0.09-0.2c0,0-0.36-0.2-0.27-0.31
	c0.09,0,0.27,0.11,0.27,0.11c0.09,0,0.18-0.21,0.18-0.11c0.09,0,0.09,0.21,0.09,0.21c-0.09,0.2-0.18,0.2,0,0.4
	c0,0.1-0.09,0.2-0.09,0.2C52.568,33.344,52.659,33.444,52.659,33.544z M52.838,35.854c0.09,0.1,0.27,0.2,0.27,0.4h-0.27V35.854z
	 M53.739,34.244h0.18l-0.09,0.4c0,0.2,0.09,0.2,0.09,0.3v0.41c-0.18-0.11,0-0.91-0.45-0.81c0,0.1-0.18,0.2-0.18,0.3
	c0,0.2,0.09,0.2,0,0.4c-0.18,0.21-0.72,0.21-0.63-0.3c0.09-0.1,0.36-0.6,0.27-0.1c0,0.1-0.18,0.1-0.18,0.2
	c-0.09,0.31,0.36,0.2,0.45,0.1C53.289,34.744,53.289,34.344,53.739,34.244z M47.888,36.754c0-0.4,0.81-0.5,0.81,0.1
	c0,0.1-0.09,0.1-0.27,0.1C48.248,36.654,48.248,36.754,47.888,36.754z M45.188,39.564c0.09,0,0.27,0,0.27,0.1v0.3
	c-0.09,0-0.18-0.1-0.27-0.1V39.564z M45.188,33.844c0,0.3,0.45,0.4,0.54,0.6c0.09,0.3-0.27,1.01-0.54,0.91
	c-0.09-0.21,0-0.51-0.09-0.71c0,0-0.27-0.2-0.18-0.4c0.09,0,0.18,0,0.18-0.1s-0.09-0.1-0.09-0.2l-0.18,0.2c0,0-0.27,0-0.27-0.1
	c-0.09-0.1,0.36-0.5,0.27-0.6c-0.27-0.3-0.36-0.1-0.27-0.6c-0.09,0-0.18-0.3-0.18-0.3h0.09c0.18,0.1,0.36,0.1,0.54-0.11
	c0.18-0.1,0.18-0.4,0.27-0.6c0.27,0,0,0.3,0.09,0.5c0.09,0,0.45,0.1,0.27,0.21c0,0.1-0.27,0-0.36,0.1c-0.09,0.2,0,0.4,0,0.6
	c-0.09,0.3-0.27,0-0.36,0.1c-0.18,0.2,0.18,0.2,0.27,0.1C45.278,33.644,45.188,33.744,45.188,33.844z M46.448,33.144
	c-0.09,0.3-0.45-0.1-0.54-0.3c-0.09-0.1,0.18-0.3,0.27-0.51L46.448,33.144z M43.928,35.244v0.31c0.09,0.2-0.09,0.2-0.27,0.2
	C43.568,35.754,43.838,35.244,43.928,35.244z M44.468,33.644c-0.81,1.81,0.45,1,0.27,2.21c-0.36,0-0.99-1.51-0.81-1.81l0.36-0.2
	c0-0.4-0.18,0-0.27-0.2c-0.09,0,0.09-0.4,0.18-0.4C44.378,33.144,44.468,33.544,44.468,33.644z M46.538,37.654
	c0.09,0.1,0.09,0.1,0.18,0.1c-0.09,0-0.27,0.1-0.36-0.1c0-0.1,0.09-0.2,0.09-0.3h0.18C46.628,37.454,46.538,37.554,46.538,37.654z
	 M55.179,34.844c0,0.1-0.09,0.1-0.09,0.1c0,0.1,0.09,0.2,0.09,0.3l-0.54,0.31v-0.31c0.09-0.1,0.18-0.3,0.09-0.5c0,0,0-0.1-0.09-0.2
	c0.09,0,0.18-0.1,0.27-0.1c0,0.1,0,0.3,0.18,0.4H55.179z M48.698,31.234c0.09,0.1,0.18,0.1,0.18,0.2c0,0.2,0,0.4-0.09,0.6
	c-0.09-0.1-0.18-0.2-0.18-0.3C48.518,31.534,48.698,31.434,48.698,31.234z M47.528,30.634v-0.2h0.18v0.3
	C47.618,30.634,47.528,30.734,47.528,30.634z M49.238,36.654c0.09,0.1,0.45,0.3,0.27,0.6h-0.27c-0.09,0.2-0.09,0.2,0-0.1
	c0.09-0.3-0.18-0.5-0.18-0.7c0-0.2,0-0.2,0.09-0.2C49.328,36.254,49.148,36.454,49.238,36.654z M46.448,34.844
	c-0.09-0.1,0-0.3-0.09-0.4c0-0.1-0.27-0.3-0.18-0.3c0.09-0.1,0.27,0,0.36,0c0.09,0.3,0.09,0.5,0.09,0.7H46.448z M46.988,35.654
	c0.27,0,0.36,0.3,0.36,0.5c-0.18,0-0.27-0.1-0.27-0.2C46.988,35.854,46.988,35.754,46.988,35.654z M50.408,34.044
	c-0.09-0.3,0.271-0.4,0.36-0.2C50.858,34.144,50.588,34.444,50.408,34.044z M65.529,38.054c-0.09-0.1-0.09-0.2-0.09-0.4l0.27,0.3
	v0.41C65.619,38.264,65.529,38.164,65.529,38.054z M64.539,33.844c0.09,0.1,0.36,0.3,0.18,0.4l-0.36,0.1
	C64.269,34.244,64.359,33.844,64.539,33.844z M63.459,37.354c-0.09-0.1,0-0.2,0.09-0.2l0.18,0.8c-0.18,0-0.27,0-0.27-0.2V37.354z
	 M55.628,34.044c0.09,0.1,0.45,0.4,0.45,0.5c0,0.1-0.09,0.2-0.09,0.3v0.2c-0.09,0-0.45-0.2-0.54-0.3
	C55.628,34.544,55.719,34.344,55.628,34.044z M61.299,33.244c0,0.4,0.36,0.3,0.45,0.5c0,0.1-0.72-0.1-0.72-0.2
	C61.029,33.244,61.659,32.944,61.299,33.244z M65.619,37.354c0,0.7-0.63-1.1,0.09-0.5C65.709,37.054,65.619,37.154,65.619,37.354z
	 M74.8,32.544c0.09,0.1,0.09,0.2,0.09,0.3c-0.18,0-0.27-0.1-0.27-0.2h-0.09C74.62,32.644,74.709,32.544,74.8,32.544z M65.799,36.254
	c0,0,0.27-0.7,0.36-0.7C66.159,35.654,66.069,36.354,65.799,36.254z M69.76,36.854c0.09,0,0,0.3,0,0.3c-0.09,0,0.09-0.2-0.36-0.4
	c0-0.1-0.271,0-0.271-0.1s0.181-0.3,0.181-0.3c0-0.2-0.181-0.3-0.181-0.5c0-0.2,0.271,0.2,0.271,0.3
	C69.49,36.654,69.399,36.554,69.76,36.854z M69.31,30.534c-0.181,0-0.181-0.1-0.271-0.2c-0.09,0.1-0.18,0.2-0.36,0.2v-0.3h0.63
	V30.534z M66.159,37.054v-0.2h0.27v0.2H66.159z M68.499,31.834l0.18,0.5c0,0.1-0.09,0.21-0.18,0.31c0,0.1,0.09,0.3,0,0.4
	c-0.09,0-0.09-0.1-0.09-0.1C68.229,32.644,68.139,31.934,68.499,31.834z M61.929,36.754c0.09-0.1,0.18-0.2,0.36-0.1
	c0,0.1,0,0.3-0.09,0.4h-0.27V36.754z M61.479,34.244v-0.3h0.09v0.3C61.569,34.244,61.479,34.344,61.479,34.244z M58.418,37.754
	c0,0.1,0,0.2-0.09,0.3c-0.09,0-0.18-0.1-0.27-0.1v-0.2H58.418z M58.329,38.964v-0.1c0.09,0,0.27,0.1,0.36,0.1c0,0.1,0,0.3-0.09,0.4
	L58.329,38.964z M56.438,33.244l0.18,0.1c-0.18,0.3-0.18,0.6-0.27,0.9C56.079,34.244,56.259,33.344,56.438,33.244z M56.619,37.854
	c0-0.1,0.18-0.5,0.36-0.2v0.71c0,0.1-0.27,0-0.27,0.1C56.168,38.764,56.529,38.164,56.619,37.854z M57.608,35.954
	c0.09,0,0.18,0,0.18,0.1s0.09,0.2,0.09,0.3h-0.18l-0.09-0.1V35.954z M58.239,31.134c-0.09,1-0.09,0.3-0.36,0
	C57.969,30.934,58.329,30.734,58.239,31.134z M60.039,34.344c0.09-0.1,0.72-0.1,0.27,0.1c0,0.1,0.09,0.6,0,0.6
	S59.949,34.444,60.039,34.344z M60.939,34.044c0.09,0,0.09-0.1,0.18-0.2h0.18v0.2H60.939z M59.589,33.044l0.18-0.4h0.181
	c0,0,0,0.1-0.091,0.2L59.589,33.044z M59.229,33.444c0.18,0,0.63,0.2,0.45,0.3c-0.45,0.3-0.99-0.7-0.99,0.2
	c-0.09,0-0.27-0.3-0.18-0.4C58.599,33.344,59.139,33.544,59.229,33.444z M60.309,37.354c0.09,0,0.09,0.1,0.09,0.3
	C60.399,37.554,60.309,37.454,60.309,37.354z M60.399,38.054c0,0-0.18,0.11-0.18,0c0-0.1,0.18-0.2,0.18-0.3V38.054z M53.918,31.334
	v0.3h-0.18C53.739,31.434,53.829,31.234,53.918,31.334z M24.027,32.134c0,0.1-0.45,0.3-0.45,0.2c0-0.2,0.18-0.2,0.27-0.4
	c0-0.1,0-0.9,0.27-0.9c0.09,0,0.27,0.3,0.18,0.4l-0.27-0.1C24.027,31.634,24.207,31.834,24.027,32.134z M20.066,34.644
	c0.09,0.1-0.36,0.4-0.36,0.2C19.707,34.744,19.977,34.344,20.066,34.644z M23.577,30.834c0.09,0.1-0.18,0.4-0.18,0.2v-0.4
	C23.397,30.634,23.577,30.734,23.577,30.834z M30.237,32.034c-0.09,0-0.27,0.1-0.27,0v-0.2h0.27V32.034z M36.368,33.044h-0.27
	c-0.09-0.1,0-0.2,0-0.3h0.18C36.368,32.844,36.368,32.944,36.368,33.044z M20.517,36.954c-0.09-0.2,0.36-0.6,0.45-0.5
	c0.09,0.2-0.54,0.8-0.63,0.8C20.336,37.154,20.427,37.054,20.517,36.954z M25.287,36.054c-0.09-0.2-0.09-0.3,0-0.5h0.27
	c0,0.2-0.09,0.3-0.09,0.4c-0.09,0.1-0.09,0.2-0.09,0.2C25.287,36.254,25.287,36.154,25.287,36.054z M23.937,33.644
	c0.09,0,0.18-0.3,0.27-0.3c0,0,0.18,0.2,0.18,0.3s-0.27,0.2-0.27,0.4c-0.27,0-0.72-0.1-0.81,0.3c-0.09,0,0.09,0.8-0.09,0.8
	c0,0-0.27-0.4-0.361-0.4c-0.36-0.5,0.091-1.8,0.721-2C23.577,32.944,23.757,33.544,23.937,33.644z M21.417,35.854
	c0-0.61,0.36-0.5,0.36-0.2C21.687,35.754,21.417,35.954,21.417,35.854z M39.968,33.644c-0.09-0.1-0.27-0.2-0.18-0.2
	c0.09-0.1,0.45,0.2,0.54,0.2c0,0.3-0.09,0.4-0.18,0.6c-0.18,0-0.18-0.1-0.09-0.3C40.058,33.844,40.147,33.744,39.968,33.644z
	 M19.887,36.154c0-0.2,0.18-0.3,0.27-0.2C20.336,36.154,19.977,36.454,19.887,36.154z M22.227,36.254v-0.1c0.09,0,0.18,0,0.27,0.1
	l-0.09,0.1C22.316,36.354,22.316,36.354,22.227,36.254z M44.558,30.734c-0.18,0-0.09-0.8,0-0.5
	C44.558,30.334,44.918,30.934,44.558,30.734z M45.278,31.534c-0.09,0.1-0.27,0.2-0.36,0.1c0-0.1,0.09-0.2,0.09-0.3
	c0.09,0,0.09-0.2,0.09-0.2C45.188,31.234,45.278,31.434,45.278,31.534z M50.769,32.944v0.4h-0.181c0.091-0.1,0.091-0.3,0.091-0.4
	H50.769z M45.638,30.934c-0.09,0.1-0.09,0.3-0.27,0.3v-0.3H45.638z M53.108,30.134v0.4h-0.27v-0.1
	C52.838,30.334,53.019,30.234,53.108,30.134z M54.999,33.944c-0.09,0-0.09-0.1-0.09-0.1v-0.3c0.09,0.1,0.18,0,0.18,0.2
	C55.088,33.844,54.999,33.844,54.999,33.944z M42.128,33.344c0-0.1,0.09-0.2,0.27-0.3c0.09,0.1,0.09,0.2,0,0.3H42.128z
	 M25.827,34.244l0.27,0.2c-0.09,0.2-0.27,0.3-0.27,0.4c0,0.2,0.27,0.1,0.18,0.2c-0.09,0.1-0.18,0-0.27,0.1
	c-0.09,0-0.72,0.41-0.81,0.31c-0.09-0.1,0.18-0.51,0.27-0.51c0.09,0,0.09,0.3,0.18,0.2v-0.4c0.09,0,0.27,0.2,0.36,0.1
	c0.09-0.1-0.18-0.2-0.18-0.3l0.18-0.7h0.27L25.827,34.244z M40.958,33.444c0,0-0.18,0-0.18-0.1v-0.1h0.36L40.958,33.444z
	 M42.218,32.134c-0.09,0-0.18-0.1-0.18-0.2v-0.1C42.128,31.834,42.218,31.934,42.218,32.134z M40.238,33.144
	c-0.18,0-0.27,0.1-0.45,0.1c0,0,0.09-0.1,0.09-0.2l-0.09-0.1l0.27-0.2C40.058,32.944,40.147,33.044,40.238,33.144z M42.848,31.634
	c0,0-0.09,0.1-0.09,0.2c-0.09,0-0.09-0.1-0.18-0.1v-0.4L42.848,31.634z M42.758,34.344c-0.09-0.1-0.18,0-0.18-0.2v-0.2h0.18V34.344z
	 M42.218,34.444c0.27,0.7,0.54-0.4,0.72,0.2v0.5c0,0-0.18-0.3-0.27-0.3l-0.09,0.2c-0.09,0.1-0.18-0.2-0.27-0.2
	c-0.27,0.1-0.36,0.61-0.63,0.3c-0.09-0.1-0.18-0.2-0.18-0.3c-0.09-0.3,0.18-0.2,0.27-0.4c0.09-0.1-0.09-0.3,0-0.4h0.27
	c0,0.1-0.36,0.9,0,0.8C42.128,34.744,42.038,34.444,42.218,34.444z M38.258,34.344l0.18-1h0.36c0,0.4-0.27,0.2-0.27,0.5
	c-0.09,0.3,0.45,0.6-0.09,0.8h-0.27v-0.1C38.078,34.344,38.258,34.444,38.258,34.344z M39.788,33.944v0.1h-0.45v-0.2
	C39.518,33.844,39.607,33.944,39.788,33.944z M37.627,32.744c0-0.1,0.09-0.2,0.27-0.2c0,0.1,0,0.2-0.09,0.3h-0.18V32.744z
	 M38.258,37.754h0.18c0.09,0.2-0.09,0.3-0.18,0.41V37.754z M43.208,31.034h0.09c0,0.2,0,0.4,0.09,0.6l-0.27-0.3
	C43.118,31.234,43.118,31.134,43.208,31.034z M42.488,37.454c-0.09-0.1,0-0.3,0.09-0.4h0.36l-0.27,0.5
	C42.578,37.554,42.488,37.554,42.488,37.454z M41.048,35.954c1.08,0.1,0.36,1.1,0.09,0.4C41.048,36.254,41.048,36.054,41.048,35.954
	z M40.958,35.044l0.09,0.2c-0.09,0-0.18-0.3-0.27-0.4l-0.18,0.2c-0.36,0-0.63,0.1-0.99,0.1h-0.09v-0.2h0.9
	C40.598,34.744,40.868,34.744,40.958,35.044z M42.398,36.254c0.09,0,0.27-0.1,0.27-0.1c0.09-0.1,0-0.4,0-0.5
	c0.27-0.3,0.27,0.6,0.18,0.9C42.758,36.554,42.398,36.454,42.398,36.254z M40.058,36.754c0.09-0.1,0.09-0.4,0.27-0.2
	c0,0.3-0.09,0.4-0.36,0.4h-0.09L40.058,36.754z M30.057,35.954v-0.2h0.27v0.3C30.237,36.054,30.057,36.054,30.057,35.954z
	 M26.637,36.654c0.18-0.1,0.18,0.2,0.18,0.3c-0.09,0-0.18,0.1-0.18,0V36.654z M30.777,37.854v-0.3c0.09,0,0.18,0.1,0.27,0.1
	C30.957,37.754,30.867,37.854,30.777,37.854z M28.977,32.744c0.18,0.1,0.27,0.1,0.27,0.3c-0.09,0-0.09,0-0.18,0.1
	c0-0.1,0-0.1-0.09-0.2V32.744z M33.208,35.854c0.18,0.1,0,0.2-0.18,0.2c-0.09-0.1-0.18-0.1-0.27-0.1c-0.18-0.1-0.18-0.2-0.18-0.4
	c0.36,0,0.09,0.1,0.27,0.2C32.938,35.854,33.208,35.754,33.208,35.854z M29.247,37.254c0-0.1,0-0.9,0.18-0.7
	C29.517,36.654,29.517,37.954,29.247,37.254z M30.057,33.044c0.18,0.2-0.36,0.1-0.45,0v-0.1
	C29.697,32.944,29.967,32.944,30.057,33.044z M34.647,36.254c0.1,0,0.19,0.1,0.28,0.2v0.2c-0.09,0-0.18-0.1-0.28-0.2V36.254z
	 M33.028,34.244c0.27-0.2,0.18,0.2,0.27,0.2c0.36,0.4-0.27,0.7-0.63,0.8l-0.27,0.11c-0.09,0,0.09-0.21,0.09-0.31
	c0,0-0.361-0.4-0.18-0.6c0.09-0.1,0.18,0.5,0.18,0.5h0.27c0-0.1-0.09-0.5-0.09-0.5l0.27,0.1
	C33.028,34.544,33.028,34.244,33.028,34.244z M36.188,35.954c0,0.1,0.54,0.2,0.18,0.3c-0.18-0.1-0.45-0.2-0.45-0.5
	c0-0.1,0.18-0.4,0.27-0.2C36.278,35.554,36.098,35.854,36.188,35.954z M36.817,32.434c0.18,0,0.09,0.41,0.09,0.61
	c0,0-0.09,0.4-0.18,0.3s0.09-0.4,0.09-0.6C36.728,32.644,36.728,32.544,36.817,32.434z M33.748,37.854c0-0.4,0.45-0.4,0.73-0.4
	C34.478,37.654,33.928,37.854,33.748,37.854z M37.448,33.744c0.09,0,0.45,0.2,0.36,0.3h-0.18c-0.18,0.1-0.09,0.4-0.27,0.4
	c-0.09,0-0.09,0-0.09-0.1C37.268,34.144,37.357,33.944,37.448,33.744z M35.198,34.744v-0.1c0.18-0.1,0.36-0.2,0.45-0.2v0.4
	C35.558,34.844,35.377,34.844,35.198,34.744z"/>
</svg>
