<?xml version="1.0" encoding="utf-8"?>
<!-- Generator: Adobe Illustrator 16.0.0, SVG Export Plug-In . SVG Version: 6.00 Build 0)  -->
<!DOCTYPE svg PUBLIC "-//W3C//DTD SVG 1.0//EN" "http://www.w3.org/TR/2001/REC-SVG-20010904/DTD/svg10.dtd">
<svg version="1.0" id="Layer_1" xmlns="http://www.w3.org/2000/svg" xmlns:xlink="http://www.w3.org/1999/xlink" x="0px" y="0px"
	 width="42px" height="48px" viewBox="0 0 42 48" enable-background="new 0 0 42 48" xml:space="preserve">
<path fill-rule="evenodd" clip-rule="evenodd" d="M22.851,2.02c0.09-0.09,0.18-0.45-0.09-0.36C22.761,1.66,22.491,2.29,22.851,2.02z
	 M27.811,14.37c0.09-0.09,0.18-0.45-0.09-0.36C27.721,14.01,27.451,14.64,27.811,14.37z M39.149,36.47c0,0,0.06,0,0.12,0.02
	l-0.06-0.06L39.149,36.47z M28.971,13.95l-0.09-0.45c-0.08-0.02-0.15-0.03-0.18-0.03c0,0.18-0.09,0.27-0.09,0.45
	c0,0,0.27,0.54,0.27,0.18C28.88,13.99,28.911,13.98,28.971,13.95z M28.871,13.43l0.01,0.07h0.02L28.871,13.43z M30.361,36.02
	c-0.01,0.09,0.06,0.19,0.14,0.3C30.521,36.14,30.541,36.05,30.361,36.02z M39.47,36.84c-0.04-0.1-0.09-0.19-0.14-0.27
	c-0.1,0.35-0.71,0.26-0.63,0.08c-0.31-0.12,0.04-0.3,0.31-0.39c-0.26-0.15-0.59-0.18-0.99-0.09c-0.65,0.15-1.35,0.31-2.009,0.26
	c-2.05-0.17-3.73-1.64-4.22-3.57c0,0-0.08-0.14-0.14-0.46c-0.05,0.01-0.11,0-0.18-0.05c-0.08-0.1,0.02-0.18,0.12-0.26h0.02
	c-0.02-0.12-0.02-0.25-0.03-0.4l-0.03,0.03c0.06,0.28-0.38,0.13-0.36,0.04c-0.08-0.1,0.209-0.24,0.13-0.34
	c-0.13-0.38-0.45,0.03-0.55,0.11c-0.08-0.11-0.31-0.41-0.21-0.49c0.01-0.09,0.25,0.13,0.34,0.14c0.1-0.08,0.04-0.27,0.05-0.36
	c0.2-0.15,0.7,0.19,0.39-0.22c0.14-0.25,0.25-0.31,0.35-0.29l0.05-0.27c-0.05-0.04-0.09-0.08-0.13-0.13c0.06,0.01,0.11,0,0.15-0.01
	c0.07-0.33,0.16-0.7,0.27-1.09c0.13-0.46,0.27-0.85,0.42-1.19c-0.08-0.11-0.2-0.2-0.32-0.28c0.1-0.08,0.44,0.06,0.39-0.22
	c0.01-0.09-0.17-0.12-0.07-0.2c0.01-0.08,0.41-0.4,0.43-0.48l-0.27-0.04c0.03-0.27,0.34-0.5,0.55-0.75c0.1-0.07,0.04-0.35,0.15-0.43
	c0.08,0.01,0.15,0.2,0.24,0.21c0.08,0.1,0.18,0.03,0.36-0.04l-0.13,0.53c0.36-0.24,0.62-0.27,0.62-0.27l-4.02-8.88
	c-0.03,0.13-0.29,0.31-0.51,0.31l-0.09-0.36c-0.18-0.09-0.36-0.27-0.18-0.45c0.27,0.09,0.27,0.27,0.54,0.36
	c0.09,0,0.15,0.01,0.19,0.03l-0.96-2.13c0,0.04-0.01,0.08-0.04,0.11c-0.09,0.18-0.18-0.36-0.18-0.36c0.05,0,0.09,0.02,0.13,0.05
	l-0.2-0.44c-0.04,0.03-0.08,0.05-0.11,0.06l0.18,0.87c-0.09,0.09-0.09,0.36-0.09,0.45c-0.09,0.18-0.36-0.09-0.45-0.18
	c-0.26-0.09-0.17,0.18-0.35,0.27c-0.36-0.09,0.44-0.99-0.27-0.9c-0.18,0.18-0.36,0.36-0.45,0.54c-0.09,0-0.27,0.09-0.27,0.09
	c0.09-0.18,0.36-0.54,0.09-0.63c-0.09,0-0.09,0-0.09-0.09c0-0.09,0.45-0.54,0.36-0.54c-0.27-0.27-0.54-0.27-0.9-0.36
	c-0.26-0.18,0.09-0.09,0.27-0.18c0.09-0.09,0.27-0.63,0.45-0.18c0.18,0.63,1.25-0.45,0.72-0.64c-0.27-0.09,0.09-0.18,0.18-0.09
	l0.06,0.04l-0.89-1.97c-0.27,0.09-0.32-0.08-0.16-0.32h0.01l-2.439-5.4h-0.02l-0.03-0.11l-0.13-0.29c-0.13-0.09-0.24-0.22-0.16-0.35
	l-0.49-1.08v0.02c-0.09,0.18-0.36-0.09-0.45-0.18c-0.27-0.09-0.18,0.18-0.36,0.27c-0.35-0.09,0.45-0.99-0.26-0.9
	c-0.18,0.18-0.36,0.36-0.45,0.54c-0.09,0-0.27,0.09-0.27,0.09c0.09-0.18,0.36-0.54,0.09-0.63c-0.09,0-0.09,0-0.09-0.09
	c0-0.09,0.45-0.54,0.36-0.54c-0.27-0.27-0.54-0.27-0.9-0.36c-0.27-0.18,0.09-0.09,0.27-0.18c0.09-0.09,0.27-0.64,0.45-0.18
	c0.09,0.31,0.41,0.2,0.63-0.02c-0.18-0.35-0.62-0.73-0.95-0.74c-0.34-0.01-0.85,0.37-1.04,0.72c-1.109,2.05-2.199,4.13-3.25,6.22
	c0.37,0.15,0.71,0.42,0.8,0.73c-0.18,0-0.72,0.18-0.81,0.36c0,0.09,0.27,0.18,0.27,0.27c0,0-0.18,0.18-0.27,0.18
	s-0.18-0.27-0.35-0.27c0-0.14,0.02-0.35-0.01-0.52l-0.17,0.35c-0.18,0.36-0.17,1.03,0.05,1.36c0.09,0.14,0.17,0.28,0.24,0.42
	l0.06,0.02v0.12c1.23,2.67-0.74,5.67-3.37,5.68c-0.72,0-1.18,0.36-1.52,1.03c-1.71,3.34-3.44,6.66-5.189,9.98
	c-0.42,0.8-0.35,1.39,0.44,1.91c0.909,0.6,1.189,1.65,0.75,2.53c-0.45,0.92-1.51,1.34-2.53,0.91c-0.82-0.35-1.34-0.16-1.75,0.63
	l-1.02,1.94c0.1,0.11-0.04,0.33-0.04,0.33l-0.11-0.04c-1.02,1.94-2.04,3.87-3.06,5.82c-0.52,1-0.37,1.44,0.63,1.96
	c6.53,3.35,13.449,5.09,20.798,5.36c2.93-0.33,5.87-0.55,8.779-1c3.66-0.56,7.159-1.76,10.549-3.28c0.93-0.41,1.149-0.82,0.78-1.67
	C41.07,40.3,40.26,38.57,39.47,36.84z M17.421,38.91l-0.34-0.03c0.03,0.07,0.08,0.14,0.08,0.2c-0.09,0-0.27,0-0.36,0.18v0.09
	c-0.09,0-0.09-0.09-0.09-0.09c-0.09,0-0.18,0.09-0.27,0.09l-0.27-0.54h0.27c0.09,0.09,0.27,0.18,0.45,0.09c0,0,0.04,0,0.1-0.03
	c-2.55-0.35-4.5-2.56-4.41-5.11c0.1-2.72,2.29-4.91,4.859-4.95h0.31c0.14,0.01,0.27,0.02,0.41,0.04c0.12-0.17,0.06-0.22,0.43-0.15
	c0-0.09,0.27-0.18,0.27-0.18v0.09c-0.06,0.13-0.08,0.25-0.03,0.37c0.29,0.08,0.56,0.18,0.83,0.3c-0.04-0.08-0.05-0.16,0-0.22
	c0.09,0,0.181,0.09,0.271,0.09c0,0.1,0.18,0.1,0.18,0.1c-0.06,0.05-0.15,0.11-0.23,0.14l0.22,0.13h0.19v0.11
	c1.47,0.96,2.41,2.63,2.29,4.46C22.411,36.88,20.091,39.05,17.421,38.91z M17.751,28.81h-0.31c0.02-0.06,0.04-0.11,0.08-0.11
	C17.562,28.66,17.651,28.73,17.751,28.81L17.751,28.81z M24.881,17.47c-0.02,1.41-1.08,2.49-2.46,2.49
	c-1.41,0.01-2.529-1.15-2.489-2.59c0.029-1.37,1.169-2.47,2.529-2.44C23.831,14.96,24.901,16.07,24.881,17.47z M30.531,42.53
	c-0.05,0.78-0.51,1.36-1.44,1.39c-0.93,0.03-1.46-0.51-1.53-1.43c-0.05-0.64,0.3-1.2,0.82-1.46c0.05-0.15,0.13-0.3,0.18-0.24
	c0,0-0.04,0.1-0.04,0.18c0.07-0.03,0.15-0.06,0.24-0.07c0.03-0.11,0.04-0.25,0.1-0.34c0.27,0.09,0.36,0.2,0.35,0.31
	C29.951,40.95,30.521,41.61,30.531,42.53z M23.811,46.37c-0.09-0.27,0.27-0.36,0.27-0.27C23.991,46.19,23.811,46.55,23.811,46.37z
	 M25.781,40.05c0-0.09-0.09-0.09-0.09-0.09c0-0.18,0-0.27,0.18-0.27c0.04,0,0.12,0.05,0.19,0.1c-0.02-0.06-0.06-0.11-0.06-0.16
	c0.02-0.09,0.04-0.27,0.14-0.34c0.25,0.12,0.53,0.07,0.58-0.29c0.01-0.09-0.31-0.41-0.3-0.5c0.1-0.07,0.36,0.05,0.42-0.4
	c0.3-0.23,0.45-0.03,0.23,0.31l-0.27-0.04c-0.01,0.09,0.05,0.28,0.14,0.29c0.54,0.08,0.59-0.37,0.68-0.36l0.16,0.2
	c0,0,0.19-0.06,0.26,0.04L28,38.9c-0.1,0.07-0.27-0.04-0.37,0.04c-0.29,0.14,0.4,0.42,0.2,0.57c-0.1,0.08-0.36-0.05-0.46,0.03
	c-0.11,0.17,0.05,0.28,0.03,0.46c-0.01,0.09-0.46,0.76-0.56,0.84c-0.09-0.02-0.43-0.15-0.43-0.15c-0.18-0.03-0.35-0.14-0.43-0.15
	c-0.18-0.02-0.27-0.04-0.369,0.04c0.129-0.1,0.269-0.25,0.359-0.39C25.911,40.14,25.841,40.05,25.781,40.05z M22.911,46.37
	c0,0-0.27,0.09-0.27,0c-0.09-0.18,0.63-0.27,0.63-0.18c0,0.09,0,0.18,0.09,0.27C23.271,46.46,23.001,46.28,22.911,46.37z
	 M23.721,44.75c0.18,0.18-0.18,0.36-0.27,0.18C23.451,44.84,23.631,44.66,23.721,44.75z M23.541,45.47c0-0.09,0-0.36,0.18-0.18
	c0.18,0.09,0.27-0.27,0.45-0.36c0.06-0.07,0.08-0.09,0.08-0.08c0.01,0-0.02,0.08,0.1,0.08c0.09,0.18-0.36,0.36-0.36,0.36l-0.09,0.18
	C23.811,45.47,23.451,45.56,23.541,45.47z M25.781,42.4c-0.09,0,0.27-0.09,0.18,0.18c-0.09,0-0.18,0.09-0.27,0.09
	C25.781,42.58,25.781,42.4,25.781,42.4z M26.141,40.69c0.09,0.18-0.36,0.09-0.45-0.1C25.69,40.5,26.141,40.59,26.141,40.69z
	 M25.871,47.54c0,0-0.45-0.36-0.36-0.36c0.09-0.09,0.18-0.09,0.27-0.09C26.051,47,25.96,47.63,25.871,47.54z M25.331,44.38
	c-0.09,0.09-0.271,0.09-0.271,0c0.09,0,0.09,0,0.181-0.09C25.241,44.29,25.331,44.29,25.331,44.38z M3.103,38.78
	c0,0,0.36,0.27,0.09,0.27c-0.09,0-0.989-0.27-0.54-0.45c-0.09-0.18,0.54-0.27,0.63,0.09C3.283,38.78,3.103,38.78,3.103,38.78z
	 M2.203,41.58c-0.26-0.35,0.839-0.19,0.899-0.26c-0.1,0.26-0.45,0.26-0.629,0.44C2.473,41.67,2.203,41.67,2.203,41.58z M5.163,40.59
	c0.09,0,0.45,0.09,0.27,0.27C5.343,40.95,5.073,40.68,5.163,40.59z M5.613,39.5c0,0,0.26,0,0.17,0.09c-0.08,0.09-0.25,0.09-0.34,0.1
	C5.462,39.64,5.502,39.56,5.613,39.5z M4.442,34c0.27,0,0.27,0,0.27,0.09c0.09,0-0.36,0.18-0.45,0.18C4.263,34.18,4.442,34,4.442,34
	z M39.24,42.88c0.18,0.27-0.45,0.18-0.54-0.09c0-0.09,0.27,0.09,0.27,0.09H39.24z M40.669,43.24c0,0.09,0,0.09-0.09,0.18
	c0,0-0.09-0.18,0-0.27L40.669,43.24z M40.76,41.17c0,0.09,0,0.09-0.27,0.09c0,0-0.17-0.18-0.17-0.27
	C40.399,40.99,40.85,41.17,40.76,41.17z M38.53,40.53c0,0,0.44,0,0.44-0.09c0.18,0,0.36,0,0.54-0.09c0,0,0.18,0.27,0,0.37
	c-0.09,0.09-0.54,0.09-0.54,0.09C39.06,40.72,38.439,40.62,38.53,40.53z M37.629,42.88c0,0,0.36,0.27,0.36,0.36
	C38.08,43.51,37.54,42.97,37.629,42.88z M37,37.47c0.27,0.09,0.63,0.09,0.9,0.09c0,0,0.27,0.72,0,0.54
	c-0.09-0.09-0.63-0.54-0.72-0.27C37.09,37.74,37,37.65,37,37.47z M37.36,39.09c0,0.09,0.36,0.36,0.45,0.45
	c0,0.09-0.09,0.09-0.18,0.09c-0.09-0.18-0.45,0-0.45-0.36v-0.18C37.18,38.91,37.36,39.09,37.36,39.09z M37.81,38.82
	c0.09,0.09-0.27,0.09-0.27,0C37.45,38.73,37.81,38.73,37.81,38.82z M28.98,32.75c0.04,0.36-0.39,0.22-0.49,0.29
	c-0.11,0.17,0.54,0.71,0.01,0.64l-0.03-0.21l-0.12,0.04c-0.54,0.45-0.99-0.09-1.17,0.09c-0.36,0.27-0.36-0.18,0-0.27
	c0.27,0,0.63,0,0.9-0.1c0.16,0.04,0.29,0.07,0.36,0.1c-0.05-0.28-0.15-0.59-0.45-0.63l-0.2,0.16c-0.09-0.01,0.24-0.42,0.08-0.63
	c-0.49,0.3-0.09-0.01,0.04-0.26c0.1-0.08-0.17-0.12-0.16-0.21c0,0,0.27,0.04,0.26,0.13c0.25,0.12,0.37-0.05,0.54-0.02
	c0.09,0.01,0.41,0.33,0.4,0.42c-0.01,0.09-0.11,0.16-0.12,0.25C28.811,32.63,28.98,32.75,28.98,32.75z M28.48,38.69
	c0.18,0.66,0.77,0.28,0.99,0.68c-0.22,0.33-0.26,0.6-0.69,0.45l-0.23-0.3c0,0-0.47,0.12-0.46,0.03c0,0,0.19-0.07,0.28-0.06
	C28.411,39.22,28.21,38.65,28.48,38.69z M28.48,35.87c-0.1,0.07-0.2,0.15-0.21,0.24c-0.11,0.17,0.05,0.28,0.13,0.38
	c-0.1,0.08-0.21,0.25-0.22,0.34c0.07,0.1,0.14,0.29,0.13,0.38c-0.09-0.01-0.28,0.05-0.46,0.03c-0.1,0.08-0.03,0.27-0.04,0.36
	c-0.09-0.02-0.17-0.12-0.17-0.12c-0.09-0.01-0.28,0.06-0.27-0.03c0.03-0.18,0.14-0.35,0.07-0.54c0.02-0.09-0.07-0.1-0.17-0.02
	c0.08,0.01,0.07,0.1,0.06,0.19c-0.09-0.01-0.16-0.12-0.25-0.13c-0.1,0.08-0.29,0.15-0.38,0.13c0.01-0.09-0.07-0.19-0.07-0.19
	c0.46-0.03,1.13-0.3,1.27-0.74c0.02-0.09-0.05-0.28-0.04-0.37l0.57-0.2C28.511,35.69,28.491,35.78,28.48,35.87z M26.48,41.52
	c0.09,0.01,0.07,0.19,0.07,0.19c-0.18-0.03-0.45-0.06-0.53-0.16C26.21,41.48,26.391,41.5,26.48,41.52z M28.141,37.82
	c0.09,0.01,0.09,0.01,0.07,0.1c-0.1,0.08-0.17-0.02-0.27,0.06c-0.02,0.09-0.32,0.32-0.39,0.22C27.391,38,28.051,37.81,28.141,37.82z
	 M30.95,34.92c0.42-0.4,0.26,0.12,0.22,0.39c-0.1,0.08-0.329,1.14-0.679,1.1c-0.01,0.08-0.11,0.16-0.2,0.15
	c-0.19,0.07-0.23-0.3-0.45-0.06c0.24,0.31-0.01,0.09-0.21,0.25c-0.11,0.16-0.39,0.22-0.26-0.04c0.13-0.35,0.4-0.31,0.6-0.47
	c0.1-0.07,0.12-0.25,0.13-0.34c-0.15-0.2-0.22-0.39,0.06-0.45c0.57-0.2,0.06,0.28,0.04,0.37c0.08,0.1,0.469-0.12,0.48-0.21
	L30.95,34.92z M30.83,33.81l-0.06,0.45c0,0-0.09-0.01-0.08-0.1l0.05-0.36L30.83,33.81z M31.45,33.17l0.16,0.2
	c-0.11,0.16-0.27-0.04-0.38,0.13l-0.021,0.18c-0.279,0.05-0.55,0.02-0.81-0.02l0.05-0.45c0.1-0.07,0.36,0.05,0.45,0.06
	C31.08,33.3,31.28,33.14,31.45,33.17z M27.411,31.63l-0.09-0.02c-0.15-0.2,0.22-0.24,0.39-0.22c0.09,0.01,1.07-0.58,0.91-0.06
	C28.431,31.4,27.591,31.65,27.411,31.63z M31.52,27.16c-0.09-0.01-0.7-0.18-0.16-0.2l0.36,0.05c-0.03,0.18,0.05,0.28,0.04,0.37
	c-0.01,0.09-0.29,0.14-0.29,0.14C31.39,27.42,31.5,27.25,31.52,27.16z M32.67,25.95c-0.11,0.17-0.41-0.33-0.14-0.29
	C32.7,25.68,32.77,25.87,32.67,25.95z M31.71,27.74c0,0-0.29,0.14-0.38,0.13c-0.12,0.26,0.51,0.25,0.59,0.35
	c-0.02,0.18-0.05,0.36-0.15,0.44c-0.28,0.05-0.16-0.12-0.33-0.23c-0.08-0.1-0.19,0.07-0.27-0.04c-0.17-0.02,0-0.63,0.011-0.72
	L31.71,27.74z M30.99,28.46c0.07,0.1,0.061,0.19,0.05,0.28l-0.18-0.02l0.04-0.27L30.99,28.46z M29.141,38.41
	c-0.1,0.08-0.75-0.46-0.04-0.37C29.281,38.07,29.331,38.35,29.141,38.41z M30.161,27.89c-0.09-0.01-0.59-0.35-0.39-0.5
	c0.1-0.08,0.14,0.29,0.14,0.29c0.26,0.12,0.22-0.25,0.23-0.33C30.62,27.14,30.271,27.73,30.161,27.89z M28.991,29.2
	c-0.58,0.28-0.51-0.25-0.19-0.58c0.17,0.03,0.2,0.49,0.41,0.33c0.18-0.06-0.06-0.28,0.21-0.24c0.08,0.1,0.14,0.29,0.04,0.37
	c-0.01,0.09-0.18-0.03-0.27-0.04C29.091,29.12,29.081,29.21,28.991,29.2z M30.681,26.69c0.08,0.01,0.06,0.19,0.05,0.28l-0.36-0.05
	C30.391,26.83,30.591,26.68,30.681,26.69z M28.451,30.58c0,0-0.01,0.09-0.1,0.08c0,0-0.1,0.08-0.19,0.06l0.02-0.18L28.451,30.58z
	 M30.081,34.71c-0.09-0.01-0.16-0.2-0.14-0.29l0.26,0.04C30.19,34.54,30.091,34.62,30.081,34.71z M31.21,32.95
	c-0.18-0.02-0.159-0.11-0.33-0.23c-0.18-0.02-1.019,0.23-0.849-0.38c0.29-0.15,0.11-0.17,0.14-0.44c0.09,0.01,0.29-0.14,0.37-0.04
	l0.129,0.38c0.07,0.19,0.431,0.15,0.511,0.25S31.221,32.86,31.21,32.95z M30.371,29.02c-0.64,0.09,0.25-0.52,0.299-0.24
	c0.07,0.19-0.029,0.27,0.03,0.46l0.32,0.32c0.149,0.29-0.84,0.25-1.02,0.23c0,0-0.04-0.37,0.05-0.36l-0.02,0.09
	c0.08,0.1,0.54,0.07,0.54,0.07C30.771,29.43,30.541,29.13,30.371,29.02z M20.521,25.58c0.09-0.09,0.36-0.09,0.45-0.18
	c0.09,0.09,0,0.18-0.09,0.36C20.611,25.94,20.431,25.67,20.521,25.58z M20.791,23.5c-0.07,0.21-0.41-0.02-0.48-0.21h-0.29
	c0.16-0.41,0.76-0.3,0.479-0.08C20.611,23.28,20.731,23.39,20.791,23.5z M19.711,18.9c0.271,0,0.72,0.36,0.271,0.27
	C19.802,19.08,19.621,19.08,19.711,18.9z M21.771,14.3c0.36,0,0,0.09,0.18,0.27c0.18,0.18,0,0.18-0.09,0.18
	C21.501,15.02,21.591,14.39,21.771,14.3z M19.531,21.79c0.271,0.27,0.54-0.09,0.63,0.27c-0.11,0.11-0.3,0.16-0.5,0.17v0.06
	c-0.03,0-0.069-0.02-0.12-0.05h-0.18C19.092,22.15,19.451,21.88,19.531,21.79z M21.951,11.86c0,0,0.18,0.18,0.09,0.18
	c-0.18,0-0.54-0.09-0.54-0.27C21.681,11.86,21.861,11.77,21.951,11.86z M22.041,22.42c0.09,0,0.18,0.18,0.18,0.27
	C22.311,22.87,21.951,22.78,22.041,22.42z M19.802,23.14c0.629,0-0.271,0.9-0.8,0.36C19.001,23.41,19.621,23.23,19.802,23.14z
	 M25.001,16.28c0.17,0,0.09,0.27,0,0.27C24.911,16.46,24.911,16.37,25.001,16.28z M24.821,8.97c0.27,0.18,0.09,0.45-0.18,0.45
	C24.461,9.42,24.911,9.15,24.821,8.97z M24.911,7.35c-0.27,0.45-0.54,0.36-0.36,0.09c0.09-0.19,0.18-0.28,0.18-0.46
	C25.001,7.07,24.911,7.07,24.911,7.35z M23.121,20.88c0.44,0.09,0.62,0.18,0.26,0.27c-0.53,0.46-0.98-0.09-1.16,0.1
	c-0.36,0.27-0.36-0.19,0-0.28C22.491,20.97,22.851,20.97,23.121,20.88z M24.281,11.86c0.18,0.09,0.54,0.36,0.36,0.54
	C24.551,12.49,24.371,11.95,24.281,11.86z M23.471,4.01c0.09,0,0.54,0.45,0.09,0.36C23.381,4.37,23.201,4.1,23.471,4.01z
	 M23.471,5.81c0.45,0.09,0.72,0.63,0.45,0.36C23.651,6.08,23.381,6.44,23.471,5.81z M24.371,6.89c0.45,0.18-0.63,0.18-0.63-0.18
	L24.371,6.89z M22.581,13.12c-0.54,0.18-0.36-0.36-0.09-0.54C22.671,12.67,22.941,13.03,22.581,13.12z M22.941,11.32
	c0.18,0,0.53,0.18,0.26,0.45C22.941,12.04,22.941,11.5,22.941,11.32z M22.491,6.17c0.27,0,0.8,0.27,0.27,0.27
	C22.581,6.53,22.311,6.44,22.491,6.17z M25.48,37.93c0.091-0.09,0.36-0.09,0.45-0.18c0.09,0.09,0,0.18-0.09,0.36
	C25.571,38.29,25.391,38.02,25.48,37.93z M25.75,35.85c-0.089,0.27-0.629-0.18-0.45-0.36C25.391,35.49,25.661,35.67,25.75,35.85z
	 M26.73,26.65c0.36,0,0,0.09,0.18,0.27c0.18,0.18,0,0.18-0.09,0.18C26.471,27.37,26.561,26.74,26.73,26.65z M26.641,28.18
	c0.36,0,0.27,0.36,0,0.27C26.471,28.36,26.641,28.18,26.641,28.18z M24.501,34.14c0.26,0.27,0.53-0.09,0.62,0.27
	c-0.18,0.18-0.53,0.18-0.8,0.18C24.051,34.5,24.411,34.23,24.501,34.14z M26.911,24.21c0,0,0.18,0.18,0.09,0.18
	c-0.18,0-0.53-0.09-0.53-0.27C26.641,24.21,26.821,24.12,26.911,24.21z M27.181,27.91c0,0.27-0.36,0.09-0.27-0.18
	C27,27.73,27.181,27.73,27.181,27.91z M24.761,35.49c0.629,0-0.26,0.9-0.8,0.36C23.961,35.76,24.591,35.58,24.761,35.49z
	 M24.681,31.25c0.26,0,0.709,0.36,0.26,0.27C24.761,31.43,24.591,31.43,24.681,31.25z M29.781,21.32c0.27,0.18,0.09,0.45-0.18,0.45
	C29.42,21.77,29.871,21.5,29.781,21.32z M29.96,28.63c0.18,0,0.09,0.27,0,0.27C29.871,28.81,29.871,28.72,29.96,28.63z M29.871,19.7
	c-0.27,0.45-0.54,0.36-0.36,0.09c0.09-0.18,0.18-0.27,0.18-0.46C29.96,19.42,29.871,19.42,29.871,19.7z M28.351,27.91
	c-0.27,0.18-0.54-0.09-0.36-0.36C28.081,27.55,28.611,27.73,28.351,27.91z M28.44,16.36c0.08,0,0.53,0.45,0.08,0.36
	C28.351,16.72,28.17,16.45,28.44,16.36z M29.241,24.21c0.18,0.09,0.54,0.36,0.36,0.54C29.511,24.84,29.331,24.3,29.241,24.21z
	 M28.44,18.16c0.44,0.09,0.71,0.63,0.44,0.36C28.611,18.43,28.351,18.79,28.44,18.16z M29.331,19.24c0.45,0.18-0.63,0.18-0.63-0.18
	L29.331,19.24z M27.541,25.47c-0.54,0.18-0.36-0.36-0.09-0.54C27.63,25.02,27.9,25.38,27.541,25.47z M27.451,18.52
	c0.27,0,0.81,0.27,0.27,0.27C27.541,18.88,27.271,18.79,27.451,18.52z M27.9,23.67c0.18,0,0.54,0.18,0.27,0.45
	S27.9,23.85,27.9,23.67z M27,34.77c0.09,0,0.18,0.18,0.18,0.27C27.271,35.22,26.911,35.13,27,34.77z M27.9,28.09
	c0.09,0,0.36,0.09,0.36,0.27C28.351,28.45,27.811,28.27,27.9,28.09z M28.611,29.9c0.27,0.09,0.27,0.09,0.27,0.36
	C28.701,30.71,28.44,29.99,28.611,29.9z M18.412,14.17c-0.18,0.18-0.09-0.36,0-0.45h0.09C18.501,13.81,18.501,14.08,18.412,14.17z
	 M18.501,13.09h0.18c-0.09,0.18-0.09,0.27-0.27,0.27c0-0.09,0-0.09-0.09-0.18C18.412,13.18,18.412,13.18,18.501,13.09z
	 M18.142,20.85c0.09-0.09,0.36,0.09,0.54,0.09c0.09-0.09,0.18-0.09,0.27,0c0,0.18-0.36,0.09-0.54,0.09
	C18.412,21.03,18.052,20.94,18.142,20.85z M18.412,20.22c0.09-0.09,0.18,0,0.27,0v0.18c-0.09,0.09-0.18,0.09-0.27,0.09V20.22z
	 M16.622,40.17c0-0.09,0.18-0.45,0.27-0.55c0.18,0.19,0.36,0.28,0.63,0.19c-0.09,0.09-0.36,0.45-0.45,0.45
	c-0.09,0-0.18-0.09-0.27-0.09H16.622z M19.222,8.12c-0.09,0-0.27-0.45-0.18-0.45c0.18,0,0.18,0.18,0.36,0.27c0.08,0,0.8,0,0.8,0.27
	c0,0.09-0.27,0.27-0.359,0.18l0.09-0.27C19.661,8.12,19.481,8.3,19.222,8.12z M17.342,45.76c0,0-0.09-0.09,0-0.09h0.26v0.09H17.342z
	 M18.231,40.62l-0.09,0.18c-0.27-0.18-0.54-0.18-0.8-0.27C17.342,40.26,18.142,40.44,18.231,40.62z M20.381,7.67
	c-0.09,0.09-0.359-0.18-0.18-0.18h0.36C20.561,7.49,20.471,7.67,20.381,7.67z M17.872,28.61c-1.61-0.81-0.89,0.45-1.97,0.27
	c0-0.36,1.35-0.99,1.62-0.81l0.17,0.36c0.36,0,0-0.18,0.18-0.27c0-0.09,0.36,0.09,0.36,0.18C18.322,28.52,17.961,28.61,17.872,28.61
	z M17.961,45.22c0.27,0,0.54,0.63,0.27,0.27c-0.36,0-0.27,0.36-0.45,0.45C17.691,45.94,17.872,45.22,17.961,45.22z M17.521,45.13
	c0,0.09,0.08,0.09,0.17,0.18v0.18h-0.17V45.13z M17.782,43.87c-0.26-0.45,0.63-1-0.18-1c0-0.09,0.27-0.27,0.36-0.18
	c0.18,0.09,0,0.64,0.09,0.73C18.052,43.6,17.872,44.05,17.782,43.87z M18.771,44.14c0,0-0.09,0-0.18-0.09l-0.18-0.27l0.36,0.18
	V44.14z M20.111,42.06c0.18,0.09,0.36,0.45,0,0.36C19.222,42.33,19.842,42.33,20.111,42.06z M14.292,41.16h-0.62
	c-0.09,0,0-0.27-0.09-0.27c-0.27-0.54,0.26-0.18,0.53-0.09C14.202,40.8,14.562,40.98,14.292,41.16z M17.251,44.23
	c0.09,0.09,0.09,0.72-0.09,0.27c-0.09,0-0.54,0.09-0.54,0C16.622,44.41,17.162,44.14,17.251,44.23z M14.472,18.59
	c-0.18,0-0.359-0.54-0.359-0.72C14.472,17.87,14.472,18.32,14.472,18.59z M14.202,22.57c-0.18,0.09-0.27-0.09-0.359-0.18h0.359
	V22.57z M12.232,29.61c0-0.09,0.09-0.18,0.09-0.27h0.27c0,0.09,0,0.27-0.09,0.27H12.232z M12.772,42.78l0.36-0.27h0.09
	c0,0.09-0.09,0.27-0.09,0.36C13.042,42.87,12.862,42.87,12.772,42.78z M14.921,24.01l0.18,0.18c0.09,0.09,0.36,0.09,0.18,0.27
	c-0.27,0-0.36-0.09-0.36-0.36V24.01z M15.812,41.79c0,0.09,0,0.18-0.09,0.18c-0.08,0-0.17,0.09-0.26,0.09v-0.18l0.09-0.09H15.812z
	 M15.812,20.31c-0.09,0-0.17,0.54-0.26,0.18c0.09-0.18,0.17-0.45,0.44-0.45c0.09,0,0.36,0.18,0.18,0.27
	C16.171,20.4,15.901,20.22,15.812,20.31z M15.901,17.33c-0.09,0.18-0.18,0-0.18-0.18c0.09-0.09,0.09-0.18,0.09-0.27
	c0.09-0.18,0.18-0.18,0.36-0.18c0,0.36-0.09,0.09-0.18,0.27C15.901,17.06,15.992,17.33,15.901,17.33z M17.162,16.43
	c0.09,0.09-0.45,0.18-0.45,0.18v0.27c0.09,0,0.45-0.09,0.45-0.09l-0.09,0.27c0,0.09,0.27,0.09,0.27,0.09
	c0.18,0.27-0.18,0.18-0.18,0.27c-0.36,0.36-0.63-0.27-0.72-0.63l-0.09-0.27c0-0.09,0.18,0.09,0.27,0.09
	C16.622,16.61,16.981,16.25,17.162,16.43z M14.832,26.72v0.36l-0.45-0.27c0-0.09,0-0.18,0.09-0.18
	C14.562,26.54,14.742,26.63,14.832,26.72z M19.481,26.18c0,0.09-0.08,0.18-0.26,0.18c0-0.09,0.09-0.18,0.18-0.18H19.481z
	 M20.201,27.44c-0.18,0-0.359,0-0.54,0.09l0.271-0.27c0.09,0,0.18,0,0.27,0.09V27.44z M19.481,26.9c0-0.09,0.09-0.09,0.09-0.18h0.36
	l-0.271,0.27C19.661,26.99,19.571,26.9,19.481,26.9z M19.312,14.35c0-0.09-0.09-0.27,0-0.27h0.17v0.27H19.312z M20.471,28.7
	c0-0.18,0.72-0.09,0.45,0C20.831,28.7,20.291,29.06,20.471,28.7z M14.832,46.12h0.27c0.09,0.09,0.18,0.18,0.09,0.36
	c-0.09,0-0.27,0-0.36-0.09V46.12z M14.292,44.59c0.09,0,0.18-0.09,0.27-0.09C14.562,44.59,14.472,44.59,14.292,44.59z M14.202,42.24
	v0.36c-0.089,0-0.18,0-0.27-0.09c0-0.09,0.089-0.18,0.089-0.27H14.202z M13.932,44.59c0,0-0.09-0.18,0-0.18
	c0.089,0,0.18,0.18,0.27,0.18H13.932z M17.602,39.17c0-0.09,0.09-0.09,0.09-0.09h0.27c-0.09,0.09,0,0.18-0.18,0.18
	C17.691,39.26,17.691,39.17,17.602,39.17z M17.691,23.47c0,0.18-0.09,0.27-0.09,0.45h-0.08v-0.45H17.691z M18.052,23.92
	c0.09,0.09-0.18,0.45-0.18,0.54c-0.27,0-0.35-0.09-0.53-0.18c0-0.18,0.09-0.18,0.26-0.09c0.09,0,0.18,0.09,0.27-0.09
	C17.961,24.01,18.052,23.83,18.052,23.92z M17.602,26.72v0.18h-0.35c0.09-0.09,0-0.18,0.18-0.18H17.602z M16.981,19.32
	c0.09,0.18,0.18,0.36,0.18,0.45h-0.36c0-0.09,0-0.27,0.09-0.45H16.981z M17.072,22.29c0.18-0.09,0.09,0.1,0.18,0.1l0.89,0.18v0.36
	c-0.36,0-0.18-0.27-0.45-0.27c-0.26-0.09-0.53,0.45-0.71-0.09v-0.28H17.072z M16.082,26.81c0.27,0.27-0.53,0.27-0.8,0.18
	c0-0.09,0.09-0.45,0.27-0.45c0,0.09,0.09,0.27,0.09,0.27C15.722,26.9,15.992,26.81,16.082,26.81z M15.191,19.05
	c0-0.09,0.09-0.18,0.18-0.28h0.18c0,0.1-0.09,0.19-0.18,0.28H15.191z M16.441,25.18c0-0.09,0.27-0.18,0.36-0.27l-0.18-0.18
	c0-0.36-0.09-0.63-0.09-0.99v-0.09h0.18v0.9c0.18,0.18,0.18,0.45-0.09,0.54L16.441,25.18z M15.992,27.8c0-0.09,0.45,0.18,0.45,0.27
	h-0.27C15.992,28.16,15.992,27.98,15.992,27.8z M15.812,25.18c-0.09,1.09-0.98,0.36-0.35,0.09
	C15.552,25.18,15.722,25.18,15.812,25.18z M17.162,21.48c0-0.09,0-0.09,0.09-0.09c0.18,0,0.35,0.09,0.53,0.18
	c0,0.09-0.18,0.45-0.26,0.36v-0.18C17.432,21.57,17.162,21.66,17.162,21.48z M17.521,26.18c-0.09,0-0.81-0.36-0.72,0
	c0.09,0.09,0.36,0,0.36,0.18c-0.63,0.27,0.36,0.54-0.18,0.72h-0.45c0,0,0.27-0.18,0.27-0.27l-0.18-0.09
	c-0.09-0.09,0.18-0.18,0.18-0.27c-0.09-0.27-0.54-0.36-0.27-0.63c0.09-0.1,0.18-0.19,0.27-0.19c0.27-0.09,0.18,0.19,0.36,0.28
	c0.09,0.09,0.27-0.09,0.36,0V26.18z M18.052,25.09c0,0,0-0.18,0.09-0.18h0.09v0.36L18.052,25.09z M18.142,26.54v-0.27
	c0.09,0,0.18,0.09,0.27,0.27C18.322,26.63,18.231,26.63,18.142,26.54z M18.862,27.98c-0.45-0.45,0.18-0.09,0.36,0.09
	C19.401,28.34,18.952,28.07,18.862,27.98z M18.682,21.75c0.09,0,0.18,0.09,0.18,0.27c-0.09,0-0.18,0-0.27-0.09v-0.18H18.682z
	 M18.412,24.01l0.09-0.09l0.18,0.27c-0.18,0-0.27,0.09-0.36,0.18c0-0.18-0.09-0.27-0.09-0.45
	C18.231,23.92,18.322,24.01,18.412,24.01z"/>
</svg>
